SplineFontDB: 3.0
FontName: Dhyana
FullName: Dhyana
FamilyName: Dhyana
Weight: Book
Copyright: Copyright (c) 2010 by Vernon Adams. All rights reserved.
Version: 1.001
ItalicAngle: 0
UnderlinePosition: -188
UnderlineWidth: 48
Ascent: 1638
Descent: 410
sfntRevision: 0x00010000
LayerCount: 2
Layer: 0 0 "Back"  1
Layer: 1 0 "Fore"  0
NeedsXUIDChange: 1
XUID: [1021 332 469972825 6151813]
FSType: 0
OS2Version: 2
OS2_WeightWidthSlopeOnly: 0
OS2_UseTypoMetrics: 1
CreationTime: 1283952577
<<<<<<< HEAD
ModificationTime: 1345638224
=======
ModificationTime: 1332927735
>>>>>>> updates
PfmFamily: 17
TTFWeight: 400
TTFWidth: 5
LineGap: 0
VLineGap: 0
Panose: 2 0 8 3 5 0 0 2 0 4
OS2TypoAscent: 2537
OS2TypoAOffset: 0
OS2TypoDescent: -766
OS2TypoDOffset: 0
OS2TypoLinegap: 0
OS2WinAscent: 2537
OS2WinAOffset: 0
OS2WinDescent: 766
OS2WinDOffset: 0
HheadAscent: 2537
HheadAOffset: 0
HheadDescent: -766
HheadDOffset: 0
OS2SubXSize: 1331
OS2SubYSize: 1433
OS2SubXOff: 0
OS2SubYOff: 286
OS2SupXSize: 1331
OS2SupYSize: 1433
OS2SupXOff: 0
OS2SupYOff: 983
OS2StrikeYSize: 102
OS2StrikeYPos: 512
OS2Vendor: 'newt'
OS2CodePages: 00000001.00000000
OS2UnicodeRanges: 82000067.1000200a.00000000.00000000
Lookup: 1 0 0 "'liga' Standard Ligatures lookup 0"  {"'liga' Standard Ligatures lookup 0 subtable"  } ['liga' ('lao ' <'dflt' > 'latn' <'dflt' > ) ]
Lookup: 4 0 1 "'liga' Standard Ligatures lookup 1"  {"'liga' Standard Ligatures lookup 1 subtable"  } ['liga' ('lao ' <'dflt' > 'latn' <'dflt' > ) ]
Lookup: 2 0 0 "ccmpGlyphCompositionDecompositi"  {"ccmpGlyphCompositionDecompositi subtable"  } ['ccmp' ('lao ' <'dflt' > ) ]
Lookup: 262 0 0 "'mkmk' Mark to Mark lookup 1"  {"'mkmk' Mark to Mark lookup 1-1"  } ['mkmk' ('DFLT' <'dflt' > 'lao ' <'dflt' > 'latn' <'dflt' > ) ]
Lookup: 258 0 0 "'kern' Horizontal Kerning in Latin lookup 0"  {"'kern' Horizontal Kerning in Latin lookup 0 subtable"  } ['kern' ('DFLT' <'dflt' > 'latn' <'dflt' > ) ]

StartChar: exclam
Encoding: 3 33 4
Width: 448
VWidth: 0
GlyphClass: 2
<<<<<<< HEAD
Flags: MW
=======
Flags: W
HStem: -16 202<118 327> 1559 20G<140 314>
VStem: 118 209<-16 186> 140 174<399 1579>
>>>>>>> updates
LayerCount: 2
Fore
SplineSet
327 186 m 1
 327 -16 l 1
 118 -16 l 1
 118 186 l 1
 327 186 l 1
314 399 m 1
 140 399 l 1
 140 1579 l 1
 314 1579 l 1
 314 399 l 1
EndSplineSet
EndChar

StartChar: quotedbl
Encoding: 4 34 5
Width: 796
VWidth: 0
GlyphClass: 2
<<<<<<< HEAD
Flags: MW
=======
Flags: W
HStem: 1058 521<175 283 513 621>
VStem: 114 230<1184.56 1579> 452 230<1184.56 1579>
>>>>>>> updates
LayerCount: 2
Fore
SplineSet
453 1508 m 2
 452 1515 452 1523 452 1531 c 0
 452 1547 453 1564 453 1579 c 1
 681 1579 l 1
 681 1564 682 1547 682 1531 c 0
 682 1523 682 1515 681 1508 c 2
 621 1058 l 1
 513 1058 l 1
 453 1508 l 2
115 1508 m 2
 114 1515 114 1523 114 1531 c 0
 114 1547 115 1564 115 1579 c 1
 343 1579 l 1
 343 1564 344 1547 344 1531 c 0
 344 1523 344 1515 343 1508 c 2
 283 1058 l 1
 175 1058 l 1
 115 1508 l 2
EndSplineSet
EndChar

StartChar: numbersign
Encoding: 5 35 6
Width: 1056
VWidth: 0
GlyphClass: 2
<<<<<<< HEAD
Flags: MW
=======
Flags: W
HStem: 561 123<106 272 425 599 751 927> 905 125<134 309 462 634 790 950>
VStem: 239 141<295 436> 354 139<1170 1309> 567 141<295 436> 679 142<1165 1307>
DStem2: 239 295 380 295 0.11269 0.99363<15.8893 268.024 407.482 614.003 755.448 1020.5> 567 295 708 295 0.11097 0.993824<15.6468 267.908 407.016 613.667 755.207 1018.18>
>>>>>>> updates
LayerCount: 2
Fore
SplineSet
599 561 m 1
 413 561 l 1
 380 295 l 1
 239 295 l 1
 272 561 l 1
 106 561 l 1
 106 684 l 1
 282 684 l 1
 309 905 l 1
 134 905 l 1
 134 1030 l 1
 323 1030 l 1
 354 1309 l 1
 493 1309 l 1
 462 1030 l 1
 651 1030 l 1
 679 1307 l 1
 821 1307 l 1
 790 1030 l 1
 950 1030 l 1
 950 905 l 1
 778 905 l 1
 751 684 l 1
 927 684 l 1
 927 561 l 1
 739 561 l 1
 708 295 l 1
 567 295 l 1
 599 561 l 1
425 684 m 1
 608 684 l 1
 634 905 l 1
 452 905 l 1
 425 684 l 1
EndSplineSet
EndChar

StartChar: dollar
Encoding: 6 36 7
Width: 1019
VWidth: 0
GlyphClass: 2
<<<<<<< HEAD
Flags: MW
=======
Flags: W
HStem: -20 149<270.146 473 576 709.881> 572 173<327.372 473> 1098 138<276.651 473 576 817.374>
VStem: 60 163<829.288 1042.74> 473 103<-178 -16.1745 134 539 745 1098 1240 1390> 797 165<210.202 444.458>
>>>>>>> updates
LayerCount: 2
Fore
SplineSet
576 1236 m 1
 618 1235 907 1215 907 1172 c 2
 907 1171 l 1
 855 1040 l 1
 767 1077 670 1092 576 1098 c 1
 576 709 l 1
 763 646 962 568 962 340 c 0
 962 101 793 0 576 -18 c 1
 576 -178 l 1
 473 -178 l 1
 473 -20 l 1
 347 -11 244 23 124 63 c 1
 173 207 l 1
 274 169 365 142 473 129 c 1
 473 572 l 1
 259 618 60 664 60 929 c 0
 60 1156 285 1234 473 1240 c 1
 473 1390 l 1
 576 1390 l 1
 576 1236 l 1
473 745 m 1
 473 1100 l 1
 348 1100 223 1078 223 924 c 0
 223 805 380 759 473 745 c 1
576 539 m 1
 576 134 l 1
 692 137 797 204 797 329 c 0
 797 464 679 498 576 539 c 1
EndSplineSet
EndChar

StartChar: percent
Encoding: 7 37 8
Width: 1671
VWidth: 0
GlyphClass: 2
<<<<<<< HEAD
Flags: MW
=======
Flags: W
HStem: -21 110<1175.65 1406.54> 678 110<264.647 495.539 1166.05 1415.95> 1391 104<265.334 494.666>
VStem: 59 133<868.189 1309.69> 568 133<867.968 1309.69> 970 133<169.189 610.692> 1479 133<168.968 610.692>
DStem2: 425 37 555 -22 0.423225 0.906025<1.56382 1605.33>
>>>>>>> updates
LayerCount: 2
Fore
SplineSet
1103 393 m 0
 1103 520 1129 692 1291 692 c 0
 1453 692 1479 520 1479 393 c 0
 1479 263 1457 89 1291 89 c 0
 1125 89 1103 263 1103 393 c 0
970 372 m 0
 970 172 1065 -21 1291 -21 c 0
 1518 -21 1612 171 1612 372 c 0
 1612 589 1542 796 1291 796 c 0
 1040 796 970 589 970 372 c 0
192 1092 m 0
 192 1219 218 1391 380 1391 c 0
 542 1391 568 1219 568 1092 c 0
 568 962 546 788 380 788 c 0
 214 788 192 962 192 1092 c 0
59 1071 m 0
 59 871 154 678 380 678 c 0
 607 678 701 870 701 1071 c 0
 701 1288 631 1495 380 1495 c 0
 129 1495 59 1288 59 1071 c 0
425 37 m 1
 1107 1497 l 1
 1236 1430 l 1
 555 -22 l 1
 425 37 l 1
EndSplineSet
EndChar

StartChar: ampersand
Encoding: 8 38 9
Width: 1536
VWidth: 0
GlyphClass: 2
<<<<<<< HEAD
Flags: MW
=======
Flags: W
HStem: -39 139<386.518 930.668> -7 21G<1379.16 1419.86> 1310 135<424.519 762.303>
VStem: 64 182<233.51 593.14> 196 166<1006.98 1248.01> 836 160<993.921 1240.11> 1146 164<397.328 796>
DStem2: 637 781 492 726 0.779114 -0.626883<0 630.146 815.433 1090.78>
>>>>>>> updates
LayerCount: 2
Fore
SplineSet
631 -39 m 0
 353 -39 64 75 64 396 c 0
 64 621 184 761 398 822 c 1
 307 879 196 1001 196 1113 c 0
 196 1345 386 1445 595 1445 c 0
 803 1445 996 1346 996 1115 c 0
 996 899 813 836 637 781 c 1
 1132 391 l 1
 1141 526 1146 661 1146 796 c 1
 1310 796 l 1
 1310 624 1296 446 1263 277 c 1
 1489 95 l 1
 1403 -7 l 1
 1192 170 l 1
 1105 6 797 -39 631 -39 c 0
246 418 m 0
 246 161 398 100 631 100 c 0
 777 100 992 118 1080 256 c 1
 492 726 l 1
 328 691 246 585 246 418 c 0
836 1119 m 0
 836 1258 718 1310 595 1310 c 0
 465 1310 362 1269 362 1121 c 0
 362 1026 467 925 547 883 c 1
 679 922 836 953 836 1119 c 0
EndSplineSet
EndChar

StartChar: quotesingle
Encoding: 9 39 10
Width: 353
VWidth: 0
GlyphClass: 2
<<<<<<< HEAD
Flags: MW
=======
Flags: W
HStem: 1058 521<121 229>
VStem: 60 230<1184.56 1579>
>>>>>>> updates
LayerCount: 2
Fore
SplineSet
61 1508 m 2
 60 1515 60 1523 60 1531 c 0
 60 1547 61 1564 61 1579 c 1
 289 1579 l 1
 289 1564 290 1547 290 1531 c 0
 290 1523 290 1515 289 1508 c 2
 229 1058 l 1
 121 1058 l 1
 61 1508 l 2
EndSplineSet
EndChar

StartChar: parenleft
Encoding: 10 40 11
Width: 467
VWidth: 0
GlyphClass: 2
<<<<<<< HEAD
Flags: MW
=======
Flags: W
HStem: 1575 20G<248.5 401.765>
VStem: 3 186<353.21 1032.29>
>>>>>>> updates
LayerCount: 2
Fore
SplineSet
491 1493 m 1
 280 1307 189 965 189 694 c 0
 189 450 268 64 475 -97 c 1
 392 -205 l 1
 117 -30 3 392 3 696 c 0
 3 1003 117 1406 380 1595 c 1
 491 1493 l 1
EndSplineSet
EndChar

StartChar: parenright
Encoding: 11 41 12
Width: 469
VWidth: 0
GlyphClass: 2
<<<<<<< HEAD
Flags: MW
=======
Flags: W
HStem: 1579 20G<63.6296 214.5>
VStem: 281 187<360.608 1043.82>
>>>>>>> updates
LayerCount: 2
Fore
SplineSet
281 694 m 0
 281 947 202 1319 -4 1491 c 1
 79 1599 l 1
 350 1413 468 1021 468 710 c 0
 468 382 363 -7 79 -205 c 1
 -21 -99 l 1
 188 81 281 430 281 694 c 0
EndSplineSet
EndChar

StartChar: asterisk
Encoding: 12 42 13
Width: 1017
VWidth: 0
GlyphClass: 2
<<<<<<< HEAD
Flags: MW
=======
Flags: W
HStem: 1090 202<407 609> 1145 92<113 422 594 903>
DStem2: 252 872 354 815 0.4956 0.868551<1.04376 316.218> 594 1145 508 1090 0.4956 -0.868551<5.14873 320.323>
>>>>>>> updates
LayerCount: 2
Fore
SplineSet
508 1292 m 1
 647 1567 l 1
 750 1509 l 1
 592 1237 l 1
 903 1237 l 1
 903 1145 l 1
 594 1145 l 1
 764 872 l 1
 662 815 l 1
 508 1090 l 1
 354 815 l 1
 252 872 l 1
 422 1145 l 1
 113 1145 l 1
 113 1237 l 1
 424 1237 l 1
 266 1509 l 1
 369 1567 l 1
 508 1292 l 1
EndSplineSet
EndChar

StartChar: plus
Encoding: 13 43 14
Width: 1005
VWidth: 0
GlyphClass: 2
<<<<<<< HEAD
Flags: MW
=======
Flags: W
HStem: 518 133<118 431 572 886>
VStem: 431 141<174 518 651 995>
>>>>>>> updates
LayerCount: 2
Fore
SplineSet
886 518 m 1
 572 518 l 1
 572 174 l 1
 431 174 l 1
 431 518 l 1
 118 518 l 1
 118 651 l 1
 431 651 l 1
 431 995 l 1
 572 995 l 1
 572 651 l 1
 886 651 l 1
 886 518 l 1
EndSplineSet
EndChar

StartChar: comma
Encoding: 14 44 15
Width: 522
VWidth: 0
GlyphClass: 2
<<<<<<< HEAD
Flags: MW
=======
Flags: W
HStem: -253 94<165.222 206.056>
VStem: 121 281<2.0899 293> 252 150<-111.85 0>
>>>>>>> updates
LayerCount: 2
Fore
SplineSet
121 0 m 1
 121 293 l 1
 402 293 l 1
 402 44 l 2
 402 -110 319 -211 173 -253 c 1
 122 -159 l 1
 207 -130 253 -95 252 0 c 1
 121 0 l 1
EndSplineSet
EndChar

StartChar: hyphen
Encoding: 15 45 16
Width: 923
VWidth: 0
GlyphClass: 2
<<<<<<< HEAD
Flags: MW
=======
Flags: W
HStem: 508 157<123 799>
VStem: 123 676<508 665>
>>>>>>> updates
LayerCount: 2
Fore
SplineSet
799 508 m 1
 123 508 l 1
 123 665 l 1
 799 665 l 1
 799 508 l 1
EndSplineSet
EndChar

StartChar: period
Encoding: 16 46 17
Width: 456
VWidth: 0
GlyphClass: 2
<<<<<<< HEAD
Flags: MW
=======
Flags: W
HStem: -17 230<141.535 316.618>
VStem: 118 220<6.29114 189.709>
>>>>>>> updates
LayerCount: 2
Fore
SplineSet
230 213 m 0
 295 213 338 160 338 98 c 0
 338 36 295 -17 230 -17 c 0
 166 -17 118 35 118 98 c 0
 118 160 167 213 230 213 c 0
EndSplineSet
EndChar

StartChar: slash
Encoding: 17 47 18
Width: 727
VWidth: 0
GlyphClass: 2
<<<<<<< HEAD
Flags: MW
=======
Flags: W
DStem2: -33 -117 137 -179 0.320377 0.94729<0 1946.24>
>>>>>>> updates
LayerCount: 2
Fore
SplineSet
-33 -117 m 1
 592 1731 l 1
 761 1669 l 1
 137 -179 l 1
 -33 -117 l 1
EndSplineSet
EndChar

StartChar: zero
Encoding: 18 48 19
Width: 1374
VWidth: 0
GlyphClass: 2
<<<<<<< HEAD
Flags: MW
=======
Flags: W
HStem: -31 142<496.058 873.404> 1069 141<493.899 874.328>
VStem: 118 186<335.074 852.554> 1070 186<333.277 851.37>
>>>>>>> updates
LayerCount: 2
Fore
SplineSet
685 1069 m 0
 395 1069 304 846 304 592 c 0
 304 336 399 111 685 111 c 0
 985 111 1070 348 1070 606 c 0
 1070 857 966 1069 685 1069 c 0
1256 590 m 0
 1256 238 1055 -31 685 -31 c 0
 318 -31 118 244 118 590 c 0
 118 945 311 1210 685 1210 c 0
 1057 1210 1256 942 1256 590 c 0
EndSplineSet
EndChar

StartChar: one
Encoding: 19 49 20
Width: 650
VWidth: 0
GlyphClass: 2
<<<<<<< HEAD
Flags: MW
=======
Flags: W
HStem: 0 21G<348 535>
VStem: 348 187<0 1057>
DStem2: 88 1083 141 957 0.907442 0.420177<0 225.01>
>>>>>>> updates
LayerCount: 2
Fore
SplineSet
348 0 m 1
 348 1057 l 1
 141 957 l 1
 88 1083 l 1
 345 1202 l 1
 535 1202 l 1
 535 0 l 1
 348 0 l 1
EndSplineSet
EndChar

StartChar: two
Encoding: 20 50 21
Width: 1054
VWidth: 0
GlyphClass: 2
<<<<<<< HEAD
Flags: MW
=======
Flags: W
HStem: 0 152<337 933> 1059 139<282.477 680.67>
VStem: 771 162<693.437 973.616>
>>>>>>> updates
LayerCount: 2
Fore
SplineSet
337 152 m 1
 933 152 l 1
 933 0 l 1
 118 0 l 1
 118 146 l 1
 526 480 l 2
 644 577 771 682 771 846 c 0
 771 1007 635 1059 495 1059 c 0
 408 1059 308 1030 230 992 c 1
 177 1108 l 1
 277 1178 396 1198 517 1198 c 0
 751 1198 933 1098 933 845 c 0
 933 548 533 310 337 152 c 1
EndSplineSet
EndChar

StartChar: three
Encoding: 21 51 22
Width: 988
VWidth: 0
GlyphClass: 2
<<<<<<< HEAD
Flags: MW
=======
Flags: W
HStem: -198 139<216.244 647.093> 1063 143<199.5 634.811>
VStem: 724 165<711.899 982.732> 748 180<36.7947 333.835>
>>>>>>> updates
LayerCount: 2
Fore
SplineSet
724 843 m 0
 724 1022 590 1063 435 1063 c 0
 331 1063 231 1037 138 992 c 1
 88 1125 l 1
 193 1172 327 1206 441 1206 c 0
 659 1206 889 1121 889 866 c 0
 889 704 772 546 600 545 c 1
 798 504 928 377 928 166 c 0
 928 -88 681 -198 460 -198 c 0
 320 -198 180 -163 55 -102 c 1
 109 31 l 1
 210 -23 350 -59 464 -59 c 0
 628 -59 748 9 748 186 c 0
 748 384 584 452 412 471 c 1
 412 614 l 1
 562 614 724 664 724 843 c 0
EndSplineSet
EndChar

StartChar: four
Encoding: 22 52 23
Width: 1253
VWidth: 0
GlyphClass: 2
<<<<<<< HEAD
Flags: MW
=======
Flags: W
HStem: 68 137<295 785 956 1142>
VStem: 785 171<-260 68 207 930>
DStem2: 110 205 295 205 0.563413 0.826175<104.231 979.281>
>>>>>>> updates
LayerCount: 2
Fore
SplineSet
794 1208 m 1
 956 1169 l 1
 956 207 l 1
 1142 207 l 1
 1142 68 l 1
 956 68 l 1
 956 -260 l 1
 785 -260 l 1
 785 68 l 1
 138 68 l 1
 110 205 l 1
 794 1208 l 1
785 930 m 1
 295 205 l 1
 785 205 l 1
 785 930 l 1
EndSplineSet
EndChar

StartChar: five
Encoding: 23 53 24
Width: 990
VWidth: 0
GlyphClass: 2
<<<<<<< HEAD
Flags: MW
=======
Flags: W
HStem: -207 151<208.036 635.66> 562 136<281.94 630.947> 1018 151<239 842>
VStem: 94 145<622 1018> 758 172<62.9517 433.497>
>>>>>>> updates
LayerCount: 2
Fore
SplineSet
441 -56 m 0
 642 -56 758 36 758 244 c 0
 758 435 660 562 461 562 c 0
 363 562 248 510 162 468 c 1
 94 537 l 1
 94 1169 l 1
 842 1169 l 1
 842 1018 l 1
 239 1018 l 1
 239 622 l 1
 290 679 409 698 479 698 c 0
 748 698 930 518 930 248 c 0
 930 -49 723 -207 439 -207 c 0
 297 -207 186 -165 58 -114 c 1
 109 31 l 1
 207 -19 331 -56 441 -56 c 0
EndSplineSet
EndChar

StartChar: six
Encoding: 24 54 25
Width: 1235
VWidth: 0
GlyphClass: 2
<<<<<<< HEAD
Flags: MW
=======
Flags: W
HStem: -156 142<452.765 788.267> 657 136<452.338 812.168> 1174 145<738.399 835.251>
VStem: 116 178<158.092 535.2> 945 176<144.664 517.815>
>>>>>>> updates
LayerCount: 2
Fore
SplineSet
945 335 m 0
 945 138 828 -14 621 -14 c 0
 371 -14 294 184 294 401 c 0
 294 442 294 483 300 523 c 1
 369 600 555 657 655 657 c 0
 846 657 945 516 945 335 c 0
116 425 m 0
 116 99 268 -156 621 -156 c 0
 916 -156 1121 38 1121 335 c 0
 1121 612 930 793 655 793 c 0
 524 793 400 752 314 649 c 1
 366 931 604 1117 874 1174 c 1
 831 1319 l 1
 393 1216 116 878 116 425 c 0
EndSplineSet
EndChar

StartChar: seven
Encoding: 25 55 26
Width: 1114
VWidth: 0
GlyphClass: 2
<<<<<<< HEAD
Flags: MW
=======
Flags: W
HStem: 1074 155<116 794>
DStem2: 269 -100 437 -176 0.407195 0.913341<0 1286.04>
>>>>>>> updates
LayerCount: 2
Fore
SplineSet
952 1229 m 1
 1009 1107 l 1
 437 -176 l 1
 269 -100 l 1
 794 1074 l 1
 116 1074 l 1
 116 1229 l 1
 952 1229 l 1
EndSplineSet
EndChar

StartChar: eight
Encoding: 26 56 27
Width: 1186
VWidth: 0
GlyphClass: 2
<<<<<<< HEAD
Flags: MW
=======
Flags: W
HStem: -148 139<399.632 795.404> 575 116<442.615 751.468> 1199 135<404.585 790.372>
VStem: 120 178<87.2418 426.614 825.502 1101.89> 888 178<81.4445 426.834 818.484 1106.38>
>>>>>>> updates
LayerCount: 2
Fore
SplineSet
599 1334 m 0
 372 1334 120 1231 120 968 c 0
 120 798 227 687 382 636 c 1
 196 578 120 418 120 233 c 0
 120 -41 358 -148 599 -148 c 0
 841 -148 1066 -41 1066 231 c 0
 1066 416 990 576 804 634 c 1
 959 687 1066 795 1066 966 c 0
 1066 1227 828 1334 599 1334 c 0
599 -9 m 0
 409 -9 298 54 298 255 c 0
 298 430 418 575 599 575 c 0
 778 575 888 422 888 253 c 0
 888 54 791 -9 599 -9 c 0
599 691 m 0
 445 691 298 805 298 966 c 0
 298 1145 445 1199 599 1199 c 0
 755 1199 888 1140 888 964 c 0
 888 806 752 691 599 691 c 0
EndSplineSet
EndChar

StartChar: nine
Encoding: 27 57 28
Width: 1235
VWidth: 0
GlyphClass: 2
<<<<<<< HEAD
Flags: MW
=======
Flags: W
HStem: -161 145<400.749 504.653> 365 136<423.638 789.699> 1172 142<447.733 783.235>
VStem: 115 176<639.773 1013.34> 942 178<622.788 999.908>
>>>>>>> updates
LayerCount: 2
Fore
SplineSet
291 823 m 0
 291 1020 408 1172 615 1172 c 0
 865 1172 942 974 942 757 c 0
 942 716 942 675 936 635 c 1
 869 556 680 501 581 501 c 0
 390 501 291 642 291 823 c 0
1120 733 m 0
 1120 1059 968 1314 615 1314 c 0
 320 1314 115 1120 115 823 c 0
 115 544 305 365 581 365 c 0
 712 365 836 406 922 509 c 1
 870 229 632 39 362 -16 c 1
 405 -161 l 1
 843 -59 1120 280 1120 733 c 0
EndSplineSet
EndChar

StartChar: colon
Encoding: 28 58 29
Width: 528
VWidth: 0
GlyphClass: 2
<<<<<<< HEAD
Flags: MW
=======
Flags: W
HStem: 0 281<129 399> 583 281<129 399>
VStem: 129 270<0 281 583 864>
>>>>>>> updates
LayerCount: 2
Fore
SplineSet
129 281 m 1
 399 281 l 1
 399 0 l 1
 129 0 l 1
 129 281 l 1
129 864 m 1
 399 864 l 1
 399 583 l 1
 129 583 l 1
 129 864 l 1
EndSplineSet
EndChar

StartChar: semicolon
Encoding: 29 59 30
Width: 535
VWidth: 0
GlyphClass: 2
<<<<<<< HEAD
Flags: MW
=======
Flags: W
HStem: -253 94<171.222 212.056> 583 281<128 408>
VStem: 127 281<2.0899 293 583 864> 258 150<-111.85 0>
>>>>>>> updates
LayerCount: 2
Fore
SplineSet
128 864 m 1
 408 864 l 1
 408 583 l 1
 128 583 l 1
 128 864 l 1
127 0 m 1
 127 293 l 1
 408 293 l 1
 408 44 l 2
 408 -110 325 -211 179 -253 c 1
 128 -159 l 1
 213 -130 259 -95 258 0 c 1
 127 0 l 1
EndSplineSet
EndChar

StartChar: less
Encoding: 30 60 31
Width: 868
VWidth: 0
GlyphClass: 2
<<<<<<< HEAD
Flags: MW
=======
Flags: W
VStem: 52 206<560 766>
DStem2: 258 663 52 663 0.735707 -0.6773<0 738.744> 52 663 258 663 0.735707 0.6773<151.556 890.3>
>>>>>>> updates
LayerCount: 2
Fore
SplineSet
52 663 m 1
 707 1266 l 1
 809 1156 l 1
 258 663 l 1
 809 170 l 1
 707 60 l 1
 52 663 l 1
EndSplineSet
EndChar

StartChar: equal
Encoding: 31 61 32
Width: 835
VWidth: 0
GlyphClass: 2
<<<<<<< HEAD
Flags: MW
=======
Flags: W
HStem: 280 131<123 711> 508 131<123 711>
VStem: 123 588<280 411 508 639>
>>>>>>> updates
LayerCount: 2
Fore
SplineSet
711 508 m 1
 123 508 l 1
 123 639 l 1
 711 639 l 1
 711 508 l 1
711 280 m 1
 123 280 l 1
 123 411 l 1
 711 411 l 1
 711 280 l 1
EndSplineSet
EndChar

StartChar: greater
Encoding: 32 62 33
Width: 694
VWidth: 0
GlyphClass: 2
<<<<<<< HEAD
Flags: MW
=======
Flags: W
VStem: 524 206<560 766>
DStem2: 75 1266 -27 1156 0.735707 -0.6773<0 738.744> -27 170 75 60 0.735707 0.6773<0.539144 739.283>
>>>>>>> updates
LayerCount: 2
Fore
SplineSet
730 663 m 1
 75 1266 l 1
 -27 1156 l 1
 524 663 l 1
 -27 170 l 1
 75 60 l 1
 730 663 l 1
EndSplineSet
EndChar

StartChar: question
Encoding: 33 63 34
Width: 971
VWidth: 0
GlyphClass: 2
<<<<<<< HEAD
Flags: MW
=======
Flags: W
HStem: -40 209<204.501 371.705> 1332 21G<81.7483 134.5> 1418 161<174.918 645.343>
VStem: 183 209<-20.4883 148.515> 206 180<292 688.197> 729 191<1053.84 1336.84>
>>>>>>> updates
LayerCount: 2
Fore
SplineSet
386 675 m 1
 386 292 l 1
 206 292 l 1
 206 777 l 1
 396 841 729 947 729 1197 c 0
 729 1392 581 1418 418 1418 c 0
 315 1418 179 1388 90 1332 c 1
 31 1475 l 1
 144 1540 309 1579 437 1579 c 0
 678 1579 920 1499 920 1216 c 0
 920 896 647 767 386 675 c 1
287 -40 m 0
 227 -40 183 12 183 70 c 0
 183 127 237 169 291 169 c 0
 346 169 392 118 392 64 c 0
 392 7 344 -40 287 -40 c 0
EndSplineSet
EndChar

StartChar: at
Encoding: 34 64 35
Width: 1873
VWidth: 0
GlyphClass: 2
<<<<<<< HEAD
Flags: MW
LayerCount: 2
Fore
SplineSet
1207 987 m 1
 1150 999 1090 1008 1031 1008 c 0
 788 1008 603 814 603 573 c 0
 603 422 670 330 828 330 c 0
 1168 330 1205 734 1207 987 c 1
=======
Flags: W
HStem: -155 139<652.384 1248.65> 199 131<679.917 991.734 1355 1503.04> 1008 120<842.911 1203.61> 1317 139<710.218 1257.63>
VStem: 108 159<340.507 859.727> 448 155<406.697 762.018> 1220 135<318.673 546.108 667.939 987> 1228 127<385.907 548> 1609 160<508.072 998.602>
LayerCount: 2
Fore
SplineSet
1207 987 m 1xfc80
 1150 999 1090 1008 1031 1008 c 0
 788 1008 603 814 603 573 c 0
 603 422 670 330 828 330 c 0
 1168 330 1205 734 1207 987 c 1xfc80
>>>>>>> updates
1440 134 m 1
 1531 42 l 1
 1395 -109 1136 -155 943 -155 c 0
 475 -155 108 78 108 578 c 0
 108 1072 459 1456 960 1456 c 0
 1396 1456 1769 1230 1769 756 c 0
 1769 490 1630 199 1328 199 c 0
<<<<<<< HEAD
 1238 199 1220 289 1220 383 c 0
 1220 445 1228 508 1228 548 c 1
=======
 1238 199 1220 289 1220 383 c 0xfe80
 1220 445 1228 508 1228 548 c 1xfd80
>>>>>>> updates
 1186 343 1025 199 812 199 c 0
 574 199 448 361 448 590 c 0
 448 886 728 1128 1015 1128 c 0
 1108 1128 1208 1111 1300 1096 c 1
 1355 987 l 1
 1355 317 l 2
 1356 317 1357 317 1358 317 c 0
 1586 317 1609 586 1609 758 c 0
 1609 1158 1331 1317 966 1317 c 0
 527 1317 267 1004 267 578 c 0
 267 159 565 -16 953 -16 c 0
 1138 -16 1295 20 1440 134 c 1
EndSplineSet
EndChar

StartChar: A
Encoding: 35 65 36
Width: 1501
VWidth: 0
GlyphClass: 2
<<<<<<< HEAD
Flags: MW
=======
Flags: W
HStem: 0 21G<84 283.423 1216.58 1416> 383 102<433 1067> 1460 119<600 900>
VStem: 84 193<0 193> 1223 193<0 193>
DStem2: 84 0 277 0 0.310624 0.950533<59.9504 462.211 569.416 1594.65> 900 1579 750 1460 0.310624 -0.950533<66.5198 1091.76 1198.96 1601.22>
>>>>>>> updates
LayerCount: 2
Fore
SplineSet
1067 485 m 1
 750 1460 l 1
 433 485 l 1
 1067 485 l 1
1100 383 m 1
 400 383 l 1
 277 0 l 1
 84 0 l 1
 600 1579 l 1
 900 1579 l 1
 1416 0 l 1
 1223 0 l 1
 1100 383 l 1
EndSplineSet
EndChar

StartChar: B
Encoding: 36 66 37
Width: 1350
VWidth: 0
GlyphClass: 2
<<<<<<< HEAD
Flags: MW
=======
Flags: W
HStem: 0 143<317 895.375> 786 129<317 827.02> 1436 143<317 856.88>
VStem: 123 194<143 786 915 1436> 996 165<1031.41 1327.39> 1061 182<290.725 642.231>
>>>>>>> updates
LayerCount: 2
Fore
SplineSet
996 1188 m 0
 996 1425 736 1436 546 1436 c 0
 526 1436 506 1436 488 1436 c 2
 317 1436 l 1
 317 915 l 1
 576 915 l 2
 783 915 996 935 996 1188 c 0
543 143 m 2
 792 143 1061 152 1061 466 c 0
 1061 759 818 786 580 786 c 2
 317 786 l 1
 317 143 l 1
 543 143 l 2
836 862 m 1
 1092 833 1243 699 1243 434 c 0
 1243 46 844 0 543 0 c 2
 123 0 l 1
 123 1579 l 1
 484 1579 l 2
 783 1579 1161 1570 1161 1188 c 0
 1161 976 1038 892 836 862 c 1
EndSplineSet
EndChar

StartChar: C
Encoding: 37 67 38
Width: 1328
VWidth: 0
GlyphClass: 2
<<<<<<< HEAD
Flags: MW
=======
Flags: W
HStem: -41 152<578.267 1007.26> 1458 152<583.967 1068.51>
VStem: 114 201<436.269 1137.53>
>>>>>>> updates
LayerCount: 2
Fore
SplineSet
794 1458 m 0
 390 1458 315 1119 315 784 c 0
 315 446 394 111 794 111 c 0
 925 111 1049 171 1168 218 c 1
 1224 79 l 1
 1074 18 942 -41 774 -41 c 0
 270 -41 114 348 114 788 c 0
 114 1252 291 1610 794 1610 c 0
 955 1610 1046 1574 1196 1530 c 1
 1151 1385 l 1
 1031 1430 924 1458 794 1458 c 0
EndSplineSet
EndChar

StartChar: D
Encoding: 38 68 39
Width: 1469
VWidth: 0
GlyphClass: 2
<<<<<<< HEAD
Flags: MW
=======
Flags: W
HStem: 0 143<317 906.759> 1436 143<317 907.093>
VStem: 123 194<143 1436> 1156 201<441.069 1135.94>
>>>>>>> updates
LayerCount: 2
Fore
SplineSet
698 1436 m 2
 317 1436 l 1
 317 143 l 1
 698 143 l 2
 1091 143 1156 465 1156 789 c 0
 1156 1111 1087 1436 698 1436 c 2
698 1579 m 2
 1195 1579 1357 1238 1357 788 c 0
 1357 338 1194 0 698 0 c 2
 123 0 l 1
 123 1579 l 1
 698 1579 l 2
EndSplineSet
EndChar

StartChar: E
Encoding: 39 69 40
Width: 1219
VWidth: 0
GlyphClass: 2
<<<<<<< HEAD
Flags: MW
=======
Flags: W
HStem: 0 143<317 1106> 776 115<317 995> 1436 143<317 1093>
VStem: 123 194<143 776 891 1436>
>>>>>>> updates
LayerCount: 2
Fore
SplineSet
1106 0 m 1
 123 0 l 1
 123 1579 l 1
 1093 1579 l 1
 1093 1436 l 1
 317 1436 l 1
 317 891 l 1
 995 891 l 1
 995 776 l 1
 317 776 l 1
 317 143 l 1
 1106 143 l 1
 1106 0 l 1
EndSplineSet
EndChar

StartChar: F
Encoding: 40 70 41
Width: 1154
VWidth: 0
GlyphClass: 2
<<<<<<< HEAD
Flags: MW
=======
Flags: W
HStem: 0 21G<123 319> 762 117<319 983> 1436 143<319 1044>
VStem: 123 196<0 762 879 1436>
>>>>>>> updates
LayerCount: 2
Fore
SplineSet
319 762 m 1
 319 0 l 1
 123 0 l 1
 123 1579 l 1
 1044 1579 l 1
 1044 1436 l 1
 319 1436 l 1
 319 879 l 1
 983 879 l 1
 983 762 l 1
 319 762 l 1
EndSplineSet
EndChar

StartChar: G
Encoding: 41 71 42
Width: 1473
VWidth: 0
GlyphClass: 2
<<<<<<< HEAD
Flags: MW
=======
Flags: W
HStem: -41 152<578.41 1009.11> 0 21G<1260.02 1353> 684 127<766 1168> 1458 152<578.453 1030.73>
VStem: 114 201<451.909 1142.49> 1168 185<249.32 684> 1265 88<0 57.6145>
>>>>>>> updates
LayerCount: 2
Fore
SplineSet
745 -41 m 0
 284 -41 114 388 114 786 c 0
 114 1243 289 1610 788 1610 c 0
 952 1610 1094 1562 1230 1476 c 1
 1164 1341 l 1
 1070 1420 905 1458 786 1458 c 0
 383 1458 315 1112 315 782 c 0
 315 449 387 111 792 111 c 0
 978 111 1168 183 1168 399 c 2
 1168 684 l 1
 766 684 l 1
 766 811 l 1
 1353 811 l 1
 1353 0 l 1
 1265 0 l 1
 1212 213 l 1
 1162 10 925 -41 745 -41 c 0
EndSplineSet
EndChar

StartChar: H
Encoding: 42 72 43
Width: 1467
VWidth: 0
GlyphClass: 2
<<<<<<< HEAD
Flags: MW
=======
Flags: W
HStem: 0 21G<123 317 1149 1343> 764 115<317 1149> 1559 20G<123 317 1149 1343>
VStem: 123 194<0 764 879 1579> 1149 194<0 764 879 1579>
>>>>>>> updates
LayerCount: 2
Fore
SplineSet
1149 0 m 1
 1149 764 l 1
 317 764 l 1
 317 0 l 1
 123 0 l 1
 123 1579 l 1
 317 1579 l 1
 317 879 l 1
 1149 879 l 1
 1149 1579 l 1
 1343 1579 l 1
 1343 0 l 1
 1149 0 l 1
EndSplineSet
EndChar

StartChar: I
Encoding: 43 73 44
Width: 823
VWidth: 0
GlyphClass: 2
<<<<<<< HEAD
Flags: MW
=======
Flags: W
HStem: 0 112<114 318 501 707> 1461 118<114 318 501 707>
VStem: 318 183<112 1461>
>>>>>>> updates
LayerCount: 2
Fore
SplineSet
114 112 m 1
 318 112 l 1
 318 1461 l 1
 114 1461 l 1
 114 1579 l 1
 707 1579 l 1
 707 1461 l 1
 501 1461 l 1
 501 112 l 1
 707 112 l 1
 707 0 l 1
 114 0 l 1
 114 112 l 1
EndSplineSet
EndChar

StartChar: J
Encoding: 44 74 45
Width: 727
VWidth: 0
GlyphClass: 2
<<<<<<< HEAD
Flags: MW
=======
Flags: W
HStem: -90 127<136 251.851> 1559 20G<411 603>
VStem: 411 192<182.955 1579>
>>>>>>> updates
LayerCount: 2
Fore
SplineSet
136 -90 m 1
 89 37 l 5
 397 83 411 203 411 479 c 2
 411 1579 l 1
 603 1579 l 1
 603 514 l 2
 603 168 544 -90 136 -90 c 1
EndSplineSet
EndChar

StartChar: K
Encoding: 45 75 46
Width: 1366
VWidth: 0
GlyphClass: 2
<<<<<<< HEAD
Flags: MW
=======
Flags: W
HStem: 0 21G<123 317 1072.14 1290> 747 107<317 532> 1559 20G<123 317 1016.48 1223>
VStem: 123 194<0 747 854 1579> 1030 193<1386 1579> 1087 203<0 203>
DStem2: 694 798 532 747 0.598392 -0.801203<0 874.528> 540 854 694 798 0.560801 0.82795<39.9982 875.057>
>>>>>>> updates
LayerCount: 2
Fore
SplineSet
317 747 m 1
 317 0 l 1
 123 0 l 1
 123 1579 l 1
 317 1579 l 1
 317 854 l 1
 540 854 l 1
 1030 1579 l 1
 1223 1579 l 1
 694 798 l 1
 1290 0 l 1
 1087 0 l 1
 532 747 l 1
 317 747 l 1
EndSplineSet
EndChar

StartChar: L
Encoding: 46 76 47
Width: 1175
VWidth: 0
GlyphClass: 2
<<<<<<< HEAD
Flags: MW
=======
Flags: W
HStem: 0 143<317 1063> 1559 20G<123 317>
VStem: 123 194<143 1579>
>>>>>>> updates
LayerCount: 2
Fore
SplineSet
1063 0 m 1
 123 0 l 1
 123 1579 l 1
 317 1579 l 1
 317 143 l 1
 1063 143 l 1
 1063 0 l 1
EndSplineSet
EndChar

StartChar: M
Encoding: 47 77 48
Width: 1779
VWidth: 0
GlyphClass: 2
<<<<<<< HEAD
Flags: MW
=======
Flags: W
HStem: 0 178<791 987> 1559 20G<123 420.781 1357.22 1655>
VStem: 123 155<0 1469> 1500 155<0 1469>
DStem2: 414 1579 278 1469 0.329692 -0.944089<59.0116 1479.27> 889 178 987 0 0.329692 0.944089<0 1420.26>
>>>>>>> updates
LayerCount: 2
Fore
SplineSet
791 0 m 1
 278 1469 l 1
 278 0 l 1
 123 0 l 1
 123 1579 l 1
 414 1579 l 1
 889 178 l 1
 1364 1579 l 1
 1655 1579 l 1
 1655 0 l 1
 1500 0 l 1
 1500 1469 l 1
 987 0 l 1
 791 0 l 1
EndSplineSet
EndChar

StartChar: N
Encoding: 48 78 49
Width: 1500
VWidth: 0
GlyphClass: 2
<<<<<<< HEAD
Flags: MW
=======
Flags: W
HStem: 0 21G<123 285 1102.44 1376> 1559 20G<123 396.562 1214 1376>
VStem: 123 162<0 1434> 1214 162<145 1579>
DStem2: 385 1579 285 1434 0.500489 -0.865743<75.4839 1656.38>
>>>>>>> updates
LayerCount: 2
Fore
SplineSet
1214 145 m 1
 1214 1579 l 1
 1376 1579 l 1
 1376 0 l 1
 1114 0 l 1
 285 1434 l 1
 285 0 l 1
 123 0 l 1
 123 1579 l 1
 385 1579 l 1
 1214 145 l 1
EndSplineSet
EndChar

StartChar: O
Encoding: 49 79 50
Width: 1536
VWidth: 0
GlyphClass: 2
<<<<<<< HEAD
Flags: MW
=======
Flags: W
HStem: -41 152<577.227 976.309> 1458 152<568.803 968.993>
VStem: 114 200<428.509 1133.63> 1224 200<428.504 1145.64>
>>>>>>> updates
LayerCount: 2
Fore
SplineSet
1424 784 m 0
 1424 344 1270 -41 768 -41 c 0
 270 -41 114 335 114 784 c 0
 114 1214 269 1610 754 1610 c 0
 1265 1610 1424 1236 1424 784 c 0
1224 784 m 0
 1224 1103 1160 1458 770 1458 c 0
 377 1458 314 1101 314 784 c 0
 314 458 385 111 779 111 c 0
 1160 111 1224 480 1224 784 c 0
EndSplineSet
EndChar

StartChar: P
Encoding: 50 80 51
Width: 1330
VWidth: 0
GlyphClass: 2
<<<<<<< HEAD
Flags: MW
=======
Flags: W
HStem: 0 21G<123 317> 639 145<317 847.78> 1436 143<317 879.98>
VStem: 123 194<0 639 784 1436> 1038 182<928.757 1293.44>
>>>>>>> updates
LayerCount: 2
Fore
SplineSet
487 784 m 2
 708 784 1038 790 1038 1084 c 0
 1038 1422 831 1436 532 1436 c 2
 317 1436 l 1
 317 784 l 1
 487 784 l 2
1220 1108 m 0
 1220 661 777 639 427 639 c 0
 389 639 352 639 317 639 c 1
 317 0 l 1
 123 0 l 1
 123 1579 l 1
 520 1579 l 2
 874 1579 1220 1536 1220 1108 c 0
EndSplineSet
EndChar

StartChar: Q
Encoding: 51 81 52
Width: 1549
VWidth: 0
GlyphClass: 2
<<<<<<< HEAD
Flags: MW
=======
Flags: W
HStem: 1458 152<571.479 980.409>
VStem: 112 201<433.715 1138.6> 1239 200<429.814 1137.11>
>>>>>>> updates
LayerCount: 2
Fore
SplineSet
776 1458 m 0
 383 1458 313 1103 313 784 c 0
 313 466 385 111 776 111 c 0
 1169 111 1239 465 1239 784 c 0
 1239 1101 1166 1458 776 1458 c 0
1439 784 m 0
 1439 414 1327 37 911 -29 c 1
 1290 -293 l 1
 1171 -424 l 1
 678 -35 l 1
 233 15 112 399 112 792 c 0
 112 1228 285 1610 776 1610 c 0
 1270 1610 1439 1230 1439 784 c 0
EndSplineSet
EndChar

StartChar: R
Encoding: 52 82 53
Width: 1333
VWidth: 0
GlyphClass: 2
<<<<<<< HEAD
Flags: MW
=======
Flags: W
HStem: 0 21G<123 317 1032 1214> 733 129<317 799.75> 1436 143<317 906.985>
VStem: 123 194<0 733 862 1436> 1046 170<0 560.907 1002.65 1313.69>
>>>>>>> updates
LayerCount: 2
Fore
SplineSet
803 797 m 1
 1053 770 1214 668 1214 397 c 2
 1214 0 l 1
 1032 0 l 1
 1032 121 1036 224 1036 312 c 0
 1036 619 983 733 497 733 c 2
 317 733 l 1
 317 0 l 1
 123 0 l 1
 123 1579 l 1
 499 1579 l 2
 813 1579 1216 1579 1216 1160 c 0
 1216 926 1021 797 803 797 c 1
317 862 m 1
 558 862 l 2
 758 862 1046 885 1046 1150 c 0
 1046 1416 822 1437 612 1437 c 0
 573 1437 535 1436 499 1436 c 2
 317 1436 l 1
 317 862 l 1
EndSplineSet
EndChar

StartChar: S
Encoding: 53 83 54
Width: 1096
VWidth: 0
GlyphClass: 2
<<<<<<< HEAD
Flags: MW
=======
Flags: W
HStem: -41 152<239.415 752.136> 1458 152<307.102 801.902>
VStem: 1 183<1093.57 1354.33> 911 184<247.307 556.92>
>>>>>>> updates
LayerCount: 2
Fore
SplineSet
70 72 m 1
 90 222 l 1
 233 147 335 111 500 111 c 0
 712 111 911 166 911 416 c 0
 911 866 1 654 1 1217 c 0
 1 1494 258 1610 500 1610 c 0
 672 1610 843 1569 993 1484 c 1
 963 1337 l 1
 850 1409 696 1458 562 1458 c 0
 381 1458 184 1429 184 1208 c 0
 184 820 1095 1050 1095 426 c 0
 1095 91 838 -41 532 -41 c 0
 388 -41 193 -5 70 72 c 1
EndSplineSet
EndChar

StartChar: T
Encoding: 54 84 55
Width: 1341
VWidth: 0
GlyphClass: 2
<<<<<<< HEAD
Flags: MW
=======
Flags: W
HStem: 0 21G<576 766> 1436 143<116 576 766 1224>
VStem: 576 190<0 1436>
>>>>>>> updates
LayerCount: 2
Fore
SplineSet
1224 1436 m 1
 766 1436 l 1
 766 0 l 1
 576 0 l 1
 576 1436 l 1
 116 1436 l 1
 116 1579 l 1
 1224 1579 l 1
 1224 1436 l 1
EndSplineSet
EndChar

StartChar: U
Encoding: 55 85 56
Width: 1499
VWidth: 0
GlyphClass: 2
<<<<<<< HEAD
Flags: MW
=======
Flags: W
HStem: -41 141<527.174 970.102> 1559 20G<122 314 1182 1378>
VStem: 122 192<362.256 1579> 1182 196<362.696 1579>
>>>>>>> updates
LayerCount: 2
Fore
SplineSet
748 -41 m 0
 262 -41 122 278 122 715 c 2
 122 1579 l 1
 314 1579 l 1
 314 711 l 2
 314 373 359 100 748 100 c 0
 1139 100 1182 375 1182 711 c 2
 1182 1579 l 1
 1378 1579 l 1
 1378 715 l 2
 1378 279 1238 -41 748 -41 c 0
EndSplineSet
EndChar

StartChar: V
Encoding: 56 86 57
Width: 1406
VWidth: 0
GlyphClass: 2
<<<<<<< HEAD
Flags: MW
=======
Flags: W
HStem: 0 180<582 826> 1559 20G<86 276.204 1131.8 1320>
VStem: 86 184<1395 1579> 1138 182<1397 1579>
DStem2: 270 1579 86 1579 0.299685 -0.954038<0 1464.76> 704 180 826 0 0.298585 0.954383<0 1464.77>
>>>>>>> updates
LayerCount: 2
Fore
SplineSet
582 0 m 1
 86 1579 l 1
 270 1579 l 1
 704 180 l 1
 1138 1579 l 1
 1320 1579 l 1
 826 0 l 1
 582 0 l 1
EndSplineSet
EndChar

StartChar: W
Encoding: 57 87 58
Width: 2020
VWidth: 0
GlyphClass: 2
<<<<<<< HEAD
Flags: MW
=======
Flags: W
HStem: 0 21G<439.491 715.486 1304.51 1579.51> 1333 156<873 1147> 1559 20G<88 273.416 1746.58 1931>
VStem: 88 181<1398 1579> 1751 180<1399 1579>
DStem2: 269 1579 88 1579 0.219938 -0.975514<0 1437.8> 579 175 711 0 0.218868 0.975755<0 1224.26> 1147 1489 1010 1333 0.218868 -0.975755<122.233 1346.49> 1441 175 1575 0 0.219938 0.975514<0 1437.8>
>>>>>>> updates
LayerCount: 2
Fore
SplineSet
1147 1489 m 1
 1441 175 l 1
 1751 1579 l 1
 1931 1579 l 1
 1575 0 l 1
 1309 0 l 1
 1010 1333 l 1
 711 0 l 1
 444 0 l 1
 88 1579 l 1
 269 1579 l 1
 579 175 l 1
 873 1489 l 1
 1147 1489 l 1
EndSplineSet
EndChar

StartChar: X
Encoding: 58 88 59
Width: 1404
VWidth: 0
GlyphClass: 2
<<<<<<< HEAD
Flags: MW
=======
Flags: W
HStem: 0 21G<96 378.5 1077.6 1308> 1559 20G<98 306.439 1097.56 1306>
VStem: 96 218<0 218> 98 196<1383 1579> 1090 218<0 218> 1110 196<1383 1579>
DStem2: 96 0 314 0 0.531974 0.846761<115.97 852.448 1103.94 1876.46> 294 1579 98 1579 0.531974 -0.846761<0 772.52 1024.01 1760.49> 811 800 702 626 0.531974 -0.846761<89.3512 825.829>
>>>>>>> updates
LayerCount: 2
Fore
SplineSet
314 0 m 1
 96 0 l 1
 593 800 l 1
 98 1579 l 1
 294 1579 l 1
 702 923 l 1
 1110 1579 l 1
 1306 1579 l 1
 811 800 l 1
 1308 0 l 1
 1090 0 l 1
 702 626 l 1
 572 418 443 209 314 0 c 1
EndSplineSet
EndChar

StartChar: Y
Encoding: 59 89 60
Width: 1383
VWidth: 0
GlyphClass: 2
<<<<<<< HEAD
Flags: MW
=======
Flags: W
HStem: 0 21G<596 786> 1559 20G<82 346 1099.84 1300>
VStem: 596 190<0 485>
DStem2: 279 1579 82 1579 0.425239 -0.905081<0 993.708> 696 677 786 485 0.425239 0.905081<0 992.007>
>>>>>>> updates
LayerCount: 2
Fore
SplineSet
696 677 m 1
 1109 1579 l 1
 1300 1579 l 1
 786 485 l 1
 786 0 l 1
 596 0 l 1
 596 485 l 1
 82 1579 l 1
 279 1579 l 1
 413 1276 552 975 696 677 c 1
EndSplineSet
EndChar

StartChar: Z
Encoding: 60 90 61
Width: 1270
VWidth: 0
GlyphClass: 2
<<<<<<< HEAD
Flags: MW
=======
Flags: W
HStem: 0 143<316 1151> 1447 132<119 948>
DStem2: 119 180 316 143 0.546648 0.837362<76.7073 1514.11>
>>>>>>> updates
LayerCount: 2
Fore
SplineSet
1149 1579 m 1
 1149 1419 l 1
 316 143 l 1
 1151 143 l 1
 1151 0 l 1
 119 0 l 1
 119 180 l 1
 948 1447 l 1
 119 1447 l 1
 119 1579 l 1
 1149 1579 l 1
EndSplineSet
EndChar

StartChar: bracketleft
Encoding: 61 91 62
Width: 900
VWidth: 0
GlyphClass: 2
<<<<<<< HEAD
Flags: MW
=======
Flags: W
HStem: 0 143<314 785> 1436 143<314 785>
VStem: 121 193<143 1436>
>>>>>>> updates
LayerCount: 2
Fore
SplineSet
121 1579 m 1
 785 1579 l 1
 785 1436 l 1
 314 1436 l 1
 314 143 l 1
 785 143 l 1
 785 0 l 1
 121 0 l 1
 121 1579 l 1
EndSplineSet
EndChar

StartChar: backslash
Encoding: 62 92 63
Width: 714
VWidth: 0
GlyphClass: 2
<<<<<<< HEAD
Flags: MW
=======
Flags: W
DStem2: 125 1731 -33 1679 0.318071 -0.948067<0 1947.34>
>>>>>>> updates
LayerCount: 2
Fore
SplineSet
125 1731 m 1
 748 -114 l 1
 588 -172 l 1
 -33 1679 l 1
 125 1731 l 1
EndSplineSet
EndChar

StartChar: bracketright
Encoding: 63 93 64
Width: 900
VWidth: 0
GlyphClass: 2
<<<<<<< HEAD
Flags: MW
=======
Flags: W
HStem: 0 143<116 587> 1436 143<116 587>
VStem: 587 193<143 1436>
>>>>>>> updates
LayerCount: 2
Fore
SplineSet
116 1579 m 1
 780 1579 l 1
 780 0 l 1
 116 0 l 1
 116 143 l 1
 587 143 l 1
 587 1436 l 1
 116 1436 l 1
 116 1579 l 1
EndSplineSet
EndChar

StartChar: asciicircum
Encoding: 64 94 65
Width: 877
VWidth: 0
GlyphClass: 2
<<<<<<< HEAD
Flags: MW
=======
Flags: W
HStem: 809 202<289 587>
DStem2: 98 510 226 432 0.503549 0.863966<0 429.533> 486 1011 438 809 0.503549 -0.863966<150.351 579.884>
>>>>>>> updates
LayerCount: 2
Fore
SplineSet
438 809 m 1
 650 432 l 1
 778 510 l 1
 486 1011 l 1
 390 1011 l 1
 98 510 l 1
 226 432 l 1
 438 809 l 1
EndSplineSet
EndChar

StartChar: underscore
Encoding: 65 95 66
Width: 1187
VWidth: 0
GlyphClass: 2
<<<<<<< HEAD
Flags: MW
=======
Flags: W
HStem: -111 144<123 1063>
>>>>>>> updates
LayerCount: 2
Fore
SplineSet
1063 -111 m 1
 123 -111 l 1
 123 33 l 1
 1063 33 l 1
 1063 -111 l 1
EndSplineSet
EndChar

StartChar: grave
Encoding: 66 96 67
Width: 458
VWidth: 0
GlyphClass: 2
<<<<<<< HEAD
Flags: MW
=======
Flags: W
HStem: 330 644
VStem: 29 395
>>>>>>> updates
LayerCount: 2
Fore
SplineSet
424 356 m 1
 357 330 l 1
 29 885 l 1
 271 974 l 1
 424 356 l 1
EndSplineSet
EndChar

StartChar: a
Encoding: 67 97 68
Width: 1193
VWidth: 0
GlyphClass: 2
Flags: W
HStem: -20 137<375.58 718.876> 0 21G<931.854 1075> 590 125<396.247 868.783> 1047 143<389.891 796.383>
VStem: 110 191<190.906 502.903> 885 190<232.197 575.598 665 950.077> 935 140<0 91.136>
LayerCount: 2
Fore
SplineSet
549 117 m 4xbc
 678 117 793 185 885 271 c 1
 885 569 l 1
 798 583 711 590 623 590 c 0
 451 590 301 556 301 356 c 0
 301 182 381 117 549 117 c 4xbc
885 665 m 1
 885 713 l 2
 885 925 857 1047 613 1047 c 0
 495 1047 350 999 250 935 c 1
 183 1057 l 1
 316 1132 446 1190 603 1190 c 0
 974 1190 1075 1043 1075 686 c 2xbc
 1075 0 l 1
 935 0 l 1x7a
 907 178 l 1
 809 44 669 -20 502 -20 c 0
 263 -20 110 97 110 343 c 0
 110 603 318 715 554 715 c 0
 640 715 804 694 885 665 c 1
EndSplineSet
EndChar

StartChar: b
Encoding: 68 98 69
Width: 1252
VWidth: 0
GlyphClass: 2
Flags: W
HStem: -20 137<486.544 811.535> 0 21G<126 269.146> 1047 143<487.761 816.004>
VStem: 126 190<234.702 938.211 1030 1579> 126 140<0 91.136> 958 182<300.972 865>
LayerCount: 2
Fore
SplineSet
664 -20 m 0xb4
 517 -20 386 70 294 178 c 1
 266 0 l 1
 126 0 l 1x6c
 126 1579 l 1
 316 1614 l 1
 316 1030 l 1
 401 1115 543 1190 664 1190 c 0
 1010 1190 1140 881 1140 580 c 0
 1140 277 1009 -20 664 -20 c 0xb4
958 584 m 0
 958 779 921 1047 671 1047 c 0
 555 1047 400 982 316 902 c 1
 316 273 l 1
 413 177 536 117 671 117 c 4xb4
 918 117 958 390 958 584 c 0
EndSplineSet
EndChar

StartChar: c
Encoding: 69 99 70
Width: 1115
VWidth: 0
GlyphClass: 2
Flags: W
HStem: -20 137<467.201 831.14> 1040 150<467.381 839.527>
VStem: 111 190<310.555 841.648>
LayerCount: 2
Fore
SplineSet
301 580 m 0
 301 810 369 1040 639 1040 c 0
 755 1040 865 1000 953 924 c 1
 1010 1057 l 1
 896 1138 763 1190 622 1190 c 0
 269 1190 111 903 111 580 c 0
 111 260 269 -20 619 -20 c 0
 761 -20 896 31 1010 111 c 1
 953 245 l 1
 863 155 745 117 624 117 c 0
 368 117 301 360 301 580 c 0
EndSplineSet
EndChar

StartChar: d
Encoding: 70 100 71
Width: 1253
VWidth: 0
GlyphClass: 2
Flags: W
HStem: -20 137<443.441 769.95> 0 21G<985.872 1130> 1047 143<441.314 774.562>
VStem: 113 182<304.095 860.582> 940 190<233.264 934.733 1028 1579> 989 141<0 91.648>
LayerCount: 2
Fore
SplineSet
113 584 m 0xb4
 113 870 243 1190 575 1190 c 0
 702 1190 859 1129 940 1028 c 1
 940 1614 l 1
 1130 1579 l 1xb8
 1130 0 l 1
 989 0 l 1x74
 961 179 l 1
 878 71 737 -20 597 -20 c 0
 247 -20 113 275 113 584 c 0xb4
295 587 m 0
 295 381 337 117 593 117 c 4
 715 117 857 181 940 275 c 1
 940 903 l 1
 839 980 717 1047 587 1047 c 0
 337 1047 295 787 295 587 c 0
EndSplineSet
EndChar

StartChar: e
Encoding: 71 101 72
Width: 1182
VWidth: 0
GlyphClass: 2
Flags: W
HStem: -20 137<471.039 836.059> 563 119<304 903> 1057 133<462.982 782.95>
VStem: 113 187<317.987 563 682 848.249> 903 168<682 919.729>
LayerCount: 2
Fore
SplineSet
903 717 m 2
 903 898 834 1057 629 1057 c 0
 401 1057 321 882 304 682 c 1
 903 682 l 1
 903 717 l 2
300 563 m 1
 302 326 383 117 649 117 c 4
 762 117 870 165 955 244 c 1
 1017 99 l 1
 918 30 759 -20 637 -20 c 0
 275 -20 113 246 113 578 c 0
 113 897 276 1190 628 1190 c 0
 934 1190 1071 957 1071 676 c 0
 1071 638 1066 600 1060 563 c 1
 300 563 l 1
EndSplineSet
EndChar

StartChar: f
Encoding: 72 102 73
Width: 898
VWidth: 0
GlyphClass: 2
Flags: W
HStem: 0 21G<262 452> 1064 105<67 262 452 800> 1516 143<489.152 735.931>
VStem: 262 190<0 1064 1169 1472.95>
LayerCount: 2
Fore
SplineSet
617 1516 m 0
 470 1516 447 1430 447 1324 c 0
 447 1275 452 1221 452 1169 c 1
 800 1169 l 1
 800 1064 l 1
 452 1064 l 1
 452 0 l 1
 262 0 l 1
 262 1064 l 1
 67 1064 l 1
 67 1169 l 1
 262 1169 l 1
 262 1421 289 1659 593 1659 c 0
 674 1659 770 1615 835 1567 c 1
 772 1442 l 1
 730 1480 676 1516 617 1516 c 0
EndSplineSet
EndChar

StartChar: g
Encoding: 73 103 74
Width: 1225
VWidth: 0
GlyphClass: 2
Flags: W
HStem: -427 150<305.756 870.115> 76 134<288.689 337 575 881.165> 1026 145<908.46 1144> 1058 132<365.445 754.839>
VStem: 82 158<-219.286 13.2212> 129 139<212.468 380.599 703.549 962.923> 822 167<668.574 990.554> 954 162<-207.191 11.8474>
LayerCount: 2
Fore
SplineSet
240 -110 m 0xc9
 240 -37 274 37 337 76 c 1
 659 76 l 2
 796 76 954 65 954 -111 c 0
 954 -270 734 -277 605 -277 c 0
 593 -277 582 -277 572 -277 c 0
 562 -277 550 -277 539 -277 c 0
 414 -277 240 -270 240 -110 c 0xc9
279 845 m 0
 279 1009 414 1058 555 1058 c 0
 698 1058 822 1031 822 860 c 0xd2
 822 593 685 580 462 552 c 1
 353 599 279 729 279 845 c 0
248 107 m 1
 149 62 82 -12 82 -125 c 0
 82 -407 378 -427 592 -427 c 0
 799 -427 1116 -372 1116 -106 c 0xd9
 1116 176 833 217 575 217 c 0
 468 217 365 210 289 210 c 1
 278 246 268 284 268 322 c 0
 268 511 989 296 989 812 c 0
 989 888 979 983 906 1026 c 1
 1144 1026 l 1
 1144 1171 l 1xe6
 1035 1170 938 1165 839 1114 c 1
 760 1175 656 1190 559 1190 c 0
 356 1190 118 1089 118 854 c 0
 118 718 186 578 315 521 c 1
 215 506 129 424 129 320 c 0xd6
 129 235 179 154 248 107 c 1
EndSplineSet
EndChar

StartChar: h
Encoding: 74 104 75
Width: 1229
VWidth: 0
GlyphClass: 2
Flags: W
HStem: 0 21G<123 313 920 1110> 1047 143<504.779 829.648>
VStem: 123 190<0 924.901 1011 1579> 920 190<0 943.113>
LayerCount: 2
Fore
SplineSet
688 1047 m 0
 564 1047 399 979 313 888 c 1
 313 0 l 1
 123 0 l 1
 123 1579 l 1
 313 1616 l 1
 313 1011 l 1
 419 1108 539 1190 702 1190 c 4
 995 1190 1110 1018 1110 727 c 2
 1110 0 l 1
 920 0 l 1
 920 727 l 2
 920 892 882 1047 688 1047 c 0
EndSplineSet
EndChar

StartChar: i
Encoding: 75 105 76
Width: 468
VWidth: 0
GlyphClass: 2
Flags: W
HStem: 0 21G<142 324> 1149 20G<142 324> 1347 230<148.535 323.618>
VStem: 125 220<1370.29 1553.71> 142 182<0 1169>
LayerCount: 2
Fore
SplineSet
324 0 m 1xe8
 142 0 l 1
 142 1169 l 1
 324 1169 l 1
 324 0 l 1xe8
237 1577 m 0
 302 1577 345 1524 345 1462 c 0
 345 1400 302 1347 237 1347 c 0
 173 1347 125 1399 125 1462 c 0xf0
 125 1524 174 1577 237 1577 c 0
EndSplineSet
EndChar

StartChar: j
Encoding: 76 106 77
Width: 606
VWidth: 0
GlyphClass: 2
Flags: W
HStem: 1149 20G<281 471> 1347 230<286.535 461.618>
VStem: 263 220<1370.29 1553.71> 281 190<-95.0117 1169>
LayerCount: 2
Fore
SplineSet
93 -258 m 1xd0
 267 -147 281 -14 281 176 c 2
 281 1169 l 1
 471 1169 l 1
 471 154 l 2
 471 -68 378 -315 140 -373 c 1
 93 -258 l 1xd0
375 1577 m 0
 440 1577 483 1524 483 1462 c 0
 483 1400 440 1347 375 1347 c 0
 311 1347 263 1399 263 1462 c 0xe0
 263 1524 312 1577 375 1577 c 0
EndSplineSet
EndChar

StartChar: k
Encoding: 77 107 78
Width: 1213
VWidth: 0
GlyphClass: 2
Flags: W
HStem: 0 21G<125 315 893.703 1132> 1149 20G<853.373 1099>
VStem: 125 190<0 459 627 1579> 874 225<944 1169> 911 221<0 221>
DStem2: 315 627 546 648 0.717939 0.696106<180.462 778.617> 546 648 431 555 0.670733 -0.741698<0 725.438>
LayerCount: 2
Fore
SplineSet
1099 1169 m 1xf0
 546 648 l 1
 1132 0 l 1
 911 0 l 1xe8
 431 555 l 1
 315 459 l 1
 315 0 l 1
 125 0 l 1
 125 1579 l 1
 315 1614 l 1
 315 627 l 1
 874 1169 l 1
 1099 1169 l 1xf0
EndSplineSet
EndChar

StartChar: l
Encoding: 78 108 79
Width: 437
VWidth: 0
GlyphClass: 2
Flags: W
HStem: 0 21G<123 313>
VStem: 123 190<0 1579>
LayerCount: 2
Fore
SplineSet
123 0 m 1
 123 1579 l 1
 313 1614 l 1
 313 0 l 1
 123 0 l 1
EndSplineSet
EndChar

StartChar: m
Encoding: 79 109 80
Width: 1901
VWidth: 0
GlyphClass: 2
Flags: W
HStem: 0 21G<123 313 845 1035 1591 1781> 1047 143<495.957 780.013 1225.09 1523.84> 1149 20G<123 266.621>
VStem: 123 190<0 901.636> 123 141<1059.62 1169> 845 190<0 896.518> 1591 190<0 973.419>
LayerCount: 2
Fore
SplineSet
1005 967 m 1xce
 1097 1101 1262 1190 1425 1190 c 0
 1674 1190 1781 992 1781 766 c 2
 1781 0 l 1
 1591 0 l 1
 1591 768 l 2
 1591 912 1568 1047 1397 1047 c 0
 1254 1047 1130 957 1035 858 c 1
 1035 0 l 1
 845 0 l 1
 845 768 l 2
 845 912 825 1047 653 1047 c 0
 521 1047 401 948 313 860 c 1
 313 0 l 1
 123 0 l 1xd6
 123 1169 l 1
 264 1169 l 1xae
 291 963 l 1
 375 1097 524 1190 684 1190 c 0
 834 1190 958 1112 1005 967 c 1xce
EndSplineSet
EndChar

StartChar: n
Encoding: 80 110 81
Width: 1227
VWidth: 0
GlyphClass: 2
Flags: W
HStem: 0 21G<123 313 917 1107> 1047 141<527.602 830.242> 1149 20G<123 265.567>
VStem: 123 190<0 912.658> 123 140<1057.3 1169> 917 190<0 951.477>
LayerCount: 2
Fore
SplineSet
313 880 m 1xd4
 313 0 l 1
 123 0 l 1xd4
 123 1169 l 1
 263 1169 l 1xac
 287 982 l 1
 381 1101 587 1188 736 1188 c 0
 1011 1188 1107 975 1107 727 c 2
 1107 0 l 1
 917 0 l 1
 917 727 l 2
 917 884 884 1047 693 1047 c 0
 582 1047 395 956 313 880 c 1xd4
EndSplineSet
EndChar

StartChar: o
Encoding: 81 111 82
Width: 1285
VWidth: 0
GlyphClass: 2
Flags: W
HStem: -20 137<473.592 810.869> 1051 139<473.381 810.835>
VStem: 112 182<322.632 842.405> 990 183<322.197 842.623>
LayerCount: 2
Fore
SplineSet
294 582 m 4
 294 352 372 117 642 117 c 4
 914 117 990 351 990 582 c 4
 990 812 913 1051 642 1051 c 4
 371 1051 294 812 294 582 c 4
112 582 m 4
 112 914 283 1190 642 1190 c 4
 1002 1190 1173 915 1173 582 c 4
 1173 248 1001 -20 642 -20 c 4
 283 -20 112 249 112 582 c 4
EndSplineSet
EndChar

StartChar: p
Encoding: 82 112 83
Width: 1256
VWidth: 0
GlyphClass: 2
Flags: W
HStem: -487 21G<126 298.727> -20 137<492.067 815.768> 1047 143<500.78 809.589> 1149 20G<126 270.333>
VStem: 126 190<-465 164 242.468 927.665> 126 141<1082.98 1169> 962 182<310.3 856.984>
LayerCount: 2
Fore
SplineSet
675 -20 m 0xe6
 536 -20 403 58 316 164 c 1
 316 -465 l 1xea
 126 -487 l 1
 126 1169 l 1
 267 1169 l 1xd6
 300 971 l 1
 387 1088 523 1190 674 1190 c 0
 1018 1190 1144 882 1144 584 c 0
 1144 291 1012 -20 675 -20 c 0xe6
962 543 m 0
 962 735 931 1047 675 1047 c 0
 565 1047 393 972 316 890 c 1
 316 285 l 1
 381 202 555 117 656 117 c 4
 898 117 962 331 962 543 c 0
EndSplineSet
EndChar

StartChar: q
Encoding: 83 113 84
Width: 1245
VWidth: 0
GlyphClass: 2
Flags: W
HStem: -502 21G<936 1101.22> -20 137<433.138 762.396> 1047 143<427.719 748.155> 1149 20G<983.566 1126>
VStem: 109 182<307.543 868.397> 936 190<-479 164 230.061 929.267> 987 139<1085.51 1169>
LayerCount: 2
Fore
SplineSet
570 1190 m 0xec
 719 1190 872 1093 953 971 c 1
 987 1169 l 1
 1126 1169 l 1xda
 1126 -479 l 1
 936 -502 l 1
 936 164 l 1
 852 57 718 -20 580 -20 c 0
 240 -20 109 288 109 584 c 0
 109 878 228 1190 570 1190 c 0xec
291 584 m 0
 291 385 333 117 580 117 c 4
 694 117 854 184 936 268 c 1
 936 891 l 1
 852 975 690 1047 570 1047 c 0xec
 324 1047 291 774 291 584 c 0
EndSplineSet
EndChar

StartChar: r
Encoding: 84 114 85
Width: 831
VWidth: 0
GlyphClass: 2
Flags: W
HStem: 0 21G<123 313> 1030 160<473.094 718> 1149 20G<123 269.125>
VStem: 123 190<0 926.95> 123 143<1077.25 1169>
LayerCount: 2
Fore
SplineSet
618 1190 m 0xc8
 652 1190 686 1187 718 1178 c 1
 718 1026 l 1
 698 1030 676 1030 656 1030 c 0
 555 1030 388 966 313 894 c 1
 313 0 l 1
 123 0 l 1xd0
 123 1169 l 1
 266 1169 l 1xa8
 296 977 l 1
 372 1076 483 1190 618 1190 c 0xc8
EndSplineSet
EndChar

StartChar: s
Encoding: 85 115 86
Width: 1007
VWidth: 0
GlyphClass: 2
Flags: W
HStem: -20 137<301.421 670.04> 1042 148<311.902 687.886>
VStem: 89 160<795.405 982.627> 749 172<193.273 424.221>
LayerCount: 2
Fore
SplineSet
99 100 m 1
 163 245 l 1
 246 174 381 117 490 117 c 4
 602 117 749 156 749 314 c 0
 749 622 89 441 89 891 c 0
 89 1102 304 1190 486 1190 c 0
 590 1190 787 1135 868 1067 c 1
 806 924 l 1
 718 995 611 1042 497 1042 c 0
 388 1042 249 1015 249 880 c 0
 249 652 921 759 921 309 c 0
 921 64 695 -20 483 -20 c 0
 374 -20 184 32 99 100 c 1
EndSplineSet
EndChar

StartChar: t
Encoding: 86 116 87
Width: 915
VWidth: 0
GlyphClass: 2
Flags: W
HStem: -14 139<510.216 785.283> 1065 104<96 279 469 802>
VStem: 279 190<166.23 1065> 307 162<1169 1530>
LayerCount: 2
Fore
SplineSet
815 40 m 1xe0
 741 5 660 -14 578 -14 c 0
 389 -14 279 116 279 300 c 2
 279 1065 l 1xe0
 96 1065 l 1
 96 1169 l 1
 307 1169 l 1
 307 1530 l 1
 469 1576 l 1
 469 1169 l 1xd0
 802 1169 l 1
 802 1065 l 1
 469 1065 l 1
 469 298 l 2
 469 206 512 125 610 125 c 4
 668 125 727 144 779 169 c 5
 815 40 l 1xe0
EndSplineSet
EndChar

StartChar: u
Encoding: 87 117 88
Width: 1210
VWidth: 0
GlyphClass: 2
Flags: W
HStem: -20 137<405.375 729.009> 0 21G<942.932 1087> 1149 20G<121 311 897 1087>
VStem: 121 190<221.175 1169> 897 190<235.96 1169> 946 141<0 93.4495>
LayerCount: 2
Fore
SplineSet
543 117 m 4xb4
 678 117 800 179 897 274 c 1
 897 1169 l 1
 1087 1169 l 1xb8
 1087 0 l 1
 946 0 l 1x74
 919 176 l 1
 815 59 694 -20 533 -20 c 0
 238 -20 121 163 121 442 c 2
 121 1169 l 1
 311 1169 l 1
 311 442 l 2
 311 276 349 117 543 117 c 4xb4
EndSplineSet
EndChar

StartChar: v
Encoding: 88 118 89
Width: 1229
VWidth: 0
GlyphClass: 2
Flags: W
HStem: 0 21G<513.678 714.357> 1149 20G<93 287.928 940.196 1137>
DStem2: 281 1169 93 1169 0.343806 -0.939041<0 1026.39> 617 199 707 0 0.345222 0.938521<0 1024.29>
LayerCount: 2
Fore
SplineSet
707 0 m 1
 521 0 l 1
 93 1169 l 1
 281 1169 l 1
 617 199 l 1
 947 1169 l 1
 1137 1169 l 1
 707 0 l 1
EndSplineSet
EndChar

StartChar: w
Encoding: 89 119 90
Width: 1751
VWidth: 0
GlyphClass: 2
Flags: W
HStem: 0 21G<416.371 632.98 1124.9 1341.47> 1149 20G<93 281.921 773.059 985.167 1472.4 1656>
VStem: 93 184<985 1169> 1477 179<990 1169>
DStem2: 527 153 628 0 0.239837 0.970813<0 902.099> 980 1169 876 996 0.250137 -0.96821<141.486 1051.42>
LayerCount: 2
Fore
SplineSet
876 996 m 1
 628 0 l 1
 422 0 l 1
 93 1169 l 1
 277 1169 l 1
 527 153 l 1
 778 1169 l 1
 980 1169 l 1
 1243 151 l 1
 1477 1169 l 1
 1656 1169 l 1
 1336 0 l 1
 1130 0 l 1
 876 996 l 1
EndSplineSet
EndChar

StartChar: x
Encoding: 90 120 91
Width: 1183
VWidth: 0
GlyphClass: 2
Flags: W
HStem: 0 21G<96 320.075 866.176 1082> 1149 20G<92 320.077 867.58 1090>
LayerCount: 2
Fore
SplineSet
92 1169 m 1
 308 1169 l 1
 590 702 l 1
 880 1169 l 1
 1090 1169 l 1
 684 584 l 1
 1082 0 l 1
 878 0 l 1
 596 477 l 1
 308 0 l 1
 96 0 l 1
 504 584 l 1
 92 1169 l 1
EndSplineSet
EndChar

StartChar: y
Encoding: 91 121 92
Width: 1209
VWidth: 0
GlyphClass: 2
Flags: W
HStem: -459 125<249 332.979> 1149 20G<87 276.717 918.457 1120>
DStem2: 269 1169 87 1169 0.366205 -0.930534<0 986.094> 624 249 683 -37 0.340679 0.94018<-547.063 -241.779 0 846.49> 925 1169 1120 1169 0.340679 0.94018<-1559.28 -1209.29 -846.49 0>
LayerCount: 2
Fore
SplineSet
624 249 m 1
 925 1169 l 1
 1120 1169 l 1
 683 -37 l 2
 603 -259 526 -459 249 -459 c 1
 198 -334 l 1
 428 -295 476 -186 538 23 c 1
 87 1169 l 1
 269 1169 l 1
 624 249 l 1
EndSplineSet
EndChar

StartChar: z
Encoding: 92 122 93
Width: 1034
VWidth: 0
GlyphClass: 2
Flags: W
HStem: 0 145<290 916> 1029 140<144 752>
DStem2: 114 166 290 145 0.59447 0.804118<87.7402 1073.23>
LayerCount: 2
Fore
SplineSet
916 1169 m 1
 916 1004 l 1
 290 145 l 1
 916 145 l 1
 916 0 l 1
 114 0 l 1
 114 166 l 1
 752 1029 l 1
 144 1029 l 1
 144 1169 l 1
 916 1169 l 1
EndSplineSet
EndChar

StartChar: braceleft
Encoding: 93 123 94
Width: 766
VWidth: 0
GlyphClass: 2
<<<<<<< HEAD
Flags: MW
=======
Flags: W
HStem: -209 169<548.4 703> 571 188<58 201.783> 1370 169<548.4 703>
VStem: 57 167<571 759>
CounterMasks: 1 e0
>>>>>>> updates
LayerCount: 2
Fore
SplineSet
57 571 m 2
 58 571 l 0
 517 571 38 -209 703 -209 c 0
 704 -209 l 2
 705 -40 l 1
 704 -40 703 -40 702 -40 c 0
 252 -40 676 547 224 665 c 1
 676 783 252 1370 702 1370 c 0
 703 1370 704 1370 705 1370 c 1
 704 1539 l 1
 703 1539 l 2
 38 1539 517 759 58 759 c 0
 57 759 l 2
 57 571 l 2
EndSplineSet
EndChar

StartChar: bar
Encoding: 94 124 95
Width: 436
VWidth: 0
GlyphClass: 2
<<<<<<< HEAD
Flags: MW
=======
Flags: W
VStem: 129 178<-111 1696>
>>>>>>> updates
LayerCount: 2
Fore
SplineSet
129 -111 m 1
 129 1696 l 1
 307 1696 l 1
 307 -111 l 1
 129 -111 l 1
EndSplineSet
EndChar

StartChar: braceright
Encoding: 95 125 96
Width: 766
VWidth: 0
GlyphClass: 2
<<<<<<< HEAD
Flags: MW
=======
Flags: W
HStem: -209 169<63 218.6> 571 188<565.478 710> 1370 169<63 218.328>
VStem: 63 647
CounterMasks: 1 e0
>>>>>>> updates
LayerCount: 2
Fore
SplineSet
710 571 m 2
 709 571 l 0
 251 571 728 -209 64 -209 c 0
 63 -209 l 2
 62 -40 l 1
 63 -40 64 -40 65 -40 c 0
 515 -40 91 547 543 665 c 1
 92 783 514 1370 65 1370 c 0
 64 1370 63 1370 62 1370 c 1
 63 1539 l 1
 64 1539 l 2
 728 1539 251 759 709 759 c 0
 710 759 l 2
 710 571 l 2
EndSplineSet
EndChar

StartChar: asciitilde
Encoding: 96 126 97
Width: 972
VWidth: 0
GlyphClass: 2
<<<<<<< HEAD
Flags: MW
=======
Flags: W
HStem: 390 139<531.373 701.107> 509 145<271.654 440.707>
VStem: 107 156<394 503.847> 711 156<534.584 640>
>>>>>>> updates
LayerCount: 2
Fore
SplineSet
675 390 m 0
 529 390 397 509 322 509 c 0
 264 509 263 436 263 394 c 1
 107 394 l 1
 107 531 151 654 308 654 c 0
 453 654 550 529 652 529 c 0
 706 529 711 601 711 640 c 1
 867 640 l 1
 867 521 812 390 675 390 c 0
EndSplineSet
EndChar

StartChar: exclamdown
Encoding: 98 161 99
Width: 410
VWidth: 0
GlyphClass: 2
<<<<<<< HEAD
Flags: HMW
=======
Flags: W
>>>>>>> updates
LayerCount: 2
Fore
SplineSet
281 1393 m 1
 281 1595 l 1
 72 1595 l 1
 72 1393 l 1
 281 1393 l 1
296 1180 m 1
 122 1180 l 1
 122 0 l 1
 296 0 l 1
 296 1180 l 1
EndSplineSet
EndChar

StartChar: cent
Encoding: 99 162 100
Width: 1014
VWidth: 0
GlyphClass: 2
<<<<<<< HEAD
Flags: MW
=======
Flags: W
HStem: -22 151<410.051 537 640 843.484> 1037 152<420.451 537 640 821.548>
VStem: 63 190<317.679 844.894>
>>>>>>> updates
LayerCount: 2
Fore
SplineSet
537 -159 m 1
 640 -159 l 1
 640 -19 l 1
 740 -18 862 23 951 68 c 1
 905 205 l 1
 827 158 731 130 640 130 c 1
 640 1038 l 1
 730 1037 833 997 905 944 c 1
 962 1077 l 1
 873 1131 744 1185 640 1186 c 1
 640 1329 l 1
 537 1329 l 1
 537 1189 l 1
 202 1156 63 895 63 580 c 0
 63 272 203 -2 537 -22 c 1
 537 -159 l 1
537 129 m 1
 307 153 253 385 253 580 c 0
 253 781 303 1007 537 1037 c 1
 537 129 l 1
EndSplineSet
EndChar

StartChar: sterling
Encoding: 100 163 101
Width: 1009
VWidth: 0
GlyphClass: 2
<<<<<<< HEAD
Flags: MW
=======
Flags: W
HStem: 1180 142<385.079 787.28>
VStem: 118 182<802.52 1102.26> 258 158<320.476 603>
>>>>>>> updates
LayerCount: 2
Fore
SplineSet
116 126 m 1
 116 0 l 1
 913 0 l 1
 913 132 l 1
 297 132 l 1
 383 249 416 464 416 603 c 1
 844 603 l 1
 844 706 l 1
 416 706 l 1
 351 775 300 862 300 959 c 0
 300 1126 417 1180 568 1180 c 0
 687 1180 793 1139 898 1088 c 1
 948 1219 l 1
 830 1294 644 1322 509 1322 c 0
 305 1322 118 1167 118 956 c 0
 118 875 167 757 233 706 c 1
 61 706 l 1
 61 603 l 1
 258 603 l 1
 258 463 215 236 116 126 c 1
EndSplineSet
EndChar

StartChar: currency
Encoding: 101 164 102
Width: 1180
VWidth: 0
GlyphClass: 2
<<<<<<< HEAD
Flags: MW
=======
Flags: W
HStem: 558 141<438.75 726.069> 1266 143<448.701 743.414>
VStem: 163 143<828.792 1123.29> 872 142<845.381 1136.23>
DStem2: 168 1526 44 1402 0.707107 -0.707107<0 283.728 1078.44 1373.91> 44 555 168 430 0.707107 0.707107<0 275.895 1100.14 1373.91>
>>>>>>> updates
LayerCount: 2
Fore
SplineSet
306 975 m 0
 306 829 434 699 580 699 c 0
 732 699 872 840 872 992 c 0
 872 1138 744 1266 598 1266 c 0
 444 1266 306 1130 306 975 c 0
231 742 m 1
 187 809 163 887 163 967 c 0
 163 1053 190 1137 238 1208 c 1
 44 1402 l 1
 168 1526 l 1
 362 1333 l 1
 434 1382 518 1409 605 1409 c 0
 685 1409 763 1385 830 1341 c 1
 1016 1526 l 1
 1140 1402 l 1
 953 1215 l 1
 994 1150 1014 1076 1014 1000 c 0
 1014 913 987 829 938 757 c 1
 1140 555 l 1
 1016 430 l 1
 813 633 l 1
 742 584 659 558 573 558 c 0
 497 558 422 578 357 619 c 1
 168 430 l 1
 44 555 l 1
 231 742 l 1
EndSplineSet
EndChar

StartChar: yen
Encoding: 102 165 103
Width: 1060
VWidth: 0
GlyphClass: 2
<<<<<<< HEAD
Flags: MW
=======
Flags: W
HStem: 0 788<45 1023> 389 99<137 439 629 925> 584 104<137 398 662 925> 1559 20G<-85 119.619 938.381 1143>
VStem: 439 190<0 389 488 584>
DStem2: 109 1579 -85 1579 0.476569 -0.879137<0 895.556> 529 788 662 688 0.475042 0.879963<0 895.568>
>>>>>>> updates
LayerCount: 2
Fore
SplineSet
398 688 m 1
 -85 1579 l 1
 109 1579 l 1
 529 788 l 1
 949 1579 l 1
 1143 1579 l 1
 662 688 l 1
 925 688 l 1
 925 584 l 1
 629 584 l 1
 629 488 l 1
 925 488 l 1
 925 389 l 1
 629 389 l 1
 629 0 l 1
 439 0 l 1
 439 389 l 1
 137 389 l 1
 137 488 l 1
 439 488 l 1
 439 584 l 1
 137 584 l 1
 137 688 l 1
 398 688 l 1
EndSplineSet
EndChar

StartChar: brokenbar
Encoding: 103 166 104
Width: 430
VWidth: 0
GlyphClass: 2
<<<<<<< HEAD
Flags: MW
=======
Flags: W
HStem: 0 21G<122 310> 1559 20G<122 310>
VStem: 122 188<0 690 889 1579>
>>>>>>> updates
LayerCount: 2
Fore
SplineSet
122 889 m 1
 122 1579 l 1
 310 1579 l 1
 310 889 l 1
 122 889 l 1
122 0 m 1
 122 690 l 1
 310 690 l 1
 310 0 l 1
 122 0 l 1
EndSplineSet
EndChar

StartChar: section
Encoding: 104 167 105
Width: 924
VWidth: 0
GlyphClass: 2
<<<<<<< HEAD
Flags: MW
=======
Flags: W
HStem: -96 146<251.586 630.601> 1424 145<284.512 652.939>
VStem: 79 154<651.302 857.853 1193.97 1373.07> 700 169<116.508 329.569 648.673 862.866>
>>>>>>> updates
LayerCount: 2
Fore
SplineSet
89 20 m 1
 150 158 l 1
 223 93 344 50 441 50 c 0
 555 50 700 82 700 223 c 0
 700 513 79 349 79 771 c 0
 79 913 210 980 334 995 c 1
 187 1051 79 1115 79 1285 c 0
 79 1487 283 1569 456 1569 c 0
 552 1569 745 1516 818 1452 c 1
 760 1316 l 1
 676 1381 573 1424 466 1424 c 0
 365 1424 235 1402 235 1275 c 0
 235 1062 867 1151 867 746 c 0
 867 610 741 531 618 522 c 1
 769 470 869 386 869 219 c 0
 869 -16 654 -96 453 -96 c 0
 352 -96 168 -45 89 20 c 1
468 600 m 0
 568 600 707 624 707 751 c 0
 707 889 576 906 468 906 c 0
 361 906 233 886 233 753 c 0
 233 623 364 600 468 600 c 0
EndSplineSet
EndChar

StartChar: dieresis
Encoding: 105 168 106
Width: 820
VWidth: 0
GlyphClass: 2
<<<<<<< HEAD
Flags: MW
=======
Flags: W
HStem: 381 230<84.5349 259.618 574.535 749.618>
VStem: 61 220<404.291 587.709> 551 220<404.291 587.709>
>>>>>>> updates
LayerCount: 2
Fore
SplineSet
173 611 m 0
 238 611 281 558 281 496 c 0
 281 434 238 381 173 381 c 0
 109 381 61 433 61 496 c 0
 61 558 110 611 173 611 c 0
663 611 m 0
 728 611 771 558 771 496 c 0
 771 434 728 381 663 381 c 0
 599 381 551 433 551 496 c 0
 551 558 600 611 663 611 c 0
EndSplineSet
EndChar

StartChar: copyright
Encoding: 106 169 107
Width: 1817
VWidth: 0
GlyphClass: 2
<<<<<<< HEAD
Flags: MW
=======
Flags: W
HStem: -23 124<651.832 1167.8> 336 128<720.486 1152.47> 1198 128<720.486 1152.47> 1562 125<666.759 1153.04>
VStem: 35 148<570.987 1072.89> 425 162<597.649 1064.35> 1637 148<571.358 1072.69>
>>>>>>> updates
LayerCount: 2
Fore
SplineSet
947 336 m 0
 1045 336 1141 370 1227 414 c 1
 1227 540 l 1
 1136 494 1036 464 933 464 c 0
 673 464 587 575 587 831 c 0
 587 1087 673 1198 933 1198 c 0
 1036 1198 1136 1168 1227 1122 c 1
 1227 1248 l 1
 1141 1292 1045 1326 947 1326 c 0
 614 1326 425 1168 425 831 c 0
 425 494 614 336 947 336 c 0
35 830 m 0
 35 342 429 -23 910 -23 c 0
 1389 -23 1785 344 1785 830 c 0
 1785 1308 1383 1687 910 1687 c 0
 437 1687 35 1308 35 830 c 0
183 829 m 0
 183 1230 507 1562 910 1562 c 0
 1312 1562 1637 1229 1637 829 c 0
 1637 410 1329 101 910 101 c 0
 491 101 183 410 183 829 c 0
EndSplineSet
EndChar

StartChar: ordfeminine
Encoding: 107 170 108
Width: 913
VWidth: 0
GlyphClass: 2
<<<<<<< HEAD
Flags: MW
=======
Flags: W
HStem: 446 129<121 805> 668 113<259.774 553.277> 1158 100<286.56 646.903> 1513 125<224.083 601.836>
VStem: 57 161<824.07 1094.04> 650 161<856.361 1147.45 1218 1465.05> 695 116<686 761.397>
>>>>>>> updates
LayerCount: 2
Fore
SplineSet
121 575 m 1
 805 575 l 1
 805 446 l 1
 121 446 l 1
 121 575 l 1
412 781 m 0
 500 781 598 831 650 903 c 1
 650 1141 l 1
 592 1150 533 1158 474 1158 c 0
 346 1158 218 1123 218 971 c 0
 218 828 270 781 412 781 c 0
57 960 m 0
 57 1169 227 1258 416 1258 c 0
 494 1258 576 1243 650 1218 c 1
 650 1276 l 2
 650 1426 628 1513 458 1513 c 0
 365 1513 250 1488 167 1443 c 1
 114 1552 l 1
 208 1607 343 1638 450 1638 c 0
 738 1638 811 1506 811 1235 c 2
 811 686 l 1
 695 686 l 1
 668 828 l 1
 620 720 484 668 374 668 c 0
 188 668 57 766 57 960 c 0
EndSplineSet
EndChar

StartChar: guillemotleft
Encoding: 108 171 109
Width: 1273
VWidth: 0
GlyphClass: 2
<<<<<<< HEAD
Flags: MW
=======
Flags: W
HStem: 99 207<416 623 1024 1231> 842 207<416 623 1024 1231>
DStem2: 15 666 187 577 0.846117 0.532998<98.0953 608.247> 187 577 15 481 0.846744 -0.532<0 513.353> 623 666 794 577 0.846117 0.532998<97.2491 608.247> 794 577 623 481 0.846744 -0.532<0 514.199>
>>>>>>> updates
LayerCount: 2
Fore
SplineSet
1231 842 m 1
 794 577 l 1
 1231 306 l 1
 1231 99 l 1
 623 481 l 1
 623 666 l 1
 1231 1049 l 1
 1231 842 l 1
623 842 m 1
 187 577 l 1
 623 306 l 1
 623 99 l 1
 15 481 l 1
 15 666 l 1
 623 1049 l 1
 623 842 l 1
EndSplineSet
EndChar

StartChar: logicalnot
Encoding: 109 172 110
Width: 1452
VWidth: 0
GlyphClass: 2
<<<<<<< HEAD
Flags: HMW
=======
Flags: W
>>>>>>> updates
LayerCount: 2
Fore
SplineSet
1355 338 m 1
 1355 1174 l 1
 1 1174 l 1
 1 1023 l 1
 1179 1023 l 1
 1179 338 l 1
 1355 338 l 1
EndSplineSet
EndChar

StartChar: uni00AD
Encoding: 110 173 111
Width: 591
VWidth: 0
GlyphClass: 2
<<<<<<< HEAD
Flags: MW
=======
Flags: W
HStem: 508 131<68 536>
VStem: 68 468<508 639>
>>>>>>> updates
LayerCount: 2
Fore
SplineSet
536 508 m 1
 68 508 l 1
 68 639 l 1
 536 639 l 1
 536 508 l 1
EndSplineSet
EndChar

StartChar: registered
Encoding: 111 174 112
Width: 1233
VWidth: 0
GlyphClass: 2
<<<<<<< HEAD
Flags: MW
=======
Flags: W
HStem: 542 99<412.055 820.66> 1068 82<546 586> 1326 82<546 730.272> 1572 102<412.656 820.677>
VStem: 28 108<907.666 1304.98> 437 106<807 1068 1150 1326> 742 104<1170.55 1310.35> 1099 108<908.509 1298.96>
>>>>>>> updates
LayerCount: 2
Fore
SplineSet
594 1150 m 2
 671 1150 742 1164 742 1256 c 0
 742 1321 642 1326 579 1326 c 0
 566 1326 555 1326 546 1326 c 1
 546 1150 l 1
 594 1150 l 2
846 1261 m 0
 846 1146 784 1111 680 1086 c 1
 860 836 l 1
 826 823 792 802 760 785 c 1
 586 1068 l 1
 543 1068 l 1
 543 807 l 1
 437 807 l 1
 437 1408 l 1
 557 1408 l 2
 649 1408 846 1394 846 1261 c 0
617 542 m 0
 297 542 28 781 28 1108 c 0
 28 1433 300 1674 617 1674 c 0
 935 1674 1207 1434 1207 1108 c 0
 1207 781 936 542 617 542 c 0
616 641 m 0
 880 641 1099 837 1099 1106 c 0
 1099 1376 881 1572 616 1572 c 0
 350 1572 136 1375 136 1105 c 0
 136 834 350 641 616 641 c 0
EndSplineSet
EndChar

StartChar: macron
Encoding: 112 175 113
Width: 836
VWidth: 0
GlyphClass: 2
<<<<<<< HEAD
Flags: MW
=======
Flags: W
HStem: 98 117<88 770>
>>>>>>> updates
LayerCount: 2
Fore
SplineSet
770 98 m 1
 88 98 l 1
 88 215 l 1
 770 215 l 1
 770 98 l 1
EndSplineSet
EndChar

StartChar: degree
Encoding: 113 176 114
Width: 565
VWidth: 0
GlyphClass: 2
<<<<<<< HEAD
Flags: MW
=======
Flags: W
HStem: 660 90<183.658 387.207> 1048 91<183.068 386.993>
VStem: 43 97<791.935 1006.34> 426 97<788.4 1009.49>
>>>>>>> updates
LayerCount: 2
Fore
SplineSet
285 1048 m 0
 202 1048 140 980 140 899 c 0
 140 819 204 750 285 750 c 0
 369 750 426 817 426 899 c 0
 426 981 369 1048 285 1048 c 0
287 1139 m 0
 424 1139 523 1035 523 899 c 0
 523 762 425 660 287 660 c 0
 149 660 43 759 43 899 c 0
 43 1039 148 1139 287 1139 c 0
EndSplineSet
EndChar

StartChar: plusminus
Encoding: 114 177 115
Width: 852
VWidth: 0
GlyphClass: 2
<<<<<<< HEAD
Flags: MW
=======
Flags: W
HStem: -55 143<85 786> 518 133<51 364 505 819>
VStem: 364 141<174 518 651 995>
>>>>>>> updates
LayerCount: 2
Fore
SplineSet
819 518 m 1
 505 518 l 1
 505 174 l 1
 364 174 l 1
 364 518 l 1
 51 518 l 1
 51 651 l 1
 364 651 l 1
 364 995 l 1
 505 995 l 1
 505 651 l 1
 819 651 l 1
 819 518 l 1
786 -55 m 1
 85 -55 l 1
 85 88 l 1
 786 88 l 1
 786 -55 l 1
EndSplineSet
EndChar

StartChar: uni00B2
Encoding: 115 178 116
Width: 777
VWidth: 0
GlyphClass: 2
<<<<<<< HEAD
Flags: MW
=======
Flags: W
HStem: 668 152<283 689> 1443 145<68 213> 1495 143<94.7924 502.323>
VStem: 545 172<1234.64 1450.3>
>>>>>>> updates
LayerCount: 2
Fore
SplineSet
283 820 m 1
 689 820 l 1
 689 668 l 1
 51 668 l 1
 51 805 l 1
 151 894 545 1177 545 1354 c 0
 545 1460 446 1495 356 1495 c 0
 260 1495 160 1468 68 1443 c 1
 68 1588 l 1
 165 1625 271 1638 374 1638 c 0
 549 1638 717 1551 717 1357 c 0
 717 1129 434 948 283 820 c 1
EndSplineSet
EndChar

StartChar: uni00B3
Encoding: 116 179 117
Width: 797
VWidth: 0
GlyphClass: 2
<<<<<<< HEAD
Flags: MW
=======
Flags: W
HStem: 540 132<140.921 506.08> 1541 136<129.038 505.504>
VStem: 559 154<1276.11 1489.32> 578 166<743.034 978.393>
>>>>>>> updates
LayerCount: 2
Fore
SplineSet
559 1383 m 0
 559 1511 442 1541 335 1541 c 0
 255 1541 173 1520 101 1484 c 1
 54 1611 l 1
 137 1652 248 1677 340 1677 c 0
 517 1677 713 1601 713 1394 c 0
 713 1263 602 1143 468 1142 c 1
 627 1111 744 1006 744 835 c 0
 744 628 533 540 355 540 c 0
 257 540 110 564 27 618 c 1
 78 745 l 1
 165 701 260 672 358 672 c 0
 466 672 578 733 578 853 c 0
 578 1005 447 1057 316 1072 c 1
 316 1207 l 1
 423 1207 559 1255 559 1383 c 0
EndSplineSet
EndChar

StartChar: acute
Encoding: 117 180 118
Width: 430
VWidth: 0
GlyphClass: 2
<<<<<<< HEAD
Flags: MW
=======
Flags: W
HStem: 328 637
VStem: 39 391
>>>>>>> updates
LayerCount: 2
Fore
SplineSet
96 328 m 1
 39 354 l 1
 198 965 l 1
 430 874 l 1
 96 328 l 1
EndSplineSet
EndChar

StartChar: uni00B5
Encoding: 118 181 119
Width: 1320
GlyphClass: 2
<<<<<<< HEAD
Flags: MW
=======
Flags: W
HStem: -20 143<457.491 804.72> 1149 20G<185 359 958 1166>
VStem: 185 174<-291 113 229.478 1169> 958 208<230.358 1169> 1020 146<16 107.989>
>>>>>>> updates
LayerCount: 2
Fore
SplineSet
611 123 m 0xe8
 760 123 892 194 958 274 c 1
 958 1169 l 1
 1166 1169 l 1xf0
 1166 16 l 1
 1020 16 l 1
 996 170 l 1
 882 43 750 -20 599 -20 c 0
 481 -20 410 47 359 113 c 1
 359 -291 l 1
 185 -291 l 1
 185 1169 l 1
 359 1169 l 1
 359 442 l 2
 359 229 443 123 611 123 c 0xe8
EndSplineSet
EndChar

StartChar: paragraph
Encoding: 119 182 120
Width: 1086
VWidth: 0
GlyphClass: 2
<<<<<<< HEAD
Flags: MW
=======
Flags: W
VStem: -33 679<1078.39 1419.67>
>>>>>>> updates
LayerCount: 2
Fore
SplineSet
501 1578 m 2
 268 1578 -33 1551 -33 1250 c 0
 -33 971 226 905 456 905 c 1
 456 0 l 1
 646 0 l 1
 646 1428 l 1
 781 1428 l 1
 781 0 l 1
 967 0 l 1
 967 1578 l 1
 501 1578 l 2
EndSplineSet
EndChar

StartChar: periodcentered
Encoding: 120 183 121
Width: 329
VWidth: 0
GlyphClass: 2
<<<<<<< HEAD
Flags: MW
=======
Flags: W
HStem: 535 230<84.5349 259.618>
VStem: 61 220<558.291 741.709>
>>>>>>> updates
LayerCount: 2
Fore
SplineSet
173 765 m 0
 238 765 281 712 281 650 c 0
 281 588 238 535 173 535 c 0
 109 535 61 587 61 650 c 0
 61 712 110 765 173 765 c 0
EndSplineSet
EndChar

StartChar: cedilla
Encoding: 121 184 122
Width: 502
VWidth: 0
GlyphClass: 2
<<<<<<< HEAD
Flags: MW
=======
Flags: W
HStem: -578 114<69.3377 351.277> -540 117<67 184> -186 88<238 324.469>
VStem: 117 121<-98 76> 370 133<-444.677 -228.545>
>>>>>>> updates
LayerCount: 2
Fore
SplineSet
67 -540 m 1
 67 -423 l 1
 107 -437 192 -464 231 -464 c 0
 333 -464 370 -437 370 -328 c 0
 370 -189 222 -186 117 -186 c 1
 117 76 l 1
 238 76 l 1
 238 -98 l 1
 405 -98 503 -166 503 -342 c 0
 503 -506 409 -578 251 -578 c 0
 188 -578 126 -560 67 -540 c 1
EndSplineSet
EndChar

StartChar: uni00B9
Encoding: 122 185 123
Width: 454
VWidth: 0
GlyphClass: 2
<<<<<<< HEAD
Flags: MW
=======
Flags: W
VStem: 179 169<478 1304>
DStem2: -29 1345 8 1232 0.928206 0.372066<0 177.812>
>>>>>>> updates
LayerCount: 2
Fore
SplineSet
179 478 m 1
 179 1304 l 1
 8 1232 l 1
 -29 1345 l 1
 208 1440 l 1
 348 1414 l 1
 348 478 l 1
 179 478 l 1
EndSplineSet
EndChar

StartChar: ordmasculine
Encoding: 123 186 124
Width: 956
VWidth: 0
GlyphClass: 2
<<<<<<< HEAD
Flags: MW
=======
Flags: W
HStem: 446 129<141 825> 670 127<332.044 626.408> 1512 126<332.23 625.782>
VStem: 55 157<930.613 1375.81> 746 158<930.189 1375.6>
>>>>>>> updates
LayerCount: 2
Fore
SplineSet
141 575 m 1
 825 575 l 1
 825 446 l 1
 141 446 l 1
 141 575 l 1
212 1154 m 0
 212 977 271 797 479 797 c 0
 688 797 746 976 746 1154 c 0
 746 1330 686 1512 479 1512 c 0
 271 1512 212 1331 212 1154 c 0
55 1152 m 0
 55 1417 193 1638 479 1638 c 0
 766 1638 904 1417 904 1152 c 0
 904 885 767 670 479 670 c 0
 192 670 55 886 55 1152 c 0
EndSplineSet
EndChar

StartChar: guillemotright
Encoding: 124 187 125
Width: 1280
VWidth: 0
GlyphClass: 2
<<<<<<< HEAD
Flags: MW
=======
Flags: W
HStem: 99 207<59 266 666 873> 842 207<59 266 666 873>
DStem2: 59 1049 59 842 0.846511 -0.532371<110.201 629.67> 59 306 59 99 0.847138 0.531374<0 522.673> 666 1049 666 842 0.846511 -0.532371<110.201 629.67> 666 306 666 99 0.847138 0.531374<0 522.673>
>>>>>>> updates
LayerCount: 2
Fore
SplineSet
59 842 m 1
 506 577 l 1
 59 306 l 1
 59 99 l 1
 668 481 l 1
 668 666 l 1
 59 1049 l 1
 59 842 l 1
666 842 m 1
 1113 577 l 1
 666 306 l 1
 666 99 l 1
 1275 481 l 1
 1275 666 l 1
 666 1049 l 1
 666 842 l 1
EndSplineSet
EndChar

StartChar: onequarter
Encoding: 125 188 126
Width: 1442
VWidth: 0
GlyphClass: 2
<<<<<<< HEAD
Flags: MW
=======
Flags: W
HStem: 34 110<784 1172 1317 1468>
VStem: 158 160<568 1413> 1172 145<-227 34 145 703>
DStem2: 20 -30 140 -123 0.598068 0.801445<0 1737.84> 188 1529 158 1413 0.928746 0.370718<-255.444 -70.8656> 625 144 784 144 0.575241 0.817984<91.4633 771.91>
>>>>>>> updates
LayerCount: 2
Fore
SplineSet
1189 946 m 1
 1317 915 l 1
 1317 145 l 1
 1468 145 l 1
 1468 34 l 1
 1317 34 l 1
 1317 -227 l 1
 1172 -250 l 1
 1172 34 l 1
 647 34 l 1
 625 144 l 1
 1189 946 l 1
784 144 m 1
 1172 144 l 1
 1172 703 l 1
 1049 513 919 326 784 144 c 1
158 568 m 1
 158 1413 l 1
 -12 1341 l 1
 -50 1434 l 1
 188 1529 l 1
 318 1503 l 1
 318 568 l 1
 158 568 l 1
20 -30 m 1
 1059 1365 l 1
 1181 1272 l 1
 140 -123 l 1
 20 -30 l 1
EndSplineSet
EndChar

StartChar: onehalf
Encoding: 126 189 127
Width: 1638
VWidth: 0
GlyphClass: 2
<<<<<<< HEAD
Flags: MW
=======
Flags: W
HStem: -172 152<1192 1598> 603 145<977 1122> 655 143<1003.79 1411.32>
VStem: 158 160<568 1413> 1454 172<394.64 610.3>
DStem2: 20 -30 140 -123 0.598068 0.801445<0 1737.84> 188 1529 158 1413 0.928746 0.370718<-255.444 -70.8656>
>>>>>>> updates
LayerCount: 2
Fore
SplineSet
1192 -20 m 1
 1598 -20 l 1
 1598 -172 l 1
 960 -172 l 1
 960 -35 l 1
 1060 54 1454 337 1454 514 c 0
 1454 620 1355 655 1265 655 c 0
 1169 655 1069 628 977 603 c 1
 977 748 l 1
 1074 785 1180 798 1283 798 c 0
 1458 798 1626 711 1626 517 c 0
 1626 289 1343 108 1192 -20 c 1
20 -30 m 1
 1059 1365 l 1
 1181 1272 l 1
 140 -123 l 1
 20 -30 l 1
158 568 m 1
 158 1413 l 1
 -12 1341 l 1
 -50 1434 l 1
 188 1529 l 1
 318 1503 l 1
 318 568 l 1
 158 568 l 1
EndSplineSet
EndChar

StartChar: threequarters
Encoding: 127 190 128
Width: 1758
VWidth: 0
GlyphClass: 2
<<<<<<< HEAD
Flags: MW
=======
Flags: W
HStem: 34 110<1101 1489 1634 1785> 540 132<102.228 468.08> 1541 136<91.0377 467.504>
VStem: 521 154<1276.11 1489.32> 540 166<743.034 978.393> 1489 145<-227 34 145 703>
DStem2: 337 -30 457 -123 0.598068 0.801445<0 1734.03> 942 144 1101 144 0.575241 0.817984<91.4633 771.91>
>>>>>>> updates
LayerCount: 2
Fore
SplineSet
1506 946 m 1
 1634 915 l 1
 1634 145 l 1
 1785 145 l 1
 1785 34 l 1
 1634 34 l 1
 1634 -227 l 1
 1489 -250 l 1
 1489 34 l 1
 964 34 l 1
 942 144 l 1
 1506 946 l 1
521 1383 m 0
 521 1511 404 1541 297 1541 c 0
 217 1541 135 1520 63 1484 c 1
 16 1611 l 1
 99 1652 210 1677 302 1677 c 0
 479 1677 675 1601 675 1394 c 0
 675 1263 564 1143 430 1142 c 1
 589 1111 706 1006 706 835 c 0
 706 628 495 540 317 540 c 0
 203 540 90 566 -11 618 c 1
 40 745 l 1
 127 701 222 672 320 672 c 0
 428 672 540 733 540 853 c 0
 540 1005 409 1057 278 1072 c 1
 278 1207 l 1
 385 1207 521 1255 521 1383 c 0
337 -30 m 1
 1367 1365 l 1
 1498 1272 l 1
 457 -123 l 1
 337 -30 l 1
1101 144 m 1
 1489 144 l 1
 1489 703 l 1
 1373 510 1235 325 1101 144 c 1
EndSplineSet
EndChar

StartChar: questiondown
Encoding: 128 191 129
Width: 862
VWidth: 0
GlyphClass: 2
<<<<<<< HEAD
Flags: MW
=======
Flags: W
HStem: -114 161<291.306 762.477> 1153 20G<551 731> 1296 209<565.001 732.499>
VStem: 17 191<127.718 411.752> 545 209<1316.4 1485.49> 551 180<776.7 1173>
>>>>>>> updates
LayerCount: 2
Fore
SplineSet
551 790 m 1
 551 1173 l 1
 731 1173 l 1
 731 688 l 1
 541 622 208 518 208 268 c 0
 208 71 354 47 519 47 c 0
 622 47 758 77 847 133 c 1
 906 -10 l 1
 796 -77 626 -114 500 -114 c 0
 259 -114 17 -34 17 249 c 0
 17 573 289 697 551 790 c 1
650 1505 m 0
 710 1505 754 1453 754 1395 c 0
 754 1338 700 1296 646 1296 c 0
 590 1296 545 1346 545 1401 c 0
 545 1458 593 1505 650 1505 c 0
EndSplineSet
EndChar

StartChar: AE
Encoding: 135 198 136
Width: 1805
VWidth: 0
GlyphClass: 2
<<<<<<< HEAD
Flags: MW
=======
Flags: W
HStem: 0 143<1095 1769> 371 122<438 928> 764 127<1095 1698> 1436 143<1093 1741>
VStem: 928 167<143 371 493 764 891 1436>
DStem2: -23 0 186 0 0.463525 0.886084<96.8766 514.611 650.524 650.524>
>>>>>>> updates
LayerCount: 2
Fore
SplineSet
1769 0 m 1
 930 0 l 1
 930 371 l 1
 378 371 l 1
 186 0 l 1
 -23 0 l 1
 803 1579 l 1
 1741 1579 l 1
 1741 1436 l 1
 1093 1436 l 1
 1093 891 l 1
 1698 891 l 1
 1698 764 l 1
 1095 764 l 1
 1095 143 l 1
 1769 143 l 1
 1769 0 l 1
928 1459 m 1
 438 493 l 1
 928 493 l 1
 928 1459 l 1
EndSplineSet
EndChar

StartChar: Eth
Encoding: 145 208 146
Width: 1448
VWidth: 0
GlyphClass: 2
<<<<<<< HEAD
Flags: MW
=======
Flags: W
HStem: 0 143<366 933.759> 764 131<10 172 366 600> 1436 143<366 932.758>
VStem: 172 194<143 764 895 1436> 1183 201<441.069 1134.41>
>>>>>>> updates
LayerCount: 2
Fore
SplineSet
725 1579 m 2
 1218 1579 1384 1231 1384 788 c 0
 1384 338 1221 0 725 0 c 2
 172 0 l 1
 172 764 l 1
 10 764 l 1
 10 895 l 1
 172 895 l 1
 172 1579 l 1
 725 1579 l 2
600 764 m 1
 366 764 l 1
 366 143 l 1
 725 143 l 2
 1118 143 1183 465 1183 789 c 0
 1183 1111 1114 1436 725 1436 c 2
 366 1436 l 1
 366 895 l 1
 600 895 l 1
 600 764 l 1
EndSplineSet
EndChar

StartChar: multiply
Encoding: 152 215 153
Width: 901
VWidth: 0
GlyphClass: 2
<<<<<<< HEAD
Flags: MW
=======
Flags: W
HStem: 444 204<341 545>
VStem: 341 204<444 648>
DStem2: 126 965 24 863 0.707107 -0.707107<0 448.306 592.555 1040.86> 24 229 126 127 0.707107 0.707107<0 448.306 592.555 1040.86>
>>>>>>> updates
LayerCount: 2
Fore
SplineSet
24 863 m 1
 126 965 l 1
 443 648 l 1
 760 965 l 1
 862 863 l 1
 545 546 l 1
 862 229 l 1
 760 127 l 1
 443 444 l 1
 126 127 l 1
 24 229 l 1
 341 546 l 1
 24 863 l 1
EndSplineSet
EndChar

StartChar: Oslash
Encoding: 153 216 154
Width: 1431
VWidth: 0
GlyphClass: 2
<<<<<<< HEAD
Flags: MW
=======
Flags: W
HStem: -41 152<519.17 904.932> 1458 152<509.523 917.388>
VStem: 54 201<425.584 1133.63> 1164 201<426.546 1149.2>
DStem2: 280 -113 381 -159 0.411547 0.911389<0 177.688 353.553 1608.18 1812.13 2000.99>
>>>>>>> updates
LayerCount: 2
Fore
SplineSet
1365 784 m 0
 1365 345 1210 -41 709 -41 c 0
 622 -41 535 -30 453 0 c 1
 381 -159 l 1
 280 -113 l 1
 353 49 l 1
 104 215 54 503 54 784 c 0
 54 1214 210 1610 695 1610 c 0
 809 1610 925 1592 1027 1538 c 1
 1105 1710 l 1
 1206 1668 l 1
 1120 1477 l 1
 1319 1317 1365 1024 1365 784 c 0
710 1458 m 0
 318 1458 255 1101 255 784 c 0
 255 592 277 348 426 209 c 1
 960 1390 l 1
 887 1439 797 1458 710 1458 c 0
1164 784 m 0
 1164 953 1146 1167 1043 1307 c 1
 519 147 l 1
 521 147 l 1
 581 121 645 111 710 111 c 0
 1100 111 1164 470 1164 784 c 0
EndSplineSet
EndChar

StartChar: Thorn
Encoding: 159 222 160
Width: 1254
VWidth: 0
GlyphClass: 2
<<<<<<< HEAD
Flags: MW
=======
Flags: W
HStem: 0 21G<123 317> 504 145<317 851.198> 1300 145<317 874.753> 1559 20G<123 317>
VStem: 123 194<0 504 649 1300 1444 1579> 1030 182<803.401 1155.18>
>>>>>>> updates
LayerCount: 2
Fore
SplineSet
1212 973 m 0
 1212 523 762 504 412 504 c 0
 379 504 348 504 317 504 c 1
 317 0 l 1
 123 0 l 1
 123 1579 l 1
 317 1579 l 1
 317 1444 l 1
 376 1444 437 1445 500 1445 c 0
 845 1445 1212 1411 1212 973 c 0
479 649 m 2
 713 649 1030 655 1030 959 c 0
 1030 1289 807 1300 526 1300 c 2
 317 1300 l 1
 317 649 l 1
 479 649 l 2
EndSplineSet
EndChar

StartChar: germandbls
Encoding: 160 223 161
Width: 1303
VWidth: 0
GlyphClass: 2
<<<<<<< HEAD
Flags: MW
=======
Flags: W
HStem: -129 156<481 841.86> -6 21G<110.981 287.364> 774 129<449 774.464> 1436 143<411.859 804.789>
VStem: 111 194<16 1324.31> 901 172<1022.46 1343.15> 1073 182<227.709 596.326>
>>>>>>> updates
LayerCount: 2
Fore
SplineSet
901 1200 m 0
 901 1399 748 1436 580 1436 c 0
 306 1436 305 1240 305 1018 c 2
 305 16 l 1
 111 -6 l 1
 110 1046 l 2
 110 1381 221 1579 580 1579 c 0
 856 1579 1073 1484 1073 1176 c 0
 1073 1015 1002 864 827 844 c 1
 1100 844 1255 661 1255 395 c 0
 1255 -37 831 -129 481 -129 c 1
 481 27 l 1
 797 27 1073 62 1073 432 c 0
 1073 759 690 774 449 774 c 1
 449 905 l 1
 478 904 507 903 535 903 c 0
 737 903 901 949 901 1200 c 0
EndSplineSet
EndChar

StartChar: ae
Encoding: 167 230 168
Width: 1802
VWidth: 0
GlyphClass: 2
<<<<<<< HEAD
Flags: MW
=======
Flags: W
HStem: -23 142<303.58 637.657 1148.64 1497.81> 567 115<976 1576> 590 125<324.247 770.861> 1047 143<306.129 711.581 1111.39 1470.1>
VStem: 38 191<190.88 502.903> 786 190<302.884 567 682 894.695> 1576 168<682 920.172>
>>>>>>> updates
LayerCount: 2
Fore
SplineSet
786 665 m 1
 786 713 l 2
 786 924 775 1047 534 1047 c 0
 424 1047 261 1001 171 935 c 1
 104 1057 l 1
 196 1135 405 1190 524 1190 c 0
 697 1190 851 1154 906 970 c 1
 979 1121 1140 1190 1301 1190 c 0
 1608 1190 1744 958 1744 676 c 0
 1744 640 1741 603 1736 567 c 1
 976 567 l 1
 976 322 1041 127 1322 127 c 0
 1436 127 1542 170 1628 244 c 1
 1690 99 l 1
 1596 30 1427 -23 1310 -23 c 0
 1129 -23 969 45 877 207 c 1
 773 68 604 -23 430 -23 c 0
 191 -23 38 95 38 343 c 0
 38 603 246 715 482 715 c 0
 568 715 706 698 786 665 c 1
477 119 m 0
 596 119 702 193 786 271 c 1
 786 569 l 1
 708 582 630 590 551 590 c 0
 379 590 229 556 229 356 c 0
 229 183 309 119 477 119 c 0
1576 717 m 2
 1576 902 1506 1057 1302 1057 c 0
 1075 1057 976 896 976 682 c 1
 1576 682 l 1
 1576 717 l 2
EndSplineSet
EndChar

StartChar: eth
Encoding: 176 240 177
Width: 1131
VWidth: 0
GlyphClass: 2
<<<<<<< HEAD
Flags: MW
=======
Flags: W
HStem: -20 143<364.441 694.023> 1047 143<366.55 696.941> 1573 20G<955.706 1032.33>
VStem: 34 182<305.994 863.473> 867 184<343.93 868.164>
DStem2: 375 1401 417 1311 0.958798 0.284088<14.7016 211.681 419.385 675.846>
>>>>>>> updates
LayerCount: 2
Fore
SplineSet
1051 690 m 0
 1051 324 944 -20 518 -20 c 0
 168 -20 34 275 34 584 c 0
 34 870 164 1190 496 1190 c 0
 622 1190 780 1129 861 1028 c 1
 818 1158 741 1277 652 1380 c 1
 417 1311 l 1
 375 1401 l 1
 578 1461 l 1
 511 1528 438 1590 357 1641 c 1
 441 1743 l 1
 556 1679 644 1599 737 1508 c 1
 1023 1593 l 1
 1065 1503 l 1
 805 1426 l 1
 971 1200 1051 973 1051 690 c 0
867 666 m 0
 867 869 759 1047 540 1047 c 0
 265 1047 216 822 216 587 c 0
 216 384 258 123 514 123 c 0
 829 123 867 412 867 666 c 0
EndSplineSet
EndChar

StartChar: divide
Encoding: 183 247 184
Width: 724
VWidth: 0
GlyphClass: 2
<<<<<<< HEAD
Flags: MW
=======
Flags: W
HStem: 215 230<257.535 432.618> 508 131<9 691> 700 230<259.535 434.618>
VStem: 234 220<238.291 421.709 724.995 905.005>
>>>>>>> updates
LayerCount: 2
Fore
SplineSet
691 508 m 1
 9 508 l 1
 9 639 l 1
 691 639 l 1
 691 508 l 1
348 930 m 0
 413 930 456 877 456 815 c 0
 456 753 413 700 348 700 c 0
 284 700 236 752 236 815 c 0
 236 877 285 930 348 930 c 0
346 445 m 0
 411 445 454 392 454 330 c 0
 454 268 411 215 346 215 c 0
 282 215 234 267 234 330 c 0
 234 392 283 445 346 445 c 0
EndSplineSet
EndChar

StartChar: oslash
Encoding: 184 248 185
Width: 1161
VWidth: 0
GlyphClass: 2
<<<<<<< HEAD
Flags: MW
=======
Flags: W
HStem: -20 137<461.514 734.223> 1051 139<396.204 674.371>
VStem: 35 182<317.741 842.405> 913 183<321.979 846.618>
DStem2: 261 -168 349 -198 0.3262 0.945301<0.346549 211.969 356.406 1261.47 1411.94 1619.77>
>>>>>>> updates
LayerCount: 2
Fore
SplineSet
261 -168 m 1
 328 28 l 1
 112 131 35 357 35 582 c 0
 35 914 205 1190 565 1190 c 0
 618 1190 672 1184 723 1170 c 1
 790 1365 l 1
 871 1335 l 1
 804 1140 l 1
 1017 1032 1096 809 1096 582 c 0
 1096 247 926 -20 565 -20 c 0
 515 -20 464 -15 415 -2 c 1
 349 -198 l 1
 261 -168 l 1
217 582 m 0
 217 434 246 259 377 169 c 1
 676 1035 l 1
 640 1047 602 1051 565 1051 c 0
 294 1051 217 812 217 582 c 0
565 117 m 0
 837 117 913 351 913 582 c 0
 913 729 884 905 755 996 c 1
 460 130 l 1
 494 120 530 117 565 117 c 0
EndSplineSet
EndChar

StartChar: thorn
Encoding: 190 254 191
Width: 1361
GlyphClass: 2
<<<<<<< HEAD
Flags: HMW
=======
Flags: W
HStem: -487 21G<129 298.091> -20 143<460.364 816.297> 1047 143<492.25 818.084>
VStem: 129 209<311.184 928.133> 129 186<-465 117 217.554 590.481 1004 1565> 961 182<297.269 858.342>
>>>>>>> updates
LayerCount: 2
Fore
SplineSet
1143 584 m 0xec
 1143 257 1001 -20 674 -20 c 0
 508 -20 388 26 315 117 c 1
 315 -465 l 1
 129 -487 l 1
 129 1565 l 1
 313 1565 l 1
 313 1004 l 1
 388 1097 514 1190 674 1190 c 0
 1005 1190 1143 914 1143 584 c 0xec
961 543 m 0
 961 787 916 1047 674 1047 c 0
 525 1047 411 963 338 890 c 1xf4
 322 244 l 1
 397 180 545 123 682 123 c 0
 887 123 961 339 961 543 c 0
EndSplineSet
EndChar

StartChar: OE
Encoding: 192 338 193
Width: 2269
GlyphClass: 2
<<<<<<< HEAD
Flags: MW
LayerCount: 2
Fore
SplineSet
2215 0 m 1
 1232 0 l 1
 1232 169 l 1
 1135 37 988 -41 778 -41 c 0
 300 -41 124 301 124 784 c 0
 124 1260 298 1610 764 1610 c 0
=======
Flags: W
HStem: -41 152<577.132 983.693> 0 143<1426 2215> 776 115<1426 2104> 1436 143<1426 2202> 1458 152<580.543 989.768>
VStem: 124 200<426.258 1148.51> 1232 194<143 169 413.234 776 891 1159.64 1397 1436>
LayerCount: 2
Fore
SplineSet
2215 0 m 1x76
 1232 0 l 1x76
 1232 169 l 1
 1135 37 988 -41 778 -41 c 0
 300 -41 124 301 124 784 c 0
 124 1260 298 1610 764 1610 c 0xae
>>>>>>> updates
 982 1610 1133 1532 1232 1397 c 1
 1232 1579 l 1
 2202 1579 l 1
 2202 1436 l 1
 1426 1436 l 1
 1426 891 l 1
 2104 891 l 1
 2104 776 l 1
 1426 776 l 1
 1426 143 l 1
 2215 143 l 1
<<<<<<< HEAD
 2215 0 l 1
1232 878 m 1
 1217 1210 1115 1458 780 1458 c 0
 412 1458 324 1154 324 784 c 0
 324 409 417 111 780 111 c 0
=======
 2215 0 l 1x76
1232 878 m 1
 1217 1210 1115 1458 780 1458 c 0
 412 1458 324 1154 324 784 c 0
 324 409 417 111 780 111 c 0xae
>>>>>>> updates
 1115 111 1217 367 1232 692 c 1
 1232 878 l 1
EndSplineSet
EndChar

StartChar: oe
Encoding: 193 339 194
Width: 2041
GlyphClass: 2
<<<<<<< HEAD
Flags: MW
=======
Flags: W
HStem: -20 137<486.478 829.736 1371.6 1712.75> 567 115<1194 1794> 1051 139<486.831 829.858 1333.53 1684.23>
VStem: 126 182<322.809 841.912> 1004 190<320.613 567 682 844.446> 1794 168<682 926.968>
>>>>>>> updates
LayerCount: 2
Fore
SplineSet
656 -20 m 0
 301 -20 126 228 126 582 c 0
 126 935 303 1190 656 1190 c 0
 863 1190 1009 1104 1095 961 c 1
 1179 1103 1320 1190 1519 1190 c 0
 1814 1190 1962 976 1962 676 c 0
 1962 644 1959 608 1954 567 c 1
 1194 567 l 1
 1194 301 1273 127 1540 127 c 0
 1653 127 1755 166 1846 244 c 1
 1908 99 l 1
 1827 40 1657 -23 1528 -23 c 0
 1324 -23 1179 62 1094 204 c 1
 1008 64 862 -20 656 -20 c 0
656 117 m 0
 915 117 1004 322 1004 582 c 0
 1004 842 914 1051 656 1051 c 0
 397 1051 308 841 308 582 c 0
 308 322 397 117 656 117 c 0
1794 717 m 2
 1794 920 1717 1057 1520 1057 c 0
 1299 1057 1194 908 1194 682 c 1
 1794 682 l 1
 1794 717 l 2
EndSplineSet
EndChar

StartChar: circumflex
Encoding: 199 710 200
Width: 1428
GlyphClass: 2
<<<<<<< HEAD
Flags: MW
=======
Flags: W
HStem: 809 202<565 863>
VStem: 374 680
DStem2: 374 510 502 432 0.503549 0.863966<0 429.533> 762 1011 714 809 0.503549 -0.863966<150.351 579.884>
>>>>>>> updates
LayerCount: 2
Fore
SplineSet
714 809 m 1
 502 432 l 1
 374 510 l 1
 666 1011 l 1
 762 1011 l 1
 1054 510 l 1
 926 432 l 1
 714 809 l 1
EndSplineSet
EndChar

StartChar: caron
Encoding: 200 711 201
Width: 1428
GlyphClass: 2
<<<<<<< HEAD
Flags: MW
=======
Flags: W
HStem: 431 202<565 863>
VStem: 374 680
DStem2: 502 1010 374 932 0.503549 -0.863966<2.93507 432.468> 714 633 762 431 0.503549 0.863966<0 429.533>
>>>>>>> updates
LayerCount: 2
Fore
SplineSet
714 633 m 1
 926 1010 l 1
 1054 932 l 1
 762 431 l 1
 666 431 l 1
 374 932 l 1
 502 1010 l 1
 714 633 l 1
EndSplineSet
EndChar

StartChar: ring
Encoding: 201 730 202
Width: 1707
GlyphClass: 2
<<<<<<< HEAD
Flags: MW
=======
Flags: W
HStem: 1035 91<749.606 958.207> 1424 91<749.606 958.207>
VStem: 612 97<1166.06 1383.94> 999 97<1166.06 1383.94>
>>>>>>> updates
LayerCount: 2
Fore
SplineSet
854 1035 m 256
 710 1035 612 1131 612 1275 c 256
 612 1419 710 1515 854 1515 c 256
 998 1515 1096 1419 1096 1275 c 256
 1096 1131 998 1035 854 1035 c 256
854 1126 m 0
 939 1126 999 1190 999 1275 c 256
 999 1360 939 1424 854 1424 c 0
 768 1424 709 1360 709 1275 c 256
 709 1190 768 1126 854 1126 c 0
EndSplineSet
EndChar

StartChar: tilde
Encoding: 202 732 203
Width: 1707
GlyphClass: 2
<<<<<<< HEAD
Flags: MW
=======
Flags: W
HStem: 1035 139<883.808 1064.84> 1154 145<634.835 817.193>
VStem: 471 156<1039 1152.25> 1075 156<1177.52 1285>
>>>>>>> updates
LayerCount: 2
Fore
SplineSet
1231 1285 m 1xb0
 1231 1149 1172 1035 1039 1035 c 0xb0
 891 1035 808 1154 686 1154 c 0
 634 1154 627 1104 627 1039 c 1
 471 1039 l 1
 471 1212 538 1299 672 1299 c 0x70
 823 1299 883 1174 1016 1174 c 0
 1055 1174 1075 1211 1075 1285 c 1
 1231 1285 l 1xb0
EndSplineSet
EndChar

StartChar: acutecomb
Encoding: 203 769 204
Width: 1097
GlyphClass: 2
<<<<<<< HEAD
Flags: MW
=======
Flags: W
HStem: 1639 637
VStem: 489 391
>>>>>>> updates
LayerCount: 2
Fore
SplineSet
546 1639 m 1
 489 1665 l 1
 648 2276 l 1
 880 2185 l 1
 546 1639 l 1
EndSplineSet
EndChar

StartChar: uni0306
Encoding: 204 774 205
Width: 780
GlyphClass: 2
<<<<<<< HEAD
Flags: MW
=======
Flags: W
HStem: 1399 110<272.296 497.157>
VStem: 123 117<1543.81 1638> 526 117<1538.82 1638>
>>>>>>> updates
LayerCount: 2
Fore
SplineSet
385 1509 m 256
 470 1509 526 1555 526 1638 c 1
 643 1638 l 1
 643 1478 553 1399 385 1399 c 0
 221 1399 123 1476 123 1638 c 1
 240 1638 l 1
 240 1555 301 1509 385 1509 c 256
EndSplineSet
EndChar

StartChar: uni0E81
Encoding: 205 3713 206
Width: 1510
VWidth: 2211
GlyphClass: 2
<<<<<<< HEAD
Flags: MW
=======
Flags: W
HStem: 0 102<227.637 386.599> 306 90<233.01 409.124> 306 74<293.783 411> 808 100<222.672 409.592> 1086 106<220.573 390.237 776.157 1130.64>
VStem: 81 133<114.877 288.609 917.753 1077.85> 411 171<130.28 306 380 827 917.865 947.261> 1215 171<0 986.331>
>>>>>>> updates
AnchorPoint: "top" 960 1287 mark 0
LayerCount: 2
Back
SplineSet
377 166 m 256
 377 178 374.666666667 189.333333333 370 200 c 128
 365.333333333 210.666666667 359 220 351 228 c 128
 343 236 333.666666667 242.333333333 323 247 c 128
 312.333333333 251.666666667 301 254 289 254 c 256
 277 254 265.666666667 251.666666667 255 247 c 128
 244.333333333 242.333333333 235 236 227 228 c 128
 219 220 212.666666667 210.666666667 208 200 c 128
 203.333333333 189.333333333 201 178 201 166 c 0
 201 141.333333333 209.5 120.5 226.5 103.5 c 128
 243.5 86.5 264.333333333 78 289 78 c 0
 301 78 312.333333333 80.3333333333 323 85 c 128
 333.666666667 89.6666666667 343 96 351 104 c 128
 359 112 365.333333333 121.333333333 370 132 c 128
 374.666666667 142.666666667 377 154 377 166 c 256
377 904 m 1
 377 916.666666667 375.666666667 931 373 947 c 128
 370.333333333 963 365.666666667 978 359 992 c 128
 352.333333333 1006 343.333333333 1017.66666667 332 1027 c 128
 320.666666667 1036.33333333 306.666666667 1041 290 1041 c 0
 278.666666667 1041 267.833333333 1039.5 257.5 1036.5 c 128
 247.166666667 1033.5 237.666666667 1029 229 1023 c 128
 220.333333333 1017 213.5 1009.33333333 208.5 1000 c 128
 203.5 990.666666667 201 980 201 968 c 0
 201 942.666666667 210 923.666666667 228 911 c 128
 246 898.333333333 266.666666667 892 290 892 c 0
 303.333333333 892 317.833333333 892.666666667 333.5 894 c 128
 349.166666667 895.333333333 363.666666667 898.666666667 377 904 c 1
1252 166 m 2
 1252 144.666666667 1251 126.333333333 1249 111 c 128
 1247 95.6666666667 1244 81.6666666667 1240 69 c 128
 1236 56.3333333333 1231.16666667 44.5 1225.5 33.5 c 128
 1219.83333333 22.5 1213.33333333 11.3333333333 1206 0 c 1
 1051 0 l 1
 1057.66666667 10.6666666667 1064.83333333 21.5 1072.5 32.5 c 128
 1080.16666667 43.5 1087.33333333 55.5 1094 68.5 c 128
 1100.66666667 81.5 1106.16666667 95.8333333333 1110.5 111.5 c 128
 1114.83333333 127.166666667 1117 145.333333333 1117 166 c 2
 1117 841 l 2
 1117 871 1108.66666667 896.666666667 1092 918 c 128
 1075.33333333 939.333333333 1054.33333333 956.5 1029 969.5 c 128
 1003.66666667 982.5 976.333333333 992 947 998 c 128
 917.666666667 1004 890.666666667 1007 866 1007 c 0
 836.666666667 1007 805.5 1002.33333333 772.5 993 c 128
 739.5 983.666666667 707 971.333333333 675 956 c 128
 643 940.666666667 612.833333333 923.166666667 584.5 903.5 c 128
 556.166666667 883.833333333 532 863.666666667 512 843 c 1
 512 166 l 2
 512 136.666666667 505.666666667 110.5 493 87.5 c 128
 480.333333333 64.5 463.666666667 45 443 29 c 128
 422.333333333 13 398.5 0.833333333333 371.5 -7.5 c 128
 344.5 -15.8333333333 317 -20 289 -20 c 0
 232.333333333 -20 187.333333333 -3.16666666667 154 30.5 c 128
 120.666666667 64.1666666667 104 109.333333333 104 166 c 0
 104 194 109.166666667 219.5 119.5 242.5 c 128
 129.833333333 265.5 143.5 285.166666667 160.5 301.5 c 128
 177.5 317.833333333 197.166666667 330.333333333 219.5 339 c 128
 241.833333333 347.666666667 265 352 289 352 c 0
 301.666666667 352 316.666666667 350.666666667 334 348 c 128
 351.333333333 345.333333333 365.666666667 342 377 338 c 1
 377 785 l 1
 365.666666667 783.666666667 351.333333333 782.333333333 334 781 c 128
 316.666666667 779.666666667 302 779 290 779 c 0
 233.333333333 779 188.166666667 794.333333333 154.5 825 c 128
 120.833333333 855.666666667 104 901.333333333 104 962 c 0
 104 1020 120.833333333 1064.16666667 154.5 1094.5 c 128
 188.166666667 1124.83333333 233.333333333 1140 290 1140 c 0
 314.666666667 1140 338.833333333 1136.33333333 362.5 1129 c 128
 386.166666667 1121.66666667 407.833333333 1111.16666667 427.5 1097.5 c 128
 447.166666667 1083.83333333 464.166666667 1067 478.5 1047 c 128
 492.833333333 1027 502.666666667 1004.66666667 508 980 c 1
 526.666666667 1002.66666667 549.666666667 1023.83333333 577 1043.5 c 128
 604.333333333 1063.16666667 633.5 1080.16666667 664.5 1094.5 c 128
 695.5 1108.83333333 727.333333333 1120 760 1128 c 128
 792.666666667 1136 824 1140 854 1140 c 0
 873.333333333 1140 896.666666667 1137.83333333 924 1133.5 c 128
 951.333333333 1129.16666667 979.666666667 1122.83333333 1009 1114.5 c 128
 1038.33333333 1106.16666667 1067.5 1095.66666667 1096.5 1083 c 128
 1125.5 1070.33333333 1151.5 1055.5 1174.5 1038.5 c 128
 1197.5 1021.5 1216.16666667 1002.5 1230.5 981.5 c 128
 1244.83333333 960.5 1252 937.333333333 1252 912 c 2
 1252 166 l 2
EndSplineSet
Fore
SplineSet
559 1028 m 1xbf
 668 1100 783 1192 959 1192 c 0
 1284 1192 1386 1035 1386 711 c 2
 1386 0 l 1
 1215 0 l 1
 1215 768 l 2
 1215 983 1169 1086 953 1086 c 0
 800 1086 676 987 582 916 c 1
 582 361 l 2
 582 159 518 0 314 0 c 0
 174 0 81 56 81 197 c 0
 81 319 172 393 292 396 c 0xdf
 330 396 371 384 411 380 c 1
 411 827 l 1
 382 817 350 808 311 808 c 0
 175 808 80 864 80 1001 c 0
 80 1130 178 1192 307 1192 c 0
 443 1192 522 1131 559 1028 c 1xbf
411 936 m 1
 411 1013 393 1090 315 1090 c 0
 256 1090 212 1064 212 1005 c 0
 212 942 245 908 307 908 c 0
 348 908 380 921 411 936 c 1
214 197 m 0
 214 139 249 102 307 102 c 0
 399 102 411 182 411 273 c 2
 411 306 l 1xbf
 332 306 l 2
 253 306 214 269 214 197 c 0
EndSplineSet
EndChar

StartChar: uni0E82
Encoding: 206 3714 207
Width: 1327
VWidth: 2211
GlyphClass: 2
<<<<<<< HEAD
Flags: MW
=======
Flags: W
HStem: 0 133<275.397 499.969> 238 135<833.144 1032.98> 617 93<261.357 436.556> 919 93<313.751 432.506> 1088 102<373.754 926.577>
VStem: 94 169<143.235 324.199> 109 126<734.056 918.357> 450 131<721.553 901.317> 1042 168<0 232.035 754.528 990.717>
DStem2: 388 495 382 362 0.93511 0.354357<-189.858 685.212> 572 210 519 53 0.909065 0.416655<-223.625 367.962>
>>>>>>> updates
LayerCount: 2
Fore
SplineSet
1020 373 m 1xfd80
 1151 370 1210 285 1210 152 c 2
 1210 0 l 1
 1042 0 l 1
 1042 151 l 2
 1042 200 1017 238 966 238 c 0
 922 238 884 222 855 207 c 1
 519 53 l 2
 457 25 398 0 326 0 c 0
 193 0 94 85 94 218 c 0xfd80
 94 397 255 447 388 495 c 1
 629 583 l 2
 781 639 1039 673 1039 872 c 0
 1039 1062 839 1088 650 1088 c 0
 496 1088 383 1062 313 1009 c 1
 329 1011 346 1012 363 1012 c 0
 496 1012 581 941 581 808 c 256
 581 675 482 617 350 617 c 0
 190 617 109 701 109 861 c 0xfb80
 109 1122 387 1190 649 1190 c 0
 923 1190 1211 1142 1211 868 c 0
 1211 663 1007 598 857 542 c 2
 382 362 l 2
 319 337 263 312 263 227 c 0
 263 165 298 133 358 133 c 0
 428 133 500 177 572 210 c 2
 820 323 l 2
 886 353 944 369 1020 373 c 1xfd80
356 710 m 0
 422 710 450 754 450 820 c 0
 450 903 386 919 304 919 c 2
 245 919 l 1
 239 898 235 877 235 856 c 0xfb80
 235 767 272 710 356 710 c 0
EndSplineSet
EndChar

StartChar: uni0E84
Encoding: 207 3716 208
Width: 1282
VWidth: 2211
GlyphClass: 2
<<<<<<< HEAD
Flags: MW
=======
Flags: W
HStem: 0 103<303.387 455.558> 306 89<274.031 453.248> 306 74<273 391.975> 590 121<388.78 601> 650 61<353 387> 1085 107<370.94 867.261>
VStem: 107 166<132.896 306 380 507.246 770.621 1002.03> 469 133<113.455 288.991> 1014 172<0 941.11>
>>>>>>> updates
LayerCount: 2
Fore
SplineSet
636 1085 m 0xcf80
 472 1085 272 1058 272 894 c 0
 272 781 353 711 466 711 c 2
 601 711 l 1
 601 590 l 1
 466 590 l 2
 341 590 282 509 273 389 c 1
 273 380 l 1xb780
 339 391 l 2
 358 394 371 395 393 395 c 0
 517 395 602 331 602 206 c 0
 602 63 511 0 368 0 c 0
 190 0 107 150 107 327 c 0
 107 519 216 626 387 650 c 1
 236 653 107 736 107 890 c 0
 107 1139 384 1192 636 1192 c 0
 1004 1192 1186 1079 1186 711 c 2
 1186 0 l 1
 1014 0 l 1
 1014 706 l 2
 1014 985 914 1085 636 1085 c 0xcf80
374 103 m 0
 439 103 469 139 469 207 c 0
 469 285 416 306 339 306 c 2xc780
 273 306 l 1
 273 284 l 1
 275 163 308 103 374 103 c 0
EndSplineSet
EndChar

StartChar: uni0E87
Encoding: 208 3719 209
Width: 1072
VWidth: 2211
GlyphClass: 2
<<<<<<< HEAD
Flags: MW
=======
Flags: W
HStem: -462 108<287.12 680.199> 795 92<190.928 353.621> 1089 103<204.952 367 457 679.547>
VStem: 44 134<898.984 1056.68> 66 130<-267.565 -129> 367 119<898.951 1086.34> 825 168<-175.021 906.578>
>>>>>>> updates
LayerCount: 2
Fore
SplineSet
993 144 m 2xf6
 993 -239 872 -462 490 -462 c 0
 232 -462 66 -373 66 -129 c 1
 196 -129 l 1xee
 199 -297 315 -354 486 -354 c 0
 786 -354 825 -157 825 141 c 2
 825 646 l 2
 825 920 763 1089 490 1089 c 2
 457 1089 l 1
 476 1032 486 992 486 971 c 0
 483 845 398 795 269 795 c 0
 148 795 44 858 44 980 c 0
 44 1161 261 1192 442 1192 c 0
 801 1192 993 1006 993 651 c 2
 993 144 l 2xf6
178 983 m 0xf6
 178 919 212 887 278 887 c 0
 344 887 367 931 367 998 c 2
 367 1089 l 1
 282 1086 178 1073 178 983 c 0xf6
EndSplineSet
EndChar

StartChar: uni0E88
Encoding: 209 3720 210
Width: 1369
VWidth: 2211
GlyphClass: 2
<<<<<<< HEAD
Flags: MW
=======
Flags: W
HStem: 473 90<521.589 704> 782 95<521.176 681.654> 1085 107<394.548 930.166>
VStem: 34 153<732 909.815> 372 133<583.593 766.464> 703 161<329.993 486 563.189 763.621> 1087 170<69 923.266>
>>>>>>> updates
LayerCount: 2
Fore
SplineSet
606 769 m 0
 539 769 505 732.845454545 505 672 c 0
 505 587.461870262 556.218192414 562.978220016 644.39266628 562.978220016 c 0
 645.917417792 562.978220016 647.453220282 562.985541322 649 563 c 2
 756 564 l 1
 718.474528764 623.176666215 679.344592589 769 606 769 c 0
34 780 m 0
 34 1088 357 1192 665 1192 c 0
 1064 1192 1257 1071 1257 676 c 2
 1257 64 l 2
 1257 -9.84453832065 1210.27965679 -38.7869978635 1160.31654307 -38.7869978635 c 0
 1118.80351844 -38.7869978635 1075.05184497 -18.8065509901 1054 12 c 1
 974.263133802 136.361563312 912.520847051 235.758935628 784 463 c 1
 732.12339925 458.765175449 680.022860633 450 628 450 c 0
 471.796610169 450 372 513.654822335 372 670 c 0
 372 807 463.082644628 877 586 877 c 0
 795.44 877 799.588994924 755.001781643 894 598 c 1
 924.647995976 541.267680597 1086.31687249 227.698662115 1087 225.737304688 c 2
 1087 681 l 2
 1087 982 983 1085 682 1085 c 0
 401 1085 192 1005 187 754 c 1
 187 732 l 1
 35 732 l 1
<<<<<<< HEAD
 34.0850322078 745.724516883 33.8884845142 753.447987864 33.8884845142 760.95083275 c 0
 33.8884845142 766.602278752 34 772.128547878 34 780 c 0
=======
 34 747 34 759 34 765 c 2
 34 780 l 2
606 782 m 0
 539 782 505 741 505 672 c 0
 505 586 558 563 649 563 c 2
 704 563 l 1
 703 567 703 573 703 581 c 2
 703 610 l 2
 703 709 689 782 606 782 c 0
>>>>>>> updates
EndSplineSet
EndChar

StartChar: uni0E8A
Encoding: 210 3722 211
Width: 1318
VWidth: 2211
GlyphClass: 2
<<<<<<< HEAD
Flags: MW
=======
Flags: W
HStem: 0 132<260.816 503.305> 239 120<796.718 1024.02> 605 102<258.801 435.015> 919 94<313.028 432.408> 1088 104<377.588 930.646>
VStem: 94 156<143.946 327.919> 106 129<727.823 917.478> 450 134<718.165 899.572> 1065 146<763.575 981.762> 1099 145<-352 -207>
DStem2: 438 514 569 434 0.9351 0.354385<-257.821 666.327> 1183 93 1042 93 0.135809 -0.990735<-171.236 429.469>
>>>>>>> updates
LayerCount: 2
Fore
SplineSet
584 813 m 0xfd80
 584 678 480 605 343 605 c 0
 182 605 106 699 106 861 c 0
 106 1113 382 1192 642 1192 c 0
 916 1192 1211 1127 1211 863 c 0xfb80
 1211 662 1037 612 883 553 c 2
 569 434 l 2
 386 365 250 366 250 230 c 0
 250 165 281 137 340 132 c 1
 565 141 752 359 978 359 c 0
 1149 359 1162 249 1183 93 c 2
 1244 -352 l 1
 1099 -352 l 1xfd40
 1042 93 l 2
 1034 158 1037 239 967 239 c 256
 751 239 558 0 326 0 c 0
 193 0 94 87 94 220 c 0
 94 408 299 464 438 514 c 1
 636 586 l 2
 782 639 1065 696 1065 863 c 0
 1065 1035 860 1088 661 1088 c 0
 512 1088 393 1068 312 1008 c 1
 334 1010 352 1013 370 1013 c 0
 499 1010 584 944 584 813 c 0xfd80
353 707 m 0
 429 707 447 748 450 820 c 1
 450 886 403 919 309 919 c 2
 245 919 l 1
 239 898 235 877 235 855 c 0
 235 762 261 707 353 707 c 0
EndSplineSet
EndChar

StartChar: uni0E8D
Encoding: 211 3725 212
Width: 1267
VWidth: 2211
GlyphClass: 2
<<<<<<< HEAD
Flags: MW
=======
Flags: W
HStem: 0 105<356.698 853.021> 481 122<376.58 587> 481 60<338.063 373> 796 91<259.906 441.369> 1089 103<286.788 440.304>
VStem: 93 166<190.428 423.753 675.865 812 887 1062.76> 455 133<902.959 1078.06> 1000 171<242.274 1192>
>>>>>>> updates
LayerCount: 2
Fore
SplineSet
588 994 m 0xbf
 588 865 509 800 379 796 c 0
 360 796 339 799 317 801 c 1
 259 812 l 1
 259 791 l 2
 259 681 331 603 442 603 c 2
 587 603 l 1
 587 481 l 1
 442 481 l 2xdf
 335 481 258 407 258 300 c 0
 258 148 423 105 600 105 c 0
 880 105 1000 185 1000 465 c 2
 1000 1192 l 1
 1171 1192 l 1
 1171 482 l 2
 1171 118 987 0 622 0 c 0
 350 0 93 62 93 302 c 0
 93 450 222 541 373 541 c 1
 194 560 93 666 93 864 c 0
 93 1051 176 1192 361 1192 c 0
 497 1192 588 1128 588 994 c 0xbf
327 887 m 2
 413 887 452 909 455 986 c 1
 452 1054 423 1088 368 1089 c 1
 291 1089 259 1024 259 940 c 2
 259 887 l 1
 327 887 l 2
EndSplineSet
EndChar

StartChar: uni0E94
Encoding: 212 3732 213
Width: 1296
VWidth: 2211
GlyphClass: 2
<<<<<<< HEAD
Flags: MW
=======
Flags: W
HStem: 0 102<299.978 459.938> 306 89<277.938 459.551> 1085 107<421.417 877.404>
VStem: 107 170<123.532 306 380 937.128> 474 134<114.663 289.675> 1028 170<0 927.083>
>>>>>>> updates
LayerCount: 2
Fore
SplineSet
379 395 m 0
 510 395 608 335 608 206 c 0
 608 69 526 0 363 0 c 0
 192 0 107 117 107 350 c 2
 107 711 l 2
 107 1072 285 1192 648 1192 c 0
 1012 1192 1198 1073 1198 711 c 2
 1198 0 l 1
 1028 0 l 1
 1028 706 l 2
 1028 977 920 1085 648 1085 c 0
 379 1085 277 976 277 706 c 2
 277 380 l 1
 337 392 l 1
 358 394 371 395 379 395 c 0
277 265 m 2
 277 170 292 105 381 102 c 1
 443 104 473 138 474 206 c 1
 474 288 420 306 331 306 c 2
 277 306 l 1
 277 265 l 2
EndSplineSet
EndChar

StartChar: uni0E95
Encoding: 213 3733 214
Width: 1549
VWidth: 2211
GlyphClass: 2
<<<<<<< HEAD
Flags: MW
=======
Flags: W
HStem: 0 102<300.274 462.858> 306 89<277.641 458.998> 1085 107<357.739 621.944 945.363 1199.54>
VStem: 107 170<122.526 306 382 995.906> 475 133<113.777 287.34> 694 172<553 952.641> 1281 170<0 989.852>
>>>>>>> updates
LayerCount: 2
Fore
SplineSet
779 955 m 1
 803 1117 891 1192 1072 1192 c 0
 1365 1192 1451 1002 1451 706 c 2
 1451 0 l 1
 1281 0 l 1
 1281 715 l 2
 1281 899 1265 1084 1081 1084 c 0
 873 1084 866 903 866 687 c 2
 866 553 l 1
 694 553 l 1
 694 687 l 2
 694 885 691 1085 503 1085 c 0
 302 1085 277 950 277 745 c 2
 277 382 l 1
 318 391 l 1
 340 393 358 395 377 395 c 0
 511 395 608 338 608 206 c 0
 608 56 519 0 365 0 c 0
 182 0 107 138 107 332 c 2
 107 711 l 2
 107 1013 196 1192 495 1192 c 0
 670 1192 756 1109 779 955 c 1
475 206 m 1
 475 284 419 306 336 306 c 2
 277 306 l 1
 277 246 l 2
 277 150 313 102 385 102 c 0
 443 102 474 136 475 206 c 1
EndSplineSet
EndChar

StartChar: uni0E96
Encoding: 214 3734 215
Width: 1380
VWidth: 2211
GlyphClass: 2
<<<<<<< HEAD
Flags: MW
=======
Flags: W
HStem: 0 102<489.478 653.373> 306 87<469.531 650.114> 809 105<111.931 297.105> 1085 107<107.572 285.168 665.854 1006.01>
VStem: -32 133<925.049 1080.99> 299 170<120.907 306 381 831 923.519 945.943> 299 148<1031.05 1076.16> 665 134<114.75 286.407> 1107 170<-336 981.339>
>>>>>>> updates
LayerCount: 2
Fore
SplineSet
850 1192 m 0xfb80
 1157 1192 1277 1036 1277 729 c 2
 1277 -336 l 1
 1107 -336 l 1
 1107 747 l 2
 1107 966 1056 1085 839 1085 c 0
 692 1085 578 988 469 919 c 1
 469 381 l 1xfd80
 503 389 l 2
 522 393 544 393 568 393 c 0
 705 393 799 338 799 206 c 1
 791 66 707 0 557 0 c 0
 364 0 299 142 299 348 c 2xfb80
 299 831 l 1xfd80
 256 817 218 809 185 809 c 0
 40 809 -22 870 -32 1003 c 1
 -32 1136 64 1192 205 1192 c 0
 330 1192 411 1140 447 1035 c 0
 447 1034 447 1032 448 1031 c 1
 568 1111 671 1192 850 1192 c 0xfb80
101 1005 m 1
 104 946 134 914 196 914 c 0
 227 914 261 923 299 941 c 1xfd80
 299 949 l 2xfb80
 299 1041 278 1091 195 1091 c 0
 133 1091 102 1062 101 1005 c 1
563 102 m 0
 629 102 662 128 665 192 c 1
 665 206 l 2
 665 286 612 306 527 306 c 2
 469 306 l 1
 469 260 l 2
 469 171 486 102 563 102 c 0
EndSplineSet
EndChar

StartChar: uni0E97
Encoding: 215 3735 216
Width: 1497
VWidth: 2211
GlyphClass: 2
<<<<<<< HEAD
Flags: MW
=======
Flags: W
HStem: 0 106<395.032 629.881> 797 90<166.16 303> 1085 107<155.238 337.999 941.334 1163.07>
VStem: 14 134<904.642 1076.8> 178 172<150.805 544.2> 351 150<888.46 1073.17> 706 172<189.302 1014.12> 1226 168<0 1019.2>
>>>>>>> updates
LayerCount: 2
Fore
SplineSet
706 741 m 2
 706 1019 793 1192 1051 1192 c 0
 1321 1192 1394 1011 1394 738 c 2
 1394 0 l 1
 1226 0 l 1
 1226 808 l 2
 1226 955 1190 1085 1058 1085 c 0
 920 1085 878 973 878 819 c 2
 878 500 l 2
 878 197 813 0 515 0 c 0
 303 0 178 92 178 298 c 0
 178 479 257 647 303 811 c 1
 229 797 l 1
 99 797 14 865 14 995 c 0
 14 1127 91 1192 247 1192 c 0
 390 1192 501 1130 501 990 c 0
 501 967 497 939 489 906 c 1
 436 714 392 556 356 361 c 0
 352 339 350 323 350 313 c 0
 350 182 391 106 512 106 c 0
 692 106 706 286 706 464 c 2
 706 741 l 2
251 1089 m 0
 183 1089 148 1064 148 999 c 2
 148 993 l 2
 148 911 194 887 278 887 c 2
 324 887 l 1
 336 926 351 958 351 996 c 0
 351 1052 309 1089 251 1089 c 0
EndSplineSet
EndChar

StartChar: uni0E99
Encoding: 216 3737 217
Width: 1423
VWidth: 2211
GlyphClass: 2
<<<<<<< HEAD
Flags: MW
=======
Flags: W
HStem: 0 106<42 207.983 644.274 1043.68> 796 91<154.929 337.988> 1089 103<155.951 318.996>
VStem: 10 133<902.812 1077.73> 340 169<260.672 824 887 1073.47> 1152 170<225.764 1192>
>>>>>>> updates
LayerCount: 2
Fore
SplineSet
227 796 m 0
 100 796 13 863 10 987 c 1
 11 1124 89 1192 243 1192 c 0
 434 1192 509 1063 509 861 c 2
 509 435 l 2
 509 207 622 106 850 106 c 0
 1058 106 1152 197 1152 402 c 2
 1152 1192 l 1
 1322 1192 l 1
 1322 462 l 2
 1322 148 1164 0 849 0 c 0
 631 0 507.881410895 36.262584328 427 114 c 1
 378.775618699 65.4893617021 293.682142696 23.2316971017 202 0 c 1
 152 127 l 1
 290.620253165 181.739534884 340 201.4 340 322 c 2
 340 824 l 1
 297 806 259 796 227 796 c 0
245 1089 m 0
 174 1089 143 1058 143 986 c 0
 143 904 192 887 278 887 c 2
 340 887 l 1
 340 927 l 2
 340 1019 325 1089 245 1089 c 0
EndSplineSet
EndChar

StartChar: uni0E9A
Encoding: 217 3738 218
Width: 1318
VWidth: 2211
GlyphClass: 2
<<<<<<< HEAD
Flags: MW
=======
Flags: W
HStem: 0 106<444.424 906.724> 795 92<166.517 305.365> 1089 103<159.66 334.808>
VStem: 15 134<905.16 1078> 180 170<185.859 456.768> 352 150<888.57 1072.37> 1045 170<248.421 1192>
DStem2: 194 415 364 407 0.272603 0.962127<-76.8103 409.882 490.38 591.951>
>>>>>>> updates
LayerCount: 2
Fore
SplineSet
15 995 m 0
 15 1139 118 1191 269 1192 c 0
 398 1192 502 1112 502 985 c 0
 502 960 492 910 473 834 c 2
 364 407 l 2
 364 406 363 404 363 403 c 0
 355 368 350 331 350 289 c 0
 350 141 534 106 691 106 c 0
 951 106 1045 211 1045 471 c 2
 1045 1192 l 1
 1215 1192 l 1
 1215 500 l 2
 1215 144 1053 0 697 0 c 0
 448 0 180 71 180 313 c 0
 180 355 184 384 194 415 c 2
 307 809 l 1
 272 799 245 795 227 795 c 0
 103 795 15 871 15 995 c 0
242 1089 m 0
 180 1089 150 1055 149 995 c 1
 149 906 199 887 288 887 c 2
 327 887 l 1
 347 955 l 2
 350 967 352 975 352 986 c 0
 352 1052 311 1089 242 1089 c 0
EndSplineSet
EndChar

StartChar: uni0E9B
Encoding: 218 3739 219
Width: 1318
VWidth: 2211
GlyphClass: 2
<<<<<<< HEAD
Flags: MW
=======
Flags: W
HStem: 0 106<455.626 911.483> 795 92<163.756 305.456> 1089 103<166.251 341.442>
VStem: 16 134<903 1070.98> 181 170<191.839 522.031> 353 150<888.466 1075.81> 1048 169<249.263 1541>
DStem2: 195 420 365 406 0.274958 0.961456<-70.7276 403.84 507.723 598.489>
>>>>>>> updates
LayerCount: 2
Fore
SplineSet
222 795 m 0
 103 795 16 876 16 995 c 0
 16 1121 100 1187 265 1192 c 1
 394 1192 503 1131 503 1005 c 0
 503 956 496 910 482 866 c 1
 365 406 l 2
 355 371 351 339 351 300 c 0
 351 144 541 106 704 106 c 0
 960 106 1048 224 1048 480 c 2
 1048 1541 l 1
 1217 1541 l 1
 1217 522 l 2
 1217 154 1068 0 701 0 c 0
 448 0 181 69 181 313 c 0
 181 356 185 388 195 420 c 2
 307 808 l 1
 274 799 245 795 222 795 c 0
353 998 m 0
 353 1057 316 1089 253 1089 c 1
 187 1083 153 1052 150 997 c 1
 150 907 194 887 286 887 c 2
 328 887 l 1
 348 955 l 1
 350 969 353 983 353 998 c 0
EndSplineSet
EndChar

StartChar: uni0E9C
Encoding: 219 3740 220
Width: 1679
VWidth: 2211
GlyphClass: 2
<<<<<<< HEAD
Flags: MW
=======
Flags: W
HStem: 0 106<350.493 608.899 945.478 1192.33> 796 90<277.734 457.979 1090.82 1272> 1089 103<297.373 459.703 1088.37 1252.37>
VStem: 107 169<198.016 819 887 1070.04> 473 135<904.069 1076.2> 688 171<249.551 511> 941 134<905.106 1078.2> 1272 169<221.68 802> 1467 127<970.976 1337>
>>>>>>> updates
LayerCount: 2
Fore
SplineSet
941 990 m 0
 941 1137 1037 1188 1187 1192 c 1
 1322 1191 1402 1117 1427 969 c 1
 1454 1009 1467 1065 1467 1137 c 2
 1467 1337 l 1
 1594 1337 l 1
 1594 1137 l 2
 1594 996 1530 917 1440 858 c 1
 1441 839 1441 822 1441 810 c 2
 1441 521 l 2
 1441 215 1352 0 1072 0 c 0
 901 0 798 92 774 244 c 1
 753 88 654 0 479 0 c 0
 176 0 107 194 107 502 c 2
 107 868 l 2
 107 1066 182 1192 370 1192 c 0
 518 1192 608 1130 608 987 c 0
 608 865 516 796 392 796 c 0
 349 796 313 806 276 819 c 1
 276 443 l 2
 276 253 297 106 481 106 c 0
 652 106 688 257 688 450 c 2
 688 511 l 1
 859 511 l 1
 859 449 l 2
 859 264 904 106 1068 106 c 0
 1238 106 1272 246 1272 435 c 2
 1272 802 l 1
 1244 798 1213 796 1178 796 c 0
 1035 796 941 854 941 990 c 0
1075 993 m 0
 1075 900 1134 886 1228 886 c 0
 1242 886 1257 887 1272 889 c 1
 1272 927 l 2
 1272 1023 1255 1089 1171 1089 c 0
 1109 1089 1075 1055 1075 993 c 0
473 986 m 0
 473 1052 442 1088 379 1089 c 1
 295 1089 276 1019 276 927 c 2
 276 887 l 1
 332 887 l 2
 417 887 473 902 473 986 c 0
EndSplineSet
EndChar

StartChar: uni0E9D
Encoding: 220 3741 221
Width: 1547
VWidth: 2211
GlyphClass: 2
<<<<<<< HEAD
Flags: MW
=======
Flags: W
HStem: 0 106<354.078 612.747 946.928 1197.96> 796 91<277.012 457.598> 1089 103<297.926 461.806>
VStem: 106 169<200.21 824 887 1070.53> 473 134<904.494 1078.57> 692 170<250.092 513> 1278 172<199.713 1541>
>>>>>>> updates
LayerCount: 2
Fore
SplineSet
275 437 m 2
 275 246 303 109 487 106 c 1
 655 106 692 250 692 437 c 2
 692 513 l 1
 862 513 l 1
 862 437 l 2
 862 263 905 106 1062 106 c 0
 1250 106 1278 245 1278 437 c 2
 1278 1541 l 1
 1450 1541 l 1
 1450 521 l 2
 1450 211 1386 0 1081 0 c 1
 911 2 810 83 777 244 c 1
 742 87 662 3 484 0 c 1
 176 3 106 194 106 508 c 2
 106 839 l 2
 106 1057 171 1184 369 1192 c 1
 513 1190 607 1137 607 998 c 0
 607 866 521 796 388 796 c 0
 356 796 318 806 275 824 c 1
 275 437 l 2
473 987 m 0
 473 1049 446 1089 384 1089 c 0
 292 1089 275 1025 275 927 c 2
 275 887 l 1
 332 887 l 2
 418 887 473 903 473 987 c 0
EndSplineSet
EndChar

StartChar: uni0E9E
Encoding: 221 3742 222
Width: 1563
VWidth: 2211
GlyphClass: 2
<<<<<<< HEAD
Flags: MW
=======
Flags: W
HStem: 0 106<386.258 633.786 969.13 1215.87> 795 92<162.042 301.458> 1089 103<157.74 336.58>
VStem: 13 134<902.403 1079.18> 174 173<146.128 505.844> 350 150<887.467 1072.24> 710 170<252.866 1192> 1294 169<200.352 1192>
DStem2: 192 415 372 442 0.271848 0.96234<-97.4961 408.375 490.38 601.298>
>>>>>>> updates
LayerCount: 2
Fore
SplineSet
347 267 m 0
 347 163 403 106 508 106 c 0
 673 106 710 245 710 429 c 2
 710 1192 l 1
 880 1192 l 1
 880 429 l 2
 880 246 931 106 1097 106 c 0
 1262 106 1294 249 1294 434 c 2
 1294 1192 l 1
 1463 1192 l 1
 1463 522 l 2
 1463 212 1402 0 1097 0 c 0
 910 0 832 97 795 249 c 1
 766 81 678 0 481 0 c 0
 283 0 174 100 174 297 c 0
 174 333 180 373 192 415 c 2
 303 808 l 1
 270 799 243 795 225 795 c 0
 94 795 13 869 13 1000 c 0
 13 1138 118 1192 267 1192 c 0
 397 1192 500 1113 500 983 c 0
 500 958 495 926 485 887 c 2
 372 442 l 2
 357 384 347 329 347 267 c 0
241 1089 m 0
 179 1089 148 1056 147 997 c 1
 147 907 192 887 281 887 c 2
 325 887 l 1
 342 946 l 2
 346 962 346 980 350 996 c 1
 350 1055 305 1089 241 1089 c 0
EndSplineSet
EndChar

StartChar: uni0E9F
Encoding: 222 3743 223
Width: 1654
VWidth: 2211
GlyphClass: 2
<<<<<<< HEAD
Flags: MW
=======
Flags: W
HStem: 0 106<389.496 637.396 964.362 1223.87> 800 88<163.278 303.096> 1091 101<159.235 334.144>
VStem: 13 133<904.85 1080.58> 173 172<150.807 508.812> 350 150<888.341 1071.9> 710 170<251.538 1192> 1292 169<200.352 1542>
DStem2: 191 418 375 460 0.271995 0.962299<-83.8553 412.078 488.456 603.185>
>>>>>>> updates
LayerCount: 2
Fore
SplineSet
255 1192 m 0
 390 1192 500 1126 500 993 c 0
 500 956 491 924 482 888 c 2
 375 460 l 1
 364 425 345 355 345 284 c 0
 345 176 395 106 501 106 c 0
 687 106 710 240 710 429 c 2
 710 1192 l 1
 880 1192 l 1
 880 429 l 2
 880 243 922 106 1103 106 c 0
 1274 106 1292 258 1292 433 c 2
 1292 1542 l 1
 1461 1542 l 1
 1461 522 l 2
 1461 212 1399 0 1096 0 c 0
 906 0 828 91 795 249 c 1
 768 82 676 0 489 0 c 2
 477 0 l 1
 297 3 173 112 173 296 c 0
 173 340 180 379 191 418 c 2
 305 814 l 1
 264 804 248 800 211 800 c 0
 92 800 13 876 13 996 c 0
 13 1134 108 1192 255 1192 c 0
350 1001 m 0
 350 1055 298 1091 240 1091 c 0
 178 1091 147 1057 146 989 c 1
 146 907 200 888 286 888 c 2
 324 888 l 1
 336 931 l 1
 341 956 350 977 350 1001 c 0
EndSplineSet
EndChar

StartChar: uni0EA1
Encoding: 223 3745 224
Width: 1617
VWidth: 2211
GlyphClass: 2
<<<<<<< HEAD
Flags: MW
=======
Flags: W
HStem: 0 106<124.453 290.945 841.543 1219.05> 306 90<129.904 283.101>
VStem: -18 134<114.554 296.288> 294 119<120.147 293.003> 534 169<259.32 1192> 1345 170<241.263 1192>
>>>>>>> updates
LayerCount: 2
Fore
SplineSet
703 448 m 2
 703 215 811 109 1039 106 c 1
 1234 106 1345 207 1345 404 c 2
 1345 1192 l 1
 1515 1192 l 1
 1515 504 l 2
 1515 174 1365 0 1040 0 c 0
 813 0 670 82 619 255 c 1
 576 85 447 0 233 0 c 0
 95 0 -18 61 -18 200 c 0
 -18 324 65 396 194 396 c 0
 325 396 413 346 413 222 c 0
 413 198 404 164 388 118 c 1
 485 154 534 262 534 447 c 2
 534 1192 l 1
 703 1192 l 1
 703 448 l 2
206 306 m 0
 140 306 116 264 116 197 c 0
 116 112 168 102 254 102 c 0
 267 102 281 103 294 103 c 1
 294 206 l 2
 294 268 265 306 206 306 c 0
EndSplineSet
EndChar

StartChar: uni0EA2
Encoding: 224 3746 225
Width: 1323
VWidth: 2211
GlyphClass: 2
<<<<<<< HEAD
Flags: MW
=======
Flags: W
HStem: 1 104<378.588 869.501> 481 122<398.457 609> 481 60<360.046 395> 796 91<280.922 462.448> 1089 103<308.511 464.937>
VStem: 114 166<185.935 419.435 673.35 812 887 1062.76> 477 133<900.357 1077.65> 1021 172<248.321 1475.37>
>>>>>>> updates
LayerCount: 2
Fore
SplineSet
622 105 m 0xdf
 630 105 635 106 643 106 c 0
 910 106 1021 198 1021 465 c 2
 1021 1159 l 2
 1021 1309 1038 1419 1084 1528 c 1
 1247 1528 l 1
 1214 1403 1193 1281 1193 1134 c 2
 1193 482 l 2
 1193 119 1007 1 643 1 c 0
 372 1 114 62 114 302 c 0
 114 451 244 541 395 541 c 1xbf
 214 560 114 665 114 864 c 0
 114 1051 198 1192 383 1192 c 0
 517 1192 610 1126 610 994 c 0
 610 865 530 799 400 796 c 0
 381 796 361 799 339 801 c 1
 280 812 l 1
 280 791 l 2
 280 682 354 603 464 603 c 2
 609 603 l 1
 609 481 l 1
 464 481 l 2
 357 481 279 406 279 298 c 0
 279 148 446 105 622 105 c 0xdf
349 887 m 2
 436 887 474 907 477 986 c 1
 475 1054 446 1088 390 1089 c 1
 313 1089 280 1024 280 940 c 2
 280 887 l 1
 349 887 l 2
EndSplineSet
EndChar

StartChar: uni0EA3
Encoding: 225 3747 226
Width: 1355
VWidth: 2211
GlyphClass: 2
<<<<<<< HEAD
Flags: MW
=======
Flags: W
HStem: 0 104<380.32 958.834> 188 85<291.88 417.449> 483 95<249.353 424.69> 1085 107<341.657 983.272>
VStem: 93 127<274.838 452.903> 116 171<871.206 1034.42> 437 133<289.463 474.444> 1089 171<206.01 441.952> 1103 137<825 983.905>
DStem2: 575 773 428 688 0.945527 -0.325543<-308.751 574.868>
>>>>>>> updates
LayerCount: 2
Fore
SplineSet
93 332 m 0xfb
 93 496 176 577 339 578 c 0
 479 578 570 518 570 381 c 0
 570 265 489 191 377 188 c 1
 282 204 l 1
 365 133 495 104 657 104 c 0
 874 104 1087 136 1089 320 c 1xfb
 1089 465 996 492 884 531 c 2
 428 688 l 2
 289 737 116 775 116 948 c 1
 113 1159 387 1192 642 1192 c 0
 961 1192 1240 1156 1240 848 c 2
 1240 825 l 1
 1103 825 l 1
 1103 852 l 2
 1103 1073 878 1085 648 1085 c 0
 643 1085 639 1085 634 1085 c 0
 487 1085 287 1084 287 953 c 0xf680
 287 840 475 806 575 773 c 2
 712 728 l 1
 933 657 1260 618 1260 337 c 1
 1262 68 962 0 653 0 c 0
 388 0 93 78 93 332 c 0xfb
271 273 m 2
 377 273 434 281 437 380 c 1
 437 442 412 483 353 483 c 0
 264 483 220 428 220 337 c 0
 220 316 224 295 232 273 c 1
 271 273 l 2
EndSplineSet
EndChar

StartChar: uni0EA5
Encoding: 226 3749 227
Width: 1403
VWidth: 2211
GlyphClass: 2
<<<<<<< HEAD
Flags: MW
=======
Flags: W
HStem: 0 102<261.885 422.744 929.345 1085.39> 306 94<247.78 423.579> 549 112<302.117 501.722> 1085 107<444.871 980.478>
VStem: 75 166<119.339 306> 104 147<770 925.433> 438 133<113.534 287.398> 1134 170<158.698 936.416>
>>>>>>> updates
LayerCount: 2
Fore
SplineSet
75 287 m 0xfb
 75 493 205 661 410 661 c 0
 707 661 769 298 926 149 c 0
 950 126 970 112 1009 112 c 0
 1127 112 1134 261 1134 379 c 2
 1134 673 l 2
 1134 994 1036 1085 715 1085 c 2
 710 1085 l 2
 454 1085 254 1004 251 770 c 1
 104 770 l 1xf7
 104 1090 380 1192 735 1192 c 0
 1118 1192 1304 1068 1304 687 c 2
 1304 446 l 2
 1304 191 1247 0 999 0 c 0
 740 0 651 370 504 510 c 0
 478 535 455 549 413 549 c 0
 304 549 259 470 246 366 c 1
 284 378 320 400 355 400 c 0
 486 400 571 326 571 195 c 0
 571 54 474 0 325 0 c 0
 165 0 75 125 75 287 c 0xfb
343 102 m 0
 410 102 434 138 438 207 c 1
 438 283 388 300 313 306 c 1
 241 306 l 1
 241 285 l 2xfb
 241 187 248 102 343 102 c 0
EndSplineSet
EndChar

StartChar: uni0EA7
Encoding: 227 3751 228
Width: 1406
VWidth: 2211
GlyphClass: 2
<<<<<<< HEAD
Flags: MW
=======
Flags: W
HStem: 0 104<415.277 937.013> 188 85<352.248 469.801> 482 96<304.591 479.941> 1085 107<442.164 978.3>
VStem: 112 148<770 925.173> 118 159<277.915 459.229> 491 135<292.273 470.624> 1138 170<298.554 923.123>
>>>>>>> updates
LayerCount: 2
Fore
SplineSet
394 578 m 0
 535 578 626 518 626 381 c 0
 626 255 562 188 436 188 c 1
 325 207 l 1
 390 138 511 104 689 104 c 0
 988 104 1138 236 1138 501 c 2
 1138 673 l 2
 1138 999 1027 1085 701 1085 c 0
 448 1085 266 1002 260 770 c 1
 112 770 l 1
 112 1083 388 1192 709 1192 c 0
 1083 1192 1308 1100 1308 731 c 2
 1308 486 l 2
 1308 136 1048 0 693 0 c 0
 429 0 118 75 118 327 c 0
 118 492 228 578 394 578 c 0
304 273 m 2
 413 273 491 275 491 380 c 0
 491 451 461 482 391 482 c 0
 311 482 277 421 277 337 c 0
 277 316 281 295 286 273 c 1
 304 273 l 2
EndSplineSet
EndChar

StartChar: uni0EAA
Encoding: 228 3754 229
Width: 1493
VWidth: 2211
GlyphClass: 2
<<<<<<< HEAD
Flags: MW
=======
Flags: W
HStem: 0 102<285.177 446.375 947.011 1124.3> 306 90<330.656 442.431> 501 102<310.024 554.663> 669 110<370.846 1016.26> 1085 107<410.883 1020.1> 1307 20G<1246 1382>
VStem: 117 144<124.512 305.859> 138 167<837.739 1002.14> 459 133<114.926 290.225> 1179 172<166.187 816.659> 1246 136<1085.55 1327>
>>>>>>> updates
LayerCount: 2
Fore
SplineSet
351 0 m 0xfcc0
 188 0 117 120 117 294 c 256
 117 488 230 603 427 603 c 0
 780 603 738 251 965 132 c 0
 988 120 1013 113 1042 113 c 0
 1171 113 1179 254 1179 383 c 2
 1179 819 l 1xfec0
 1135 706 895 669 733 669 c 0
 451 669 138 693 138 912 c 0
 138 1147 485 1192 733 1192 c 0
 933 1192 1083 1156 1196 1074 c 1
 1226 1131 1246 1231 1246 1327 c 1
 1382 1327 l 1xfda0
 1382 1200 1334 1056 1289 963 c 1
 1333 913 1351 795 1351 701 c 2
 1351 433 l 2
 1351 175 1277 1 1039 1 c 0
 737 1 719 314 555 458 c 0
 525 485 491 501 438 501 c 0
 332 501 285 456 268 366 c 1
 388 396 l 1
 511 396 592 327 592 204 c 0
 592 60 501 0 351 0 c 0xfcc0
305 912 m 0xfd80
 305 783 552 779 733 779 c 0
 939 779 1094 818 1144 956 c 1
 1065 1051 917 1085 733 1085 c 0
 565 1085 305 1066 305 912 c 0xfd80
459 208 m 256
 459 293 398 306 305 306 c 2xfd80
 262 306 l 1
 261 303 261 299 261 296 c 2
 261 273 l 2xfe80
 261 180 275 108 359 102 c 1
 427 103 459 136 459 208 c 256
EndSplineSet
EndChar

StartChar: uni0EAB
Encoding: 229 3755 230
Width: 2014
VWidth: 2211
GlyphClass: 2
<<<<<<< HEAD
Flags: MW
=======
Flags: W
HStem: 0 105<455.909 854.187> 795 95<165.613 304.719 791.489 967.665> 1089 103<165.4 338.611 779.924 957.515 1366.34 1622.43>
VStem: 17 132<905.918 1072.65> 188 169<196.744 545.562> 351 151<889.336 1074.96> 636 133<913.247 1077.37> 969 169<230.715 809 894.267 917.285> 1688 169<0 1006.65>
DStem2: 204 443 373 441 0.264955 0.964261<-60.8795 385.995 460.456 573.284>
>>>>>>> updates
LayerCount: 2
Fore
SplineSet
1138 500 m 2xfb80
 1138 154 1018 0 669 0 c 0
 418 0 188 85 188 330 c 0xfb80
 188 366 193 404 204 443 c 2
 307 815 l 1
 258 802 231 796 227 796 c 0
 100 796 17 870 17 997 c 0
 17 1133 106 1192 247 1192 c 0
 383 1192 502 1131 502 997 c 0xf780
 502 966 493 917 477 851 c 2
 373 441 l 2
 363 406 357 375 357 336 c 0
 357 168 477 105 660 105 c 0
 907 105 969 224 969 473 c 2
 969 809 l 1
 939 799 910 795 883 795 c 0
 732 795 636 853 636 997 c 0
 636 1138 752 1190 892 1190 c 0
 1026 1190 1107 1128 1134 1005 c 1
 1236 1072 1358 1192 1517 1192 c 0
 1790 1192 1857 993 1857 715 c 2
 1857 0 l 1
 1688 0 l 1
 1688 711 l 2
 1688 724 1688 736 1688 749 c 0
 1688 925 1682 1085 1513 1085 c 0
 1361 1085 1242 948 1138 888 c 1
 1138 500 l 2xfb80
880 1091 m 0
 815 1091 769 1065 769 1005 c 1
 772 929 816 893 892 890 c 1
 917 891 942 897 969 909 c 1
 969 989 l 2
 969 1051 940 1091 880 1091 c 0
255 1089 m 0
 190 1089 152 1054 149 995 c 1
 149 905 204 887 295 887 c 2
 326 887 l 1
 342 942 351 980 351 998 c 0xf780
 351 1051 310 1089 255 1089 c 0
EndSplineSet
EndChar

StartChar: uni0EAD
Encoding: 230 3757 231
Width: 1406
VWidth: 2211
GlyphClass: 2
<<<<<<< HEAD
Flags: MW
=======
Flags: W
HStem: 0 104<405.19 935.402> 188 85<327.011 473.883> 482 96<302.597 476.969> 656 112<353.742 1026.2> 1085 107<384.197 999.529>
VStem: 117 160<278.212 459.47 835.768 1002.18> 491 134<292.197 467.73> 1140 169<329.294 748>
>>>>>>> updates
LayerCount: 2
Fore
SplineSet
691 1192 m 0
 1060 1192 1309 1090 1309 752 c 2
 1309 546 l 2
 1309 155 1088 0 688 0 c 0
 430 0 117 80 117 327 c 0
 117 489 226 578 391 578 c 0
 531 578 625 520 625 384 c 0
 625 272 554 191 444 188 c 1
 405 188 368 195 325 203 c 1
 387 137 507 104 685 104 c 0
 1101 104 1140 319 1140 739 c 2
 1140 748 l 1
 1058 666 863 656 692 656 c 0
 417 656 116 690 116 912 c 0
 116 1150 438 1192 691 1192 c 0
691 1085 m 0
 501 1085 285 1064 285 912 c 1
 287 772 502 768 691 768 c 0
 844 768 1107 781 1116 912 c 1
 1112 1058 853 1085 691 1085 c 0
491 381 m 0
 491 448 454 481 387 482 c 1
 308 481 277 423 277 337 c 0
 277 313 281 290 286 273 c 1
 337 273 l 2
 432 273 491 288 491 381 c 0
EndSplineSet
EndChar

StartChar: uni0EAE
Encoding: 231 3758 232
Width: 1343
VWidth: 2211
GlyphClass: 2
<<<<<<< HEAD
Flags: MW
LayerCount: 2
Fore
SplineSet
344 1192 m 0
 396.722775253 1192 462.426028015 1171.21678558 529 1141.8125 c 1
 856 1007.28417969 l 2
 903.26953125 987.836914062 947.02886891 966.248632269 994 961 c 1
=======
Flags: W
HStem: 0 104<403.405 949.828> 189 84<345.984 478.056> 482 96<305.644 483.426> 849 112<846.925 1082.96> 1070 122<274.091 509.273>
VStem: 110 152<882.078 1059.8> 120 159<273.679 456.26> 495 133<288.045 470.198> 1058 169<195.274 445.417> 1107 120<980.93 1192>
LayerCount: 2
Fore
SplineSet
344 1192 m 0xfd80
 572 1192 770 979 994 961 c 1
>>>>>>> updates
 1000 961 l 2
 1071 961 1107 1009 1107 1104 c 2
 1107 1192 l 1
 1227 1192 l 1
 1227 1105 l 2
 1227 959 1154 849 1009 849 c 0
 902 849 576 1007 427 1056 c 0
 398 1066 374 1070 356 1070 c 0
<<<<<<< HEAD
 293 1070 262 1036 262 972 c 0
 262 916.161130168 374.275390625 866.71875 446 839 c 2
 904 662 l 1
 1037.96125877 602.920424107 1227 546.054054054 1227 332 c 0
=======
 293 1070 262 1036 262 972 c 0xfd40
 262 849 424 820 528 781 c 2
 836 665 l 2
 998 605 1227 548 1227 332 c 0
>>>>>>> updates
 1227 71 949 0 679 0 c 0
 406 0 120 68 120 332 c 0xfb80
 120 492 229 578 391 578 c 0
 536 578 628 518 628 378 c 0
 628 264 546 189 432 189 c 1
 318 208 l 1
 377 138 501 104 688 104 c 0
 896 104 1058 146 1058 327 c 0
<<<<<<< HEAD
 1058 424.475990487 1033.37728451 463.225918647 853 534.311523438 c 2
 379.000036654 721.112062967 l 2
 228.123046875 780.571289062 110 850.471635891 110 977 c 0
 110 1117 204 1192 344 1192 c 0
=======
 1058 694 110 617 110 977 c 0
 110 1117 204 1192 344 1192 c 0xfd80
>>>>>>> updates
353 273 m 2
 445 273 495 291 495 373 c 0
 495 444 469 482 400 482 c 0
 314 482 279 421 279 330 c 0xfb
 279 307 282 288 287 273 c 1
 353 273 l 2
EndSplineSet
EndChar

StartChar: uni0EAF
Encoding: 232 3759 233
Width: 1402
VWidth: 2211
GlyphClass: 2
<<<<<<< HEAD
Flags: MW
=======
Flags: W
HStem: 423 126<311.348 673.349> 730 105<448.188 586.025> 1054 138<439 569.579>
VStem: 55 169<627.575 949.698> 330 109<841.162 1038.97> 596 141<842.432 1027.23>
DStem2: 595 -359 736 -418 0.393463 0.919341<1.23714 1320.81>
>>>>>>> updates
LayerCount: 2
Fore
SplineSet
368 1041 m 1
 279 1006 224 897 224 774 c 0
 224 621 319 549 479 549 c 0
 704 549 857 708 974 861 c 2
 1178 1131 l 1
 1360 1040 l 1
 736 -418 l 1
 595 -359 l 1
 1113 856 l 1
 1071 793 l 2
 955 617 775 423 497 423 c 0
 250 423 55 515 55 758 c 0
 55 1007 204 1192 451 1192 c 0
 611 1192 737 1116 737 958 c 0
 737 818 658 730 518 730 c 0
 416 730 330 789 330 889 c 0
 330 934 358 998 368 1041 c 1
439 922 m 2
 439 871 465 835 515 835 c 0
 573 835 596 872 596 936 c 0
 596 1027 532 1052 439 1054 c 1
 439 922 l 2
EndSplineSet
EndChar

StartChar: uni0EB0
Encoding: 233 3760 234
Width: 1277
VWidth: 2211
GlyphClass: 2
<<<<<<< HEAD
Flags: MW
=======
Flags: W
HStem: 173 129<240.269 424 477 935.298> 508 114<224.504 405.593> 741 133<244.776 424 482 934.891> 1079 113<222.647 405.907>
VStem: 93 121<330.072 496.867 905.402 1066.6> 424 94<303.328 490.704 875.062 1060.96> 1061 118<421.906 621 997.812 1192>
>>>>>>> updates
LayerCount: 2
Fore
SplineSet
311 1192 m 0
 434 1192 517 1134 517 1014 c 0
 517 991 513 968 504 942 c 2
 482 874 l 1
 729 874 l 2
 962 874 1057 962 1060 1192 c 1
 1180 1192 l 1
 1177 873 1051 741 729 741 c 2
 491 741 l 2
 270 741 93 774 93 989 c 0
 93 1116 182 1192 311 1192 c 0
424 945 m 2
 424 1034 397 1079 315 1079 c 0
 247 1079 214 1049 214 991 c 0
 214 910 281 874 370 874 c 2
 424 874 l 1
 424 945 l 2
320 622 m 0
 425 622 518 553 518 449 c 0
 518 428 515 408 507 387 c 2
 477 302 l 1
 729 302 l 2
 963 302 1058 390 1061 621 c 1
 1179 621 l 1
 1179 315 1067 173 762 173 c 2
 522 173 l 2
 302 173 93 200 93 411 c 0
 93 548 179 622 320 622 c 0
424 393 m 2
 424 465 387 508 316 508 c 0
 248 508 214 477 214 413 c 0
 214 338 278 302 360 302 c 2
 424 302 l 1
 424 393 l 2
EndSplineSet
EndChar

StartChar: uni0EB1
Encoding: 234 3761 235
Width: 4
VWidth: 2211
GlyphClass: 2
<<<<<<< HEAD
Flags: MW
=======
Flags: W
HStem: 1372 127<-924.071 -739 -685 -272.971> 1703 115<-937.571 -756.206>
VStem: -1070 121<1523.64 1690.67> -739 92<1500.2 1685.36> -159 119<1609.06 1804>
>>>>>>> updates
LayerCount: 2
Fore
SplineSet
-843 1818 m 0
 -734 1818 -647 1755 -647 1647 c 0
 -647 1622 -651 1599 -659 1576 c 2
 -685 1499 l 1
 -481 1499 l 2
 -256 1499 -159 1580 -159 1804 c 1
 -40 1804 l 1
 -40 1468 -187 1372 -524 1372 c 2
 -642 1372 l 2
 -864 1372 -1070 1396 -1070 1611 c 0
 -1070 1745 -982 1818 -843 1818 c 0
-847 1703 m 0
 -910 1703 -949 1673 -949 1611 c 0
 -949 1532 -886 1499 -801 1499 c 2
 -739 1499 l 1
 -739 1594 l 2
 -739 1665 -777 1703 -847 1703 c 0
EndSplineSet
EndChar

StartChar: uni0EB2
Encoding: 235 3762 236
Width: 1020
VWidth: 2211
GlyphClass: 2
<<<<<<< HEAD
Flags: MW
=======
Flags: W
HStem: 0 21G<754 923> 730 102<265.717 460.247> 1089 103<276.135 475 553 657.909>
VStem: 107 131<860.464 1049.64> 475 96<846.859 1081.48> 754 169<0 988.715>
>>>>>>> updates
LayerCount: 2
Fore
SplineSet
107 962 m 0
 107 1122 304 1192 471 1192 c 0
 772 1192 923 1056 923 783 c 2
 923 0 l 1
 754 0 l 1
 754 791 l 2
 754 962 696 1062 553 1084 c 1
 562 1030 567 994 571 939 c 1
 571 798 504 730 364 730 c 0
 213 730 107 811 107 962 c 0
238 968 m 1
 238 886 284 832 366 832 c 0
 465 832 475 884 475 984 c 2
 475 1089 l 1
 351 1086 243 1071 238 968 c 1
EndSplineSet
EndChar

StartChar: uni0EB3
Encoding: 236 3763 237
Width: 1773
VWidth: 2211
GlyphClass: 2
<<<<<<< HEAD
Flags: MW
=======
Flags: W
HStem: 0 21G<1507 1677> 732 101<1019.01 1214.14> 1091 101<1035.2 1229 1306 1405.78> 1280 94<247.166 454.575> 1645 96<247.421 454.154>
VStem: 107 104<1411.12 1608.3> 490 98<1408.88 1609.26> 860 132<860.717 1049.96> 1229 97<848.438 1082.44> 1507 170<0 978.376>
>>>>>>> updates
LayerCount: 2
Fore
SplineSet
588 1509 m 0
 588 1372 483 1283 347 1280 c 1
 211 1280 107 1375 107 1511 c 0
 107 1644 213 1741 347 1741 c 256
 484 1741 588 1646 588 1509 c 0
352 1374 m 0
 432 1374 487 1429 490 1508 c 1
 490 1586 431 1645 352 1645 c 0
 273 1645 211 1587 211 1508 c 0
 211 1431 274 1374 352 1374 c 0
860 962 m 0
 860 1122 1057 1192 1223 1192 c 0
 1516 1192 1677 1070 1677 785 c 2
 1677 0 l 1
 1507 0 l 1
 1507 791 l 2
 1507 957 1446 1063 1306 1085 c 1
 1314 1030 1318 995 1326 939 c 1
 1326 801 1258 732 1117 732 c 0
 965 732 860 810 860 962 c 0
992 968 m 1
 992 886 1038 833 1120 833 c 0
 1219 833 1229 886 1229 986 c 2
 1229 1091 l 1
 1103 1088 997 1071 992 968 c 1
EndSplineSet
MultipleSubs2: "ccmpGlyphCompositionDecompositi subtable" uni0ECD uni0EB2
Substitution2: "'liga' Standard Ligatures lookup 0 subtable" uni0ECD_uni0EB2
EndChar

StartChar: uni0EB4
Encoding: 237 3764 238
Width: 4
VWidth: 2211
GlyphClass: 2
<<<<<<< HEAD
Flags: MW
=======
Flags: W
HStem: 1377 105<-1038.66 -807 -550 -323.801> 1768 111<-980.618 -377.011>
VStem: -1210 137<1518.07 1693.3> -286 139<1519.62 1694.72>
>>>>>>> updates
LayerCount: 2
Fore
SplineSet
-503 1482 m 6
 -394 1482 -286 1498 -286 1608 c 4
 -286 1715 -417 1768 -679 1768 c 4
 -941 1768 -1073 1714 -1073 1607 c 4
 -1073 1496 -966 1482 -855 1482 c 6
 -807 1482 l 5
 -807 1377 l 5
 -875 1377 l 6
 -1069 1377 -1210 1436 -1210 1614 c 4
 -1210 1844 -911 1879 -679 1879 c 4
 -434 1879 -147 1838 -147 1593 c 4
 -147 1422 -316 1377 -507 1377 c 6
 -550 1377 l 5
 -550 1482 l 5
 -503 1482 l 6
EndSplineSet
EndChar

StartChar: uni0EB5
Encoding: 238 3765 239
Width: 5
VWidth: 2211
GlyphClass: 2
<<<<<<< HEAD
Flags: MW
=======
Flags: W
HStem: 1377 105<-1204.66 -973 -719 -485.939 -395 -150> 1768 111<-1146.62 -539.257>
VStem: -1376 137<1518.07 1693.3> -452 139<1517.05 1695.38>
>>>>>>> updates
LayerCount: 2
Fore
SplineSet
-313 1607 m 4
 -313 1545 -354 1508 -395 1482 c 5
 -150 1482 l 5
 -150 1377 l 5
 -719 1377 l 5
 -719 1482 l 5
 -669 1482 l 6
 -560 1482 -452 1498 -452 1608 c 4
 -452 1715 -583 1768 -845 1768 c 4
 -1107 1768 -1239 1714 -1239 1607 c 4
 -1239 1496 -1132 1482 -1021 1482 c 6
 -973 1482 l 5
 -973 1377 l 5
 -1041 1377 l 6
 -1235 1377 -1376 1436 -1376 1614 c 4
 -1376 1844 -1077 1879 -845 1879 c 4
 -607 1879 -313 1842 -313 1607 c 4
EndSplineSet
EndChar

StartChar: uni0EB6
Encoding: 239 3766 240
Width: 4
VWidth: 2211
GlyphClass: 2
<<<<<<< HEAD
Flags: MW
=======
Flags: W
HStem: 1377 105<-1038.66 -807 -550 -313.414> 1506 155<-761.876 -586.25> 1768 111<-980.608 -380.152>
VStem: -1210 136<1513.7 1692.87> -771 193<1518.18 1649.34> -286 139<1512.31 1695.61>
>>>>>>> updates
LayerCount: 2
Fore
SplineSet
-503 1482 m 6
 -377 1482 -286 1496 -286 1608 c 4
 -286 1713 -417 1767 -679 1768 c 5
 -943 1768 -1074 1714 -1074 1607 c 4
 -1074 1495 -972 1482 -855 1482 c 6
 -807 1482 l 5
 -807 1377 l 5
 -875 1377 l 6
 -1069 1377 -1210 1436 -1210 1614 c 4
 -1210 1841 -908 1879 -679 1879 c 4
 -435 1879 -147 1847 -147 1607 c 4
 -147 1426 -308 1377 -507 1377 c 6
 -550 1377 l 5
 -550 1482 l 5
 -503 1482 l 6
-674 1661 m 4
 -626 1661 -578 1635 -578 1587 c 4
 -578 1536 -619 1506 -674 1506 c 4
 -725 1506 -771 1536 -771 1587 c 4
 -771 1632 -724 1661 -674 1661 c 4
EndSplineSet
EndChar

StartChar: uni0EB7
Encoding: 240 3767 241
Width: 5
VWidth: 2211
GlyphClass: 2
<<<<<<< HEAD
Flags: MW
=======
Flags: W
HStem: 1377 105<-1204.66 -973 -719 -479.414 -395 -150> 1506 155<-938.206 -763.279> 1768 111<-1149.15 -543.226>
VStem: -1376 136<1513.7 1694.45> -947 193<1518.18 1649.45> -452 139<1512.77 1696.16>
>>>>>>> updates
LayerCount: 2
Fore
SplineSet
-313 1607 m 4
 -313 1545 -352 1508 -395 1482 c 5
 -150 1482 l 5
 -150 1377 l 5
 -719 1377 l 5
 -719 1482 l 5
 -669 1482 l 6
 -543 1482 -452 1496 -452 1608 c 4
 -452 1715 -583 1768 -845 1768 c 4
 -1109 1768 -1240 1714 -1240 1607 c 4
 -1240 1495 -1138 1482 -1021 1482 c 6
 -973 1482 l 5
 -973 1377 l 5
 -1041 1377 l 6
 -1235 1377 -1376 1436 -1376 1614 c 4
 -1376 1852 -1086 1879 -845 1879 c 4
 -601 1879 -313 1847 -313 1607 c 4
-851 1661 m 4
 -802 1661 -754 1635 -754 1587 c 4
 -755 1536 -796 1506 -851 1506 c 4
 -902 1506 -947 1536 -947 1587 c 4
 -947 1632 -902 1661 -851 1661 c 4
EndSplineSet
EndChar

StartChar: uni0EB8
Encoding: 241 3768 242
Width: 4
VWidth: 2211
GlyphClass: 2
<<<<<<< HEAD
Flags: MW
=======
Flags: W
HStem: -489 79<-441.687 -299.736> -247 81<-440.433 -259.081>
VStem: -560 107<-399.412 -259.336> -246 127<-407.246 -260.381>
>>>>>>> updates
LayerCount: 2
Fore
SplineSet
-349 -166 m 5
 -232 -168 -119 -215 -119 -325 c 4
 -119 -483 -275 -640 -372 -719 c 5
 -443 -654 l 5
 -393 -597 -334 -530 -298 -467 c 5
 -335 -475 -374 -489 -415 -489 c 4
 -499 -489 -560 -423 -560 -333 c 4
 -560 -222 -474 -166 -349 -166 c 5
-268 -410 m 5
 -254 -378 -247 -351 -246 -328 c 5
 -251 -275 -286 -248 -352 -247 c 5
 -418 -249 -452 -278 -453 -333 c 5
 -451 -384 -416 -410 -349 -410 c 4
 -322 -410 -295 -410 -268 -410 c 5
EndSplineSet
EndChar

StartChar: uni0EB9
Encoding: 242 3769 243
Width: 4
VWidth: 2211
GlyphClass: 2
<<<<<<< HEAD
Flags: MW
=======
Flags: W
HStem: -766 107<-443.066 -256.577> -570 85<-726.864 -556.914> -314 98<-732.569 -555.98>
VStem: -842 102<-468.881 -324.697> -564 110<-647.024 -549.265> -544 123<-481.685 -325.688> -246 125<-648.747 -216>
>>>>>>> updates
LayerCount: 2
Fore
SplineSet
-344 -659 m 4xfa
 -248 -659 -246 -609 -246 -515 c 4
 -246 -511 -246 -506 -246 -502 c 6
 -246 -216 l 5
 -121 -216 l 5
 -121 -490 l 6
 -121 -665 -169 -766 -342 -766 c 4
 -471 -766 -564 -729 -564 -611 c 4xfa
 -564 -600 -563 -589 -560 -575 c 6
 -556 -549 l 5
 -579 -563 -606 -570 -642 -570 c 4
 -756 -570 -842 -510 -842 -397 c 4
 -842 -283 -755 -216 -638 -216 c 4
 -514 -216 -421 -284 -421 -408 c 4xf6
 -421 -462 -454 -516 -454 -573 c 4
 -454 -635 -410 -659 -344 -659 c 4xfa
-740 -394 m 4
 -740 -466 -686 -485 -610 -485 c 4
 -588 -485 -567 -481 -544 -476 c 5
 -544 -415 l 6xf6
 -545 -350 -574 -314 -638 -314 c 4
 -697 -314 -740 -338 -740 -394 c 4
EndSplineSet
EndChar

StartChar: uni0EBB
Encoding: 243 3771 244
Width: 5
VWidth: 2211
GlyphClass: 2
<<<<<<< HEAD
Flags: HMW
=======
Flags: W
HStem: 1323 114<-1053.02 -872.886> 1644 125<-1035.85 -856 -802 -376.472>
VStem: -1186 120<1451.25 1615.06> -856 95<1453.05 1642.88> -266 118<1323 1534.02>
>>>>>>> updates
LayerCount: 2
Fore
SplineSet
-959 1301 m 4
 -1096 1301 -1186 1375 -1186 1512 c 4
 -1186 1726 -972 1747 -751 1747 c 6
 -599 1747 l 6
 -264 1747 -148 1636 -148 1301 c 5
 -266 1301 l 5
 -266 1536 -346 1622 -581 1622 c 6
 -802 1622 l 5
 -776 1550 l 6
 -766 1522 -761 1497 -761 1474 c 4
 -761 1366 -850 1301 -959 1301 c 4
-910 1622 m 6
 -1000 1622 -1063 1591 -1066 1511 c 5
 -1064 1449 -1030 1416 -966 1415 c 5
 -898 1415 -861 1450 -856 1518 c 5
 -856 1622 l 5
 -910 1622 l 6
EndSplineSet
EndChar

StartChar: uni0EBC
Encoding: 244 3772 245
Width: 5
VWidth: 2211
GlyphClass: 2
<<<<<<< HEAD
Flags: MW
=======
Flags: W
HStem: -473 106<-1010.36 -864.398 -453.368 -308.528> -205 110<-1003.07 -853>
VStem: -1133 116<-364.162 -225.992> -853 67<-348.775 -215.562> -291 122<-353.751 -95>
DStem2: -561 -220 -710 -284 0.757002 -0.653412<-181.958 237.339>
>>>>>>> updates
LayerCount: 2
Fore
SplineSet
-786 -320 m 0
 -786 -411 -849 -473 -943 -473 c 0
 -1060 -473 -1133 -403 -1133 -285 c 256
 -1133 -147 -994 -95 -851 -95 c 0
 -728 -95 -634 -151 -561 -220 c 2
 -493 -284 l 2
 -453 -322 -418 -369 -374 -369 c 0
 -300 -369 -291 -281 -291 -191 c 0
 -291 -158 -292 -124 -292 -95 c 1
 -169 -95 l 1
 -169 -296 -180 -475 -373 -475 c 0
 -473 -475 -549 -422 -615 -366 c 2
 -710 -284 l 1
 -739 -255 -770 -230 -803 -215 c 1
 -795 -251 l 2
 -790 -273 -786 -295 -786 -320 c 0
-1017 -286 m 0
 -1017 -334 -997 -367 -951 -367 c 0
 -871 -367 -853 -327 -853 -247 c 2
 -853 -205 l 1
 -962 -207 -1017 -234 -1017 -286 c 0
EndSplineSet
EndChar

StartChar: uni0EBD
Encoding: 245 3773 246
Width: 1227
VWidth: 2211
GlyphClass: 2
<<<<<<< HEAD
Flags: MW
=======
Flags: W
HStem: -408 107<376.261 767.775> 5 80<277 449.504> 307 87<303.844 456.885> 1088 119<828.5 1031.16> 1282 126<358.913 580.123>
VStem: 107 170<-198.037 14 85 264.432> 182 154<1053.44 1260.07> 471 131<103.405 296.232> 894 171<-169.027 595.3> 1082 113<1306 1419>
DStem2: 462 1004 380 900 0.899264 -0.437406<-155.437 484.499> 1082 1419 1144 1244 0.279789 0.960061<-231.155 0>
>>>>>>> updates
LayerCount: 2
Fore
SplineSet
562 -301 m 0xfdc0
 815 -301 894 -191 894 63 c 2
 894 377 l 2
 894 562 829 670 711 739 c 1
 380 900 l 2
 271 954 182 1001 182 1157 c 0
 182 1318 291 1408 453 1408 c 0
 534 1408 858 1207 982 1207 c 0
 1008 1207 1028 1231 1042 1280 c 2
 1082 1419 l 1
 1195 1419 l 1
 1144 1244 l 2
 1121 1163 1096 1088 1016 1088 c 0
 840 1088 662 1219 509 1270 c 0
 485 1278 467 1282 453 1282 c 0
 374 1282 336 1237 336 1155 c 0xfbc0
 336 1070 394 1036 462 1004 c 2
 786 847 l 2
 969 757 1065 646 1065 376 c 2
 1065 92 l 2
 1065 -260 913 -408 561 -408 c 0
 269 -408 107 -282 107 2 c 0
 107 233 163 394 370 394 c 0
 513 394 602 337 602 198 c 0
 602 69 525 5 371 5 c 0
 340 5 314 10 277 14 c 1
 277 0 l 2
 277 -208 354 -301 562 -301 c 0xfdc0
471 198 m 0
 471 266 444 306 380 307 c 1
 289 307 277 224 277 121 c 2
 277 85 l 1xfdc0
 327 85 l 2
 421 85 471 105 471 198 c 0
EndSplineSet
EndChar

StartChar: uni0EC0
Encoding: 246 3776 247
Width: 704
VWidth: 2211
GlyphClass: 2
<<<<<<< HEAD
Flags: MW
=======
Flags: W
HStem: 0 100<325.125 485.41> 300 91<305.573 486.488> 1083 109<359.134 588.404>
VStem: 131 172<119.667 300 365 1023.03> 497 134<111.301 285.361>
>>>>>>> updates
LayerCount: 2
Fore
SplineSet
435 1192 m 0
 492 1192 546 1185 591 1170 c 1
 591 1066 l 1
 525 1078 483 1083 461 1083 c 0
 305 1083 303 911 303 748 c 2
 303 365 l 1
 358 382 406 391 447 391 c 0
 557 391 631 314 631 203 c 0
 631 64 544 0 399 0 c 0
 209 0 131 131 131 332 c 2
 131 664 l 2
 131 942 156 1192 435 1192 c 0
497 202 m 1
 497 286 449 300 359 300 c 2
 303 300 l 1
 303 251 l 2
 303 151 336 100 403 100 c 0
 465 100 496 134 497 202 c 1
EndSplineSet
EndChar

StartChar: uni0EC2
Encoding: 248 3778 249
Width: 845
VWidth: 2211
GlyphClass: 2
<<<<<<< HEAD
Flags: MW
=======
Flags: W
HStem: 0 102<419.921 583.79> 306 90<400.827 582.235> 1749 137<-62.3363 124.386>
VStem: -225 157<1597.13 1744.94> 229 170<125.414 306 366 1198.72> 597 140<114.22 287.631>
DStem2: 179 1433 -153 1517 0.778811 -0.627259<-341.775 162.846> 261 1778 186 1665 0.844213 -0.536008<-200.411 519.084>
>>>>>>> updates
LayerCount: 2
Fore
SplineSet
493 0 m 0
 281 0 229 154 229 384 c 2
 229 944 l 2
 229 1182 163 1274 29 1378 c 2
 -153 1517 l 2
 -199 1552 -225 1597 -225 1666 c 0
 -225 1796 -134 1886 -3 1886 c 0
 109 1886 190 1823 261 1778 c 2
 700 1501 l 1
 627 1385 l 1
 186 1665 l 2
 120 1707 70 1749 2 1749 c 0
 -43 1749 -68 1719 -68 1673 c 0
 -68 1635 -34 1604 -6 1582 c 2
 179 1433 l 2
 330 1311 399 1214 399 941 c 2
 399 366 l 1
 438 379 475 396 517 396 c 0
 638 396 737 326 737 206 c 0
 737 69 656 0 493 0 c 0
502 102 m 0
 568 102 597 138 597 206 c 0
 597 283 544 306 463 306 c 2
 399 306 l 1
 399 251 l 2
 399 162 422 102 502 102 c 0
EndSplineSet
EndChar

StartChar: uni0EC3
Encoding: 249 3779 250
Width: 890
VWidth: 2211
GlyphClass: 2
<<<<<<< HEAD
Flags: MW
=======
Flags: W
HStem: 0 102<405.713 568.537> 306 90<388.78 568.346> 1258 109<141.96 368.184> 1581 20G<337 485> 1788 126<194.212 567.106>
VStem: -37 139<1404.72 1700.54> 214 173<125.771 306 366 929.784> 386 129<1388.86 1595.26> 582 144<115.317 291.259> 684 151<1316.7 1676.01>
>>>>>>> updates
LayerCount: 2
Fore
SplineSet
373 1788 m 0xfe40
 199 1788 102 1713 102 1542 c 0
 102 1425 153 1367 253 1367 c 0
 332 1367 386 1398 386 1475 c 0
 386 1519 367 1563 337 1601 c 1
 473 1601 l 1
 497 1569 515 1528 515 1474 c 0
 515 1331 400 1258 255 1258 c 0
 84 1258 -37 1368 -37 1539 c 0
 -37 1785 129 1914 376 1914 c 0
 656 1914 835 1779 835 1500 c 0xfd40
 835 1330 744 1176 559 1039 c 0
 449 957 387 929 387 746 c 2
 387 366 l 1
 425 379 461 396 502 396 c 0
 625 396 726 328 726 206 c 0xfe80
 726 61 634 0 484 0 c 0
 278 0 214 146 214 366 c 2
 214 697 l 2
 214 925 265 1018 399 1108 c 2
 498 1175 l 2
 609 1251 684 1329 684 1509 c 0
 684 1696 580 1788 373 1788 c 0xfe40
483 102 m 0
 553 102 582 140 582 213 c 0
 582 280 534 306 462 306 c 2
 387 306 l 1
 387 252 l 2xfe80
 387 166 406 102 483 102 c 0
EndSplineSet
EndChar

StartChar: uni0EC4
Encoding: 250 3780 251
Width: 830
VWidth: 2211
GlyphClass: 2
<<<<<<< HEAD
Flags: MW
LayerCount: 2
Fore
SplineSet
451 103 m 1
 513 106 543 139 543 206 c 0
 543 272 505 306 428 306 c 2
 345 306 l 1
 345 247 l 2
 345 155 370 107 451 103 c 1
1 1672 m 2
 15.7918923875 1628.52052055 42.5907808552 1613.33773748 73.0934308956 1613.33773748 c 0
 126.047915685 1613.33773748 190.165206326 1659.09728662 222 1682 c 2
 361 1782 l 2
 446.526416912 1843.55459123 533.608990074 1874.02234339 607.166449356 1874.02234339 c 0
 716.532614321 1874.02234339 796 1806.66996431 796 1674 c 0
 796 1481 479 1364 398 1231 c 0
 358 1164 345 1095 345 989 c 2
 345 366 l 1
 386 380 420 396 456 396 c 0
 583 396 684 332 684 206 c 0
=======
Flags: W
HStem: 0 103<364.844 530.741> 306 90<346.917 529.489> 1480 123<-34.5629 151.854> 1740 127<451.129 642.445>
VStem: -177 139<1605.57 1866> 174 171<129.66 306 366 1215.24> 543 141<115.37 290.303> 647 149<1594.87 1734.1>
LayerCount: 2
Fore
SplineSet
456 396 m 0xfd
 583 396 684 332 684 206 c 0xfe
>>>>>>> updates
 684 69 603 0 442 0 c 0
 264 1 174 123 174 364 c 2
 174 989 l 2
 174 1258 291 1364 450 1482 c 2
 528 1540 l 2
 579 1578 641 1604 647 1672 c 1
 646 1712 622 1735 574 1740 c 1
<<<<<<< HEAD
 474 1736 345.310955224 1624.44919448 287 1581 c 0
 214.893091734 1527.27103829 136.386824048 1492.01445205 64.8178503089 1492.01445205 c 0
 -19.2147470338 1492.01445205 -93.683420915 1540.62004595 -137 1665 c 2
 -207 1866 l 1
 -65 1866 l 1
 1 1672 l 2
=======
 474 1736 349 1619 287 1581 c 0
 208 1532 140 1480 34 1480 c 0
 -93 1480 -177 1538 -177 1665 c 2
 -177 1866 l 1
 -38 1866 l 1
 -38 1662 l 2
 -38 1626 -12 1603 27 1603 c 0
 87 1603 145 1643 198 1676 c 2
 297 1739 l 1
 433 1823 426 1867 580 1867 c 0
 707 1867 796 1801 796 1674 c 0
 796 1481 479 1364 398 1231 c 0
 358 1164 345 1095 345 989 c 2
 345 366 l 1
 386 380 420 396 456 396 c 0xfd
451 103 m 1
 513 106 543 139 543 206 c 0
 543 272 505 306 428 306 c 2
 345 306 l 1
 345 247 l 2
 345 155 370 107 451 103 c 1
>>>>>>> updates
EndSplineSet
EndChar

StartChar: uni0EC6
Encoding: 251 3782 252
Width: 1406
VWidth: 2211
GlyphClass: 2
<<<<<<< HEAD
Flags: MW
=======
Flags: W
HStem: -393 119<517.179 951.776> 437 101<266.337 428.126> 741 92<245.503 426.199> 1086 106<287.417 474.19 859.764 1066.52>
VStem: 73 171<564.237 741 801 1036.01> 440 140<548.797 725> 1123 169<-58.0362 1014.54>
>>>>>>> updates
LayerCount: 2
Fore
SplineSet
984 1192 m 0
 1225 1192 1292 989 1292 718 c 2
 1292 294 l 2
 1292 -123 1176 -393 766 -393 c 0
 564 -393 408 -326 301 -193 c 1
 353 -148 l 1
 470 -220 595 -274 766 -274 c 0
 1073 -274 1123 -22 1123 292 c 2
 1123 793 l 2
 1123 988 1073 1086 970 1086 c 0
 816 1086 804 896 674 896 c 0
 548 896 510 1086 365 1086 c 0
 284 1086 244 1005 244 842 c 2
 244 801 l 1
 276 816 312 833 351 833 c 0
 482 833 580 770 580 640 c 0
 580 499 491 437 344 437 c 0
 149 437 73 577 73 789 c 0
 73 1013 147 1192 366 1192 c 0
 513 1192 610 1108 672 1022 c 1
 738 1104 838 1192 984 1192 c 0
440 630 m 0
 440 633 439 634 439 637 c 0
 439 728 385 741 294 741 c 2
 244 741 l 1
 244 689 l 2
 244 599 263 541 347 538 c 1
 405 539 440 570 440 630 c 0
EndSplineSet
EndChar

StartChar: uni0EC8
Encoding: 252 3784 253
Width: 17
VWidth: 2211
GlyphClass: 2
<<<<<<< HEAD
Flags: MW
=======
Flags: W
HStem: 1461 443<-600 -451>
VStem: -600 149<1461 1904>
>>>>>>> updates
LayerCount: 2
Fore
SplineSet
-600 1461 m 5
 -600 1904 l 5
 -451 1904 l 5
 -451 1461 l 5
 -600 1461 l 5
EndSplineSet
EndChar

StartChar: uni0EC9
Encoding: 253 3785 254
Width: 7
VWidth: 2211
GlyphClass: 2
<<<<<<< HEAD
Flags: HMW
=======
Flags: W
HStem: 1514 123<-957 -452.666> 1514 92<-1237 -1053.95> 1708 82<-1172.07 -1027.24> 1965 98<-1187.29 -1008.58>
VStem: -1297 101<1817.11 1953.63> -999 122<1790.28 1956.18> -349 136<1735.61 1993>
>>>>>>> updates
LayerCount: 2
Fore
SplineSet
-213 1768 m 6
 -213 1467 -396 1378 -701 1378 c 6
 -1237 1378 l 5
 -1237 1470 l 5
 -1179 1470 -1114 1492 -1051 1503 c 5
 -1027 1573 l 5
 -1032 1572 -1040 1572 -1045 1572 c 6
 -1071 1572 l 6
 -1203 1572 -1297 1619 -1297 1743 c 4
 -1297 1861 -1215 1927 -1093 1927 c 4
 -963 1927 -877 1860 -877 1730 c 4
 -877 1657 -913 1580 -946 1523 c 5
 -957 1501 l 5
 -692 1501 l 6
 -487 1501 -349 1544 -349 1744 c 6
 -349 1927 l 5
 -213 1927 l 5
 -213 1768 l 6
-999 1709 m 6
 -999 1786 -1009 1829 -1086 1829 c 4
 -1159 1829 -1196 1803 -1196 1751 c 4
 -1196 1669 -1095 1655 -999 1654 c 5
 -999 1709 l 6
EndSplineSet
EndChar

StartChar: uni0ECA
Encoding: 254 3786 255
Width: 13
VWidth: 2211
GlyphClass: 2
<<<<<<< HEAD
Flags: MW
=======
Flags: W
HStem: 1432 83<-1043.61 -925 -723 -592.063 -549 -346> 1734 86<-1058.17 -894.671 -741.723 -574.998>
VStem: -1177 107<1537.55 1722.19> -870 106<1617 1706.27> -563 104<1543.05 1722.74>
>>>>>>> updates
LayerCount: 2
Fore
SplineSet
-1177 1644 m 4
 -1177 1751 -1105 1820 -997 1820 c 4
 -901 1820 -842 1776 -818 1708 c 5
 -794 1772 -740 1820 -649 1820 c 4
 -536 1820 -459 1754 -459 1642 c 4
 -459 1571 -492 1530 -549 1515 c 5
 -346 1515 l 5
 -346 1432 l 5
 -723 1432 l 5
 -723 1515 l 5
 -633 1515 -563 1545 -563 1635 c 4
 -563 1701 -594 1734 -656 1734 c 4
 -722 1734 -764 1684 -764 1617 c 5
 -870 1617 l 5
 -870 1685 -916 1734 -982 1734 c 4
 -1035 1734 -1070 1697 -1070 1642 c 4
 -1070 1548 -1027 1515 -925 1515 c 5
 -925 1433 l 5
 -1073 1433 -1177 1496 -1177 1644 c 4
EndSplineSet
EndChar

StartChar: uni0ECB
Encoding: 255 3787 256
Width: 28
VWidth: 2211
GlyphClass: 2
<<<<<<< HEAD
Flags: MW
=======
Flags: W
HStem: 1523 114<-1104 -980 -857 -733>
VStem: -980 123<1402 1523 1637 1759>
>>>>>>> updates
LayerCount: 2
Fore
SplineSet
-857 1402 m 5
 -980 1402 l 5
 -980 1523 l 5
 -1104 1523 l 5
 -1104 1637 l 5
 -980 1637 l 5
 -980 1759 l 5
 -857 1759 l 5
 -857 1637 l 5
 -733 1637 l 5
 -733 1523 l 5
 -857 1523 l 5
 -857 1402 l 5
EndSplineSet
EndChar

StartChar: uni0ECC
Encoding: 256 3788 257
Width: 14
VWidth: 2211
GlyphClass: 2
<<<<<<< HEAD
Flags: MW
=======
Flags: W
HStem: 1351 106<-986.371 -839.376> 1580 109<-764.692 -481.559> 1621 108<-983.492 -540.065>
VStem: -1108 115<1462.83 1607.3> -829 68<1473.19 1612> -473 91<1693.32 1806>
>>>>>>> updates
LayerCount: 2
Fore
SplineSet
-761 1494 m 1xdc
 -761 1402 -829 1351 -923 1351 c 0
 -1033 1351 -1108 1429 -1108 1539 c 0
 -1108 1661 -999 1729 -875 1729 c 0xbc
 -755 1729 -643 1689 -535 1689 c 0
 -476 1689 -474 1743 -473 1806 c 1
 -382 1806 l 1
 -382 1670 -395 1580 -528 1580 c 0
 -612 1580 -676 1597 -769 1612 c 1
 -761 1494 l 1xdc
-874 1621 m 0
 -943 1621 -993 1600 -993 1535 c 0
 -993 1487 -966 1457 -917 1457 c 0
 -858 1457 -829 1492 -829 1551 c 2
 -829 1619 l 1
 -843 1621 -858 1621 -874 1621 c 0
EndSplineSet
EndChar

StartChar: uni0ECD
Encoding: 257 3789 258
Width: 16
VWidth: 2211
GlyphClass: 2
<<<<<<< HEAD
Flags: MW
=======
Flags: W
HStem: 1324 106<-755.957 -564.168> 1679 98<-752.085 -565.875>
VStem: -895 112<1458.41 1648.2> -535 111<1458.3 1647.17>
>>>>>>> updates
LayerCount: 2
Fore
SplineSet
-424 1550 m 0
 -424 1419 -526 1324 -658 1324 c 0
 -790 1324 -895 1418 -895 1550 c 0
 -895 1682 -791 1777 -658 1777 c 0
 -528 1777 -424 1681 -424 1550 c 0
-660 1430 m 0
 -588 1430 -535 1482 -535 1554 c 0
 -535 1623 -590 1679 -660 1679 c 0
 -728 1679 -783 1622 -783 1554 c 0
 -783 1484 -731 1430 -660 1430 c 0
EndSplineSet
EndChar

StartChar: uni0ED0
Encoding: 258 3792 259
Width: 1282
VWidth: 2211
GlyphClass: 2
<<<<<<< HEAD
Flags: MW
=======
Flags: W
HStem: 0 108<480.994 810.295> 1088 104<484.897 812.438>
VStem: 132 155<342.97 857.762> 1006 152<343.19 857.11>
>>>>>>> updates
LayerCount: 2
Fore
SplineSet
1158 617 m 0
 1158 269 988 0 645 0 c 0
 302 0 132 269 132 617 c 0
 132 946 319 1192 645 1192 c 0
 970 1192 1158 944 1158 617 c 0
287 621 m 0
 287 350 382 108 646 108 c 0
 911 108 1006 351 1006 621 c 0
 1006 864 886 1088 646 1088 c 256
 406 1088 287 865 287 621 c 0
EndSplineSet
EndChar

StartChar: uni0ED1
Encoding: 259 3793 260
Width: 1409
VWidth: 2211
GlyphClass: 2
<<<<<<< HEAD
Flags: MW
=======
Flags: W
HStem: -99 94<529 716.26> 595 92<613.202 780.221> 1075 117<437.634 897.411>
VStem: 94 170<532.842 907.684> 485 118<397.737 585.792> 795 132<415.192 580.251> 1143 170<361.116 820.758>
>>>>>>> updates
LayerCount: 2
Fore
SplineSet
696 687 m 0
 834 687 927 622 927 485 c 0
 927 348 812 299 667 291 c 2
 602 287 l 1
 313 287 94 416 94 703 c 0
 94 1030 333 1192 665 1192 c 0
 1057 1192 1313 976 1313 586 c 0
 1313 160 936 -85 529 -99 c 1
 529 -5 l 1
 854 34 1143 223 1143 580 c 0
 1143 898 980 1075 662 1075 c 0
 406 1075 264 956 264 704 c 0
 264 524 367 422 529 396 c 1
 511 433 485 473 485 512 c 0
 485 632 569 687 696 687 c 0
602 392 m 1
 701 392 792 398 795 490 c 1
 794 560 759 595 692 595 c 0
 637 595 606 565 603 513 c 1
 603 470 602 443 602 392 c 1
EndSplineSet
EndChar

StartChar: uni0ED2
Encoding: 260 3794 261
Width: 1437
VWidth: 2211
GlyphClass: 2
<<<<<<< HEAD
Flags: MW
=======
Flags: W
HStem: 0 106<493.91 1026> 380 92<675.313 842.145> 677 105<687.936 854>
VStem: 104 171<291.45 614.474> 529 134<484.473 648.702> 854 118<484.725 671.342> 1112 115<1375.19 1513> 1183 171<246.753 571.916>
>>>>>>> updates
LayerCount: 2
Fore
SplineSet
529 576 m 0xfd
 529 730 699 782 874 782 c 0
 1143 782 1354 678 1354 413 c 0xfd
 1354 95 1089 0 744 0 c 0
 419 0 104 126 104 442 c 0
 104 1017 901 1007 1082 1393 c 0
 1099 1429 1109 1469 1112 1513 c 1
 1227 1513 l 1xfe
 1227 959 530 969 316 618 c 0
 289 573 275 521 275 464 c 0
 275 198 500 106 771 106 c 0
 1020 106 1183 184 1183 415 c 0
 1183 580 1085 659 926 674 c 1
 956 617 972 579 972 561 c 0
 972 437 890 380 758 380 c 0
 623 380 529 443 529 576 c 0xfd
663 573 m 0
 663 507 696 472 764 472 c 1
 823 473 854 509 854 579 c 2
 854 677 l 1
 750 675 663 660 663 573 c 0
EndSplineSet
EndChar

StartChar: uni0ED3
Encoding: 261 3795 262
Width: 1661
VWidth: 2211
GlyphClass: 2
<<<<<<< HEAD
Flags: MW
=======
Flags: W
HStem: 0 106<156.865 334.935 880.088 1265.73> 306 90<164.873 318.669> 1761 124<845.994 1093.8>
VStem: 13 134<116.386 289.951> 336 119<123.147 290.539> 578 168<258.738 1192> 1388 170<258.713 952.137>
DStem2: 929 1541 891 1417 0.847732 -0.530425<-142.406 486.951>
>>>>>>> updates
LayerCount: 2
Fore
SplineSet
237 396 m 0
 371 396 455 351 455 222 c 0
 455 200 447 167 432 121 c 1
 548 164 578 288 578 459 c 2
 578 1192 l 1
 746 1192 l 1
 746 461 l 2
 746 224 842 106 1077 106 c 0
 1311 106 1388 234 1388 473 c 0
 1388 975 1333 1148 1016 1341 c 2
 891 1417 l 2
 806 1468 686 1525 686 1650 c 0
 686 1807 777 1885 937 1885 c 0
 1161 1885 1390 1663 1534 1554 c 1
 1473 1468 l 1
 1336 1559 1109 1761 941 1761 c 0
 872 1761 833 1728 828 1665 c 1
 832 1605 880 1572 929 1541 c 2
 1108 1429 l 2
 1407 1242 1558 1139 1558 635 c 0
 1558 235 1481 0 1091 0 c 0
 870 0 707 79 662 255 c 1
 622 83 490 0 276 0 c 0
 122 0 13 55 13 200 c 0
 13 326 105 396 237 396 c 0
147 197 m 1
 147 106 209 102 301 102 c 0
 320 102 333 102 336 103 c 1
 336 200 l 1
 331 267 301 303 248 306 c 1
 182 304 149 267 147 197 c 1
EndSplineSet
EndChar

StartChar: uni0ED4
Encoding: 262 3796 263
Width: 1386
VWidth: 2211
GlyphClass: 2
<<<<<<< HEAD
Flags: MW
=======
Flags: W
HStem: 0 106<451.34 1099> 567 92<880.052 1054.95> 863 101<897.295 1052.85>
VStem: 107 170<292.183 851.201> 702 169<553.903 840.137> 1070 133<676.193 847.497>
>>>>>>> updates
LayerCount: 2
Fore
SplineSet
878 596 m 1
 909 361 1082 175 1346 175 c 1
 1327 0 l 1
 629 0 l 2
 300 0 107 172 107 501 c 0
 107 820 159 985 380 1088 c 0
 627 1203 935 1297 1087 1509 c 1
 1169 1440 l 1
 1011 1192 725 1103 453 976 c 1
 290 901 277 773 277 528 c 0
 277 268 384 106 643 106 c 2
 1099 106 l 1
 905 205 702 358 702 644 c 0
 702 842 775 964 964 964 c 0
 1108 964 1203 909 1203 772 c 0
 1203 646 1120 567 994 567 c 0
 952 567 922 580 878 596 c 1
977 863 m 1
 907 862 871 809 871 704 c 0
 871 691 869 669 872 659 c 1
 944 659 l 2
 1028 659 1070 688 1070 768 c 1
 1064 827 1032 860 977 863 c 1
EndSplineSet
EndChar

StartChar: uni0ED5
Encoding: 263 3797 264
Width: 1386
VWidth: 2211
GlyphClass: 2
<<<<<<< HEAD
Flags: MW
=======
Flags: W
HStem: 0 106<456.96 1101> 567 92<879.779 1051.49> 861 103<893.721 1055.15> 1355 122<488.861 675.814>
VStem: 107 170<283.858 830.053> 352 123<1196.77 1338.98> 680 126<1266.55 1348.25> 702 170<659 843.009> 1071 133<676.784 847.244>
>>>>>>> updates
LayerCount: 2
Fore
SplineSet
352 1278 m 0xfd80
 352 1404 471 1477 600 1477 c 0
 722 1477 806 1415 806 1294 c 0xfe80
 806 1284 805 1276 803 1266 c 1
 825 1275 l 1
 924 1326 989 1412 1076 1516 c 1
 1155 1456 l 1
 1050 1289 919 1160 701 1107 c 1
 596 988 407 1011 332 858 c 0
 286 763 277 640 277 487 c 0
 277 246 410 106 651 106 c 2
 1101 106 l 1
 902 209 702 350 702 644 c 0
 702 839 779 964 967 964 c 0
 1125 964 1204 903 1204 779 c 0
 1204 652 1118 567 989 567 c 0
 951 567 916 583 878 596 c 1
 914 353 1088 196 1346 175 c 1
 1327 0 l 1
 638 0 l 2
 317 0 107 163 107 483 c 0
 107 839 179 1018 434 1116 c 5
 383 1146 352 1198 352 1278 c 0xfd80
475 1266 m 0
 475 1206 522 1186 588 1184 c 1
 648 1184 680 1230 680 1296 c 1
 677 1337 644 1355 598 1355 c 0
 530 1355 475 1331 475 1266 c 0
978 861 m 1
 880 861 874 779 872 681 c 1
 872 659 l 1xfd80
 928 659 l 2
 1021 659 1068 678 1071 767 c 1
 1065 826 1033 858 978 861 c 1
EndSplineSet
EndChar

StartChar: uni0ED6
Encoding: 264 3798 265
Width: 1553
VWidth: 2211
GlyphClass: 2
<<<<<<< HEAD
Flags: MW
=======
Flags: W
HStem: 1 105<349.905 605.526 941.438 1191.66> 796 91<277.237 458.836> 1089 103<298.478 461.527> 1332 21G<1580.72 1622.69> 1700 123<946.682 1136.23>
VStem: 104 171<197.032 827 887 1069> 473 134<902.901 1079.85> 688 169<249.794 504> 786 155<1546.76 1695.47> 1270 169<206.793 1009.03>
DStem2: 1421 1622 1181 1625 0.825779 -0.563994<-377.603 315.476>
>>>>>>> updates
LayerCount: 2
Fore
SplineSet
391 796 m 0xfec0
 353 796 323 811 275 827 c 1
 275 414 l 2
 275 235 305 106 480 106 c 0
 637 106 688 245 688 419 c 2
 688 504 l 1
 857 504 l 1
 857 415 l 2xff40
 857 243 908 106 1066 106 c 0
 1265 106 1270 304 1270 511 c 0
 1270 909 1273 1166 1030 1335 c 0
 935 1400 786 1481 786 1633 c 0
 786 1742 879 1823 989 1823 c 0
 1182 1823 1296 1714 1421 1622 c 2
 1676 1436 l 1
 1610 1332 l 1
 1181 1625 l 2
 1124 1665 1078 1700 1014 1700 c 0
 972 1700 941 1675 941 1633 c 0
 941 1523 1191 1406 1260 1333 c 0
 1431 1150 1439 861 1439 499 c 0
 1439 200 1350 0 1076 0 c 0
 899 0 795 86 772 244 c 1
 745 82 647 1 480 1 c 0
 175 1 104 192 104 500 c 2
 104 863 l 2
 104 1066 181 1192 374 1192 c 0
 519 1192 607 1134 607 995 c 0
 607 866 520 796 391 796 c 0xfec0
317 887 m 2
 412 887 473 894 473 987 c 0
 473 1055 443 1089 384 1089 c 0
 312 1088 275 1040 275 948 c 2
 275 887 l 1
 317 887 l 2
EndSplineSet
EndChar

StartChar: uni0ED7
Encoding: 265 3799 266
Width: 1529
VWidth: 2211
GlyphClass: 2
<<<<<<< HEAD
Flags: MW
=======
Flags: W
HStem: 0 103<228.577 393.635> 306 89<226.431 409.086> 808 100<222.449 409.267> 1085 107<220.749 392.96 783.383 1127.57>
VStem: 80 135<112.691 293.759 917.111 1076.26> 411 169<130.584 306 365 839> 1218 172<-132.127 986.573>
>>>>>>> updates
LayerCount: 2
Fore
SplineSet
558 1028 m 1
 677 1108 787 1188 967 1192 c 1
 1282 1192 1390 1033 1390 715 c 2
 1390 166 l 2
 1390 30 1404 -96 1430 -203 c 1
 1288 -203 l 1
 1244 -101 1218 29 1218 179 c 2
 1218 739 l 2
 1218 956 1185 1085 966 1085 c 0
 817 1085 693 993 577 929 c 1
 578 911 580 893 580 874 c 2
 580 354 l 2
 580 147 504 0 312 0 c 0
 165 0 80 62 80 206 c 0
 80 324 171 395 290 395 c 0
 340 395 370 374 411 365 c 1
 411 839 l 1
 367 818 331 808 304 808 c 0
 171 808 80 867 80 997 c 0
 80 1131 170 1192 311 1192 c 0
 445 1192 522 1130 558 1028 c 1
313 1090 m 0
 256 1090 212 1058 212 1001 c 0
 212 939 245 908 310 908 c 0
 348 908 381 922 411 937 c 1
 411 958 l 2
 411 1034 383 1090 313 1090 c 0
332 306 m 2
 256 306 215 282 215 211 c 0
 215 141 243 104 300 103 c 1
 394 103 411 157 411 256 c 2
 411 306 l 1
 332 306 l 2
EndSplineSet
EndChar

StartChar: uni0ED8
Encoding: 266 3800 267
Width: 1588
VWidth: 2211
GlyphClass: 2
<<<<<<< HEAD
Flags: MW
=======
Flags: W
HStem: -651 101<896.216 1065.13> -639 137<271.809 539.513> 0 102<335.07 496.884> 306 90<315.008 492.197> 1085 107<394.15 653.012 975.855 1229.65>
VStem: 107 150<-488.168 -311.525> 142 171<124.918 306 378 989.66> 509 133<113.597 289.621> 728 170<680 941.762> 1073 117<-539.714 -389.35> 1311 170<127.126 986.824>
DStem2: 409 -136 384 -280 0.96006 0.279795<-202.786 863.824> 639 -408 772 -474 0.853096 0.521753<-246.407 79.0261 442.52 744.548>
>>>>>>> updates
LayerCount: 2
Fore
SplineSet
772 -474 m 1xbbe0
 645 -543 521 -639 358 -639 c 0
 208 -639 107 -560 107 -411 c 0x7de0
 107 -219 260 -180 409 -136 c 2
 1308 126 l 1
 1310 150 1311 176 1311 204 c 2
 1311 747 l 2
 1311 936 1283 1085 1099 1085 c 0
 925 1085 898 929 898 752 c 2
 898 680 l 1
 728 680 l 1
 728 752 l 2
 728 927 703 1085 535 1085 c 0
 357 1085 313 960 313 780 c 2
 313 378 l 1
 356 390 388 396 411 396 c 0
 543 396 642 335 642 205 c 0
 642 68 563 0 403 0 c 0
 216 0 142 140 142 340 c 2
 142 693 l 2
 142 993 221 1192 516 1192 c 0
 706 1192 788 1113 813 948 c 1
 832 1113 921 1192 1101 1192 c 0
 1398 1192 1481 999 1481 699 c 2
 1481 217 l 2
 1481 17 1439 -64 1319 -143 c 2
 1088 -294 l 1
 1147 -326 1190 -380 1190 -469 c 0
 1190 -578 1091 -651 982 -651 c 0
 865 -651 791 -578 772 -474 c 1xbbe0
313 230 m 2x3be0
 313 155 345 102 417 102 c 0
 477 102 508 136 509 206 c 1
 509 292 449 306 354 306 c 2
 313 306 l 1
 313 230 l 2x3be0
257 -393 m 1x7de0
 258 -465 291 -502 357 -502 c 0
 476 -502 552 -449 639 -408 c 1
 1208 -60 l 2
 1234 -45 1254 -26 1270 -3 c 1
 384 -280 l 2
 319 -299 257 -315 257 -393 c 1x7de0
1073 -469 m 0
 1073 -418 1038 -379 987 -379 c 0
 930 -379 887 -405 887 -467 c 0
 887 -524 923 -550 980 -550 c 0xb9e0
 1034 -550 1073 -522 1073 -469 c 0
EndSplineSet
EndChar

StartChar: uni0ED9
Encoding: 267 3801 268
Width: 1525
VWidth: 2211
GlyphClass: 2
<<<<<<< HEAD
Flags: MW
=======
Flags: W
HStem: 0 106<294.179 461.637 964.133 1193.31> 306 90<276.871 455.759> 1085 107<369.109 629.233>
VStem: 106 169<119.127 306 366 966.063> 473 134<113.928 289.632> 720 171<189.4 975.511> 1260 171<174.485 1192>
>>>>>>> updates
LayerCount: 2
Fore
SplineSet
891 379 m 2
 891 225 943 106 1087 106 c 0
 1219 106 1260 231 1260 380 c 2
 1260 1192 l 1
 1431 1192 l 1
 1431 460 l 2
 1431 182 1359 0 1087 0 c 0
 817 0 720 173 720 454 c 2
 720 742 l 2
 720 939 671 1085 495 1085 c 0
 329 1085 275 927 275 740 c 2
 275 366 l 1
 315 379 349 396 380 396 c 0
 513 396 607 334 607 203 c 0
 607 60 519 0 373 0 c 0
 169 0 106 136 106 352 c 2
 106 710 l 2
 106 990 220 1192 496 1192 c 0
 783 1192 891 1010 891 712 c 2
 891 379 l 2
275 259 m 2
 275 162 296 102 381 102 c 0
 440 102 472 136 473 206 c 1
 473 285 422 306 340 306 c 2
 275 306 l 1
 275 259 l 2
EndSplineSet
EndChar

StartChar: uni0EDC
Encoding: 268 3804 269
Width: 2751
VWidth: 2211
GlyphClass: 2
<<<<<<< HEAD
Flags: MW
=======
Flags: W
HStem: 0 106<460.029 863.071 1263 1493.62 1973.13 2359.04> 778 99<789.41 969.804> 794 93<179.099 324.504 895.173 971> 1089 103<176.795 353.5 786.626 952.748 1323.57 1569.07>
VStem: 32 134<902.266 1077.87> 197 170<186.977 536.156> 369 150<889.951 1073.82> 638 133<897.627 1072.28> 971 171<215.397 788 879.67 921.91> 1646 171<258.254 998.877> 2472 171<228.803 1192>
>>>>>>> updates
LayerCount: 2
Fore
SplineSet
638 997 m 0xdfe0
 638 1132 750 1192 897 1192 c 0
 1034 1192 1106 1124 1133 1008 c 1
 1219 1087 1313 1191 1473 1191 c 0
 1757 1191 1817 985 1817 696 c 2
 1817 415 l 2
 1817 223 1963 106 2157 106 c 0
 2394 106 2472 201 2472 438 c 2
 2472 1192 l 1
 2643 1192 l 1
 2643 469 l 2
 2643 146 2480 0 2156 0 c 0
 1928 0 1784 84 1729 255 c 1
 1694 87 1538 1 1263 0 c 1
 1263 106 l 1
 1495 106 1646 192 1646 413 c 2
 1646 689 l 2
 1646 894 1641 1086 1444 1086 c 0
 1324 1086 1209 946 1142 877 c 1xdfe0
 1142 487 l 2
 1142 152 1027 0 694 0 c 0
 447 0 197 72 197 312 c 0
 197 436 246 551 288 689 c 2
 326 812 l 1
 294 803 268 794 233 794 c 0xbfe0
 111 794 32 872 32 995 c 0
 32 1139 130 1192 282 1192 c 0
 412 1192 519 1111 519 981 c 0
 519 775 367 497 367 299 c 0
 367 150 528 106 682 106 c 0
 908 106 971 222 971 450 c 2
 971 788 l 1
 946 780 919 778 888 778 c 0
 732 778 638 845 638 997 c 0xdfe0
971 940 m 2
 971 1025 956 1089 884 1089 c 0
 815 1089 771 1058 771 990 c 0
 771 913 818 877 894 877 c 0
 919 877 945 882 971 892 c 1
 971 940 l 2
267 1089 m 0
 199 1089 166 1062 166 995 c 0
 166 909 209 887 298 887 c 2
 348 887 l 1xbfe0
 362 944 369 981 369 995 c 0
 369 1051 326 1089 267 1089 c 0
EndSplineSet
EndChar

StartChar: uni0EDD
Encoding: 269 3805 270
Width: 2890
VWidth: 2211
GlyphClass: 2
<<<<<<< HEAD
Flags: MW
=======
Flags: W
HStem: 0 106<464.184 865.741 1489.37 1659.43 2034.99 2388.6> 312 98<1494.1 1672.37> 778 99<792.129 970.689> 794 93<180.709 325.318 890.403 972> 1089 103<176.505 352.997 786.426 953.224 1346.45 1591.29>
VStem: 32 134<903.101 1077.58> 197 171<192.623 538.9> 369 150<889.694 1074.38> 639 132<898.762 1073.32> 972 172<219.119 786 879.464 905.79> 1343 134<115.027 298.298> 1675 169<242.283 274 379 976.884> 2499 171<227.2 1192>
>>>>>>> updates
LayerCount: 2
Back
SplineSet
1785.09960938 952 m 5
 1895.29726528 1026.03905006 1997.13312424 1100.11705849 2164.09960938 1104 c 5
 2456.37331032 1104 2555.09960938 955.899831239 2555.09960938 662 c 6
 2555.09960938 154 l 6
 2555.09960938 27.7684659256 2568.41861565 -88.9703899141 2592.09960938 -188 c 5
 2461.09960938 -188 l 5
 2420.31003814 -93.5399402972 2396.09960938 26.9665492341 2396.09960938 166 c 6
 2396.09960938 684 l 6
 2396.09960938 885.341064627 2366.02336575 1005 2163.09960938 1005 c 4
 2025.46246623 1005 1910.2188687 919.052925013 1803.09960938 860 c 5
 1804.40410705 843.041530294 1805.09960938 826.956400863 1805.09960938 809 c 6
 1805.09960938 328 l 6
 1805.09960938 135.962340278 1735.45839249 0 1557.09960938 0 c 4
 1421.33599089 0 1342.09960938 57.7161060682 1342.09960938 191 c 4
 1342.09960938 300.086613093 1426.76967518 366 1537.09960938 366 c 4
 1544.09960938 366 1544.09960938 366 1550.09960938 366 c 132
 1554.09960938 366 1558.43294271 365.666666667 1563.09960938 365 c 6
 1649.09960938 338 l 5
 1649.09960938 777 l 5
 1608.43294271 757.666666667 1575.43294271 748 1550.09960938 748 c 4
 1427.58883101 748 1342.09960938 802.788553597 1342.09960938 923 c 4
 1342.09960938 1046.69557461 1425.49923622 1104 1556.09960938 1104 c 4
 1680.03801654 1104 1752.05483785 1046.05050356 1785.09960938 952 c 5
1558.09960938 1009 m 4
 1505.32233659 1009 1465.09960938 980.247538995 1465.09960938 927 c 4
 1465.09960938 869.666666667 1495.09960938 841 1555.09960938 841 c 4
 1590.33219995 841 1621.57914128 854.239765954 1649.09960938 868 c 5
 1649.09960938 887 l 6
 1649.09960938 957.11499115 1622.99049189 1009 1558.09960938 1009 c 4
1576.09960938 283 m 6
 1506.57196853 283 1467.09960938 260.567377329 1467.09960938 195 c 4
 1467.09960938 129.666666667 1493.43294271 96.3333333333 1546.09960938 95 c 5
 1632.68354038 95 1649.09960938 145.434322766 1649.09960938 237 c 6
 1649.09960938 283 l 5
 1576.09960938 283 l 6
EndSplineSet
Fore
SplineSet
1490 1092 m 0xeff8
 1347 1092 1225 948 1144 862 c 1
 1144 509 l 2
 1144 167 1040 0 700 0 c 0
 455 0 197 74 197 311 c 0
 197 430 242 536 281 662 c 2
 327 811 l 1
 291 802 262 794 229 794 c 0xdff8
 108 794 32 873 32 995 c 0
 32 1138 136 1192 286 1192 c 0
 418 1192 519 1113 519 981 c 0
 519 922 368 444 368 313 c 0
 368 175 475 106 690 106 c 0
 922 106 972 237 972 472 c 2
 972 786 l 1
 945 781 919 778 889 778 c 0
 743 778 639 845 639 989 c 0
 639 1126 749 1192 896 1192 c 0
 1039 1192 1120 1113 1138 983 c 1
 1242 1090 1319 1197 1511 1197 c 0
 1731 1197 1844 999 1844 693 c 2
 1844 281 l 17
 1914 205 2072 106 2210 106 c 0
 2445 106 2499 236 2499 474 c 2
 2499 1192 l 1
 2670 1192 l 1
 2670 481 l 2
 2670 160 2533 0 2262 0 c 0
 2014 0 1885 93 1799 184 c 1
 1788 61 1696 0 1572 0 c 0
 1409 0 1343 81 1343 205 c 0
 1343 326 1425 410 1558 410 c 1
 1558 410 1619 406 1675 379 c 9
 1675 689 l 2
 1675 884 1647 1092 1490 1092 c 0xeff8
885 1089 m 0
 816 1089 771 1057 771 990 c 0
 771 915 819 877 895 877 c 0xeff8
 917 877 943 881 972 889 c 1
 972 941 l 2
 972 1039 942 1089 885 1089 c 0
260 1089 m 0
 200 1089 166 1057 166 995 c 0
 166 913 210 887 294 887 c 2
 350 887 l 1xdff8
 363 935 369 968 369 990 c 0
 369 1053 328 1089 260 1089 c 0
1609 302 m 2
 1593 310 1578 312 1564 312 c 0
 1511 312 1479 265 1477 207 c 1
 1479 137 1510 103 1572 103 c 0
 1671 103 1675 174 1675 274 c 1
 1609 302 l 2
EndSplineSet
EndChar

StartChar: endash
Encoding: 273 8211 274
Width: 1375
VWidth: 2211
GlyphClass: 2
<<<<<<< HEAD
Flags: MW
=======
Flags: W
HStem: 599 156<399 907>
VStem: 399 508<599 755>
>>>>>>> updates
LayerCount: 2
Fore
SplineSet
907 599 m 1
 399 599 l 1
 399 755 l 1
 907 755 l 1
 907 599 l 1
EndSplineSet
EndChar

StartChar: emdash
Encoding: 274 8212 275
Width: 1370
VWidth: 2211
GlyphClass: 2
<<<<<<< HEAD
Flags: MW
=======
Flags: W
HStem: 599 156<140 1155>
>>>>>>> updates
LayerCount: 2
Fore
SplineSet
1155 599 m 1
 140 599 l 1
 140 755 l 1
 1155 755 l 1
 1155 599 l 1
EndSplineSet
EndChar

StartChar: quoteleft
Encoding: 275 8216 276
Width: 846
VWidth: 2211
GlyphClass: 2
<<<<<<< HEAD
Flags: MW
=======
Flags: W
VStem: 74 427
>>>>>>> updates
LayerCount: 2
Fore
SplineSet
501 384 m 1
 429 356 l 1
 74 956 l 1
 336 1052 l 1
 501 384 l 1
EndSplineSet
EndChar

StartChar: quoteright
Encoding: 276 8217 277
Width: 581
VWidth: 2211
GlyphClass: 2
<<<<<<< HEAD
Flags: MW
=======
Flags: W
HStem: 1116 101<173.193 214.585>
VStem: 125 304<1395.3 1705> 267 162<1272.5 1389>
>>>>>>> updates
LayerCount: 2
Fore
SplineSet
125 1389 m 1xc0
 125 1705 l 1
 429 1705 l 1
 429 1436 l 2xc0
 429 1256 328 1158 181 1116 c 1
 126 1217 l 1
 210 1246 267 1279 267 1389 c 1xa0
 125 1389 l 1xc0
EndSplineSet
EndChar

StartChar: quotesinglbase
Encoding: 277 8218 278
Width: 700
VWidth: 2211
GlyphClass: 2
<<<<<<< HEAD
Flags: MW
=======
Flags: W
HStem: -273 101<295.193 336.567>
VStem: 247 303<7.28421 316> 388 162<-121.063 0>
>>>>>>> updates
LayerCount: 2
Fore
SplineSet
247 0 m 1xc0
 247 316 l 1
 550 316 l 1
 550 48 l 2xc0
 550 -132 450 -231 303 -273 c 1
 248 -172 l 1
 332 -143 388 -110 388 0 c 1xa0
 247 0 l 1xc0
EndSplineSet
EndChar

StartChar: quotedblleft
Encoding: 278 8220 279
Width: 1017
VWidth: 2211
GlyphClass: 2
<<<<<<< HEAD
Flags: MW
=======
Flags: W
HStem: 1148 316<317 459 716 857> 1636 102<369.415 410.73 767.433 808.73>
VStem: 155 304<1148 1457.72> 155 162<1464 1585.76> 554 303<1148 1457.72> 554 162<1464 1585.76>
>>>>>>> updates
LayerCount: 2
Fore
SplineSet
857 1464 m 1xc8
 857 1148 l 1
 554 1148 l 1
 554 1417 l 2xc8
 554 1597 654 1696 801 1738 c 1
 856 1636 l 1
 771 1607 716 1576 716 1464 c 1xc4
 857 1464 l 1xc8
459 1464 m 1xe0
 459 1148 l 1
 155 1148 l 1
 155 1417 l 2xe0
 155 1597 256 1696 403 1738 c 1
 458 1636 l 1
 373 1607 317 1576 317 1464 c 1xd0
 459 1464 l 1xe0
EndSplineSet
EndChar

StartChar: quotedblright
Encoding: 279 8221 280
Width: 898
VWidth: 2211
GlyphClass: 2
<<<<<<< HEAD
Flags: MW
=======
Flags: W
HStem: 1116 101<171.193 212.567 570.193 611.567> 1389 316<123 264 521 663>
VStem: 123 303<1395.3 1705> 264 162<1267.94 1389> 521 304<1395.3 1705> 663 162<1267.94 1389>
>>>>>>> updates
LayerCount: 2
Fore
SplineSet
521 1389 m 1xc8
 521 1705 l 1
 825 1705 l 1
 825 1436 l 2xc8
 825 1256 725 1158 578 1116 c 1
 523 1217 l 1
 607 1246 663 1279 663 1389 c 1xc4
 521 1389 l 1xc8
123 1389 m 1xe0
 123 1705 l 1
 426 1705 l 1
 426 1436 l 2xe0
 426 1256 326 1158 179 1116 c 1
 124 1217 l 1
 208 1246 264 1279 264 1389 c 1xd0
 123 1389 l 1xe0
EndSplineSet
EndChar

StartChar: quotedblbase
Encoding: 280 8222 281
Width: 1203
VWidth: 2211
GlyphClass: 2
<<<<<<< HEAD
Flags: MW
=======
Flags: W
HStem: -273 101<367.193 408.585 766.193 807.567> 0 316<319 461 718 859>
VStem: 319 304<7.28421 316> 461 162<-121.063 0> 718 303<7.28421 316> 859 162<-121.063 0>
>>>>>>> updates
LayerCount: 2
Fore
SplineSet
718 0 m 1xc8
 718 316 l 1
 1021 316 l 1
 1021 48 l 2xc8
 1021 -132 921 -231 774 -273 c 1
 719 -172 l 1
 803 -143 859 -110 859 0 c 1xc4
 718 0 l 1xc8
319 0 m 1xe0
 319 316 l 1
 623 316 l 1
 623 48 l 2xe0
 623 -132 522 -231 375 -273 c 1
 320 -172 l 1
 404 -143 461 -110 461 0 c 1xd0
 319 0 l 1xe0
EndSplineSet
EndChar

StartChar: dagger
Encoding: 281 8224 282
Width: 1157
VWidth: 2211
GlyphClass: 2
<<<<<<< HEAD
Flags: MW
=======
Flags: W
HStem: 0 21G<486 691> 1102 152<123 485 693 1045> 1565 20G<485 693>
VStem: 486 205<0 1102 1254 1585>
>>>>>>> updates
LayerCount: 2
Fore
SplineSet
1045 1102 m 1
 691 1102 l 1
 691 0 l 1
 486 0 l 1
 486 1102 l 1
 123 1102 l 1
 123 1254 l 1
 485 1254 l 1
 485 1585 l 1
 693 1585 l 1
 693 1254 l 1
 1045 1254 l 1
 1045 1102 l 1
EndSplineSet
EndChar

StartChar: daggerdbl
Encoding: 282 8225 283
Width: 1338
VWidth: 2211
GlyphClass: 2
<<<<<<< HEAD
Flags: MW
=======
Flags: W
HStem: 0 21G<584 790> 329 151<222 584 790 1142> 1102 152<222 584 792 1144> 1565 20G<584 792>
VStem: 584 206<0 329 480 1102 1254 1585>
>>>>>>> updates
LayerCount: 2
Fore
SplineSet
1144 1102 m 1
 790 1102 l 1
 790 480 l 1
 1142 480 l 1
 1142 329 l 1
 790 329 l 1
 790 0 l 1
 584 0 l 1
 584 329 l 1
 222 329 l 1
 222 480 l 1
 584 480 l 1
 584 1102 l 1
 222 1102 l 1
 222 1254 l 1
 584 1254 l 1
 584 1585 l 1
 792 1585 l 1
 792 1254 l 1
 1144 1254 l 1
 1144 1102 l 1
EndSplineSet
EndChar

StartChar: bullet
Encoding: 283 8226 284
Width: 1476
VWidth: 2211
GlyphClass: 2
<<<<<<< HEAD
Flags: MW
=======
Flags: W
HStem: 387 723<525.523 887.396>
VStem: 332 754<580.83 925.575>
>>>>>>> updates
LayerCount: 2
Fore
SplineSet
1086 747 m 0
 1086 543 915 387 708 387 c 0
 494 387 332 534 332 747 c 256
 332 961 493 1110 708 1110 c 0
 921 1110 1086 960 1086 747 c 0
EndSplineSet
EndChar

StartChar: ellipsis
Encoding: 284 8230 285
Width: 1681
VWidth: 2211
GlyphClass: 2
<<<<<<< HEAD
Flags: MW
=======
Flags: W
HStem: -18 248<173.282 359.105 732.282 918.698 1291.88 1477.7>
VStem: 147 237<8.28798 203.712> 706 238<8.28798 203.712> 1266 237<8.28798 203.712>
CounterMasks: 1 70
>>>>>>> updates
LayerCount: 2
Fore
SplineSet
1266 106 m 256
 1266 177 1315 230 1386 230 c 0
 1455 230 1503 175 1503 106 c 256
 1503 37 1455 -18 1386 -18 c 0
 1314 -18 1266 35 1266 106 c 256
706 106 m 256
 706 177 756 230 827 230 c 0
 896 230 944 175 944 106 c 256
 944 37 896 -18 827 -18 c 0
 755 -18 706 35 706 106 c 256
147 106 m 256
 147 177 197 230 268 230 c 0
 337 230 384 175 384 106 c 256
 384 37 337 -18 268 -18 c 0
 196 -18 147 35 147 106 c 256
EndSplineSet
EndChar

StartChar: guilsinglleft
Encoding: 286 8249 287
Width: 830
VWidth: 2211
GlyphClass: 2
<<<<<<< HEAD
Flags: MW
=======
Flags: W
HStem: 107 223<522 745> 909 224<521 745>
VStem: 88 657
DStem2: 262 623 88 519 0.8472 -0.531273<0 564.861>
>>>>>>> updates
LayerCount: 2
Fore
SplineSet
745 909 m 1
 262 623 l 1
 745 330 l 1
 745 107 l 1
 88 519 l 1
 88 719 l 1
 745 1133 l 1
 745 909 l 1
EndSplineSet
EndChar

StartChar: guilsinglright
Encoding: 287 8250 288
Width: 830
VWidth: 2211
GlyphClass: 2
<<<<<<< HEAD
Flags: MW
=======
Flags: W
HStem: 107 223<88 311> 909 224<88 312>
VStem: 88 657
DStem2: 88 330 88 107 0.8472 0.531273<0 564.014>
>>>>>>> updates
LayerCount: 2
Fore
SplineSet
88 1133 m 1
 745 719 l 1
 745 519 l 1
 88 107 l 1
 88 330 l 1
 570 623 l 1
 88 909 l 1
 88 1133 l 1
EndSplineSet
EndChar

StartChar: Euro
Encoding: 288 8364 289
Width: 1256
VWidth: 2211
GlyphClass: 2
<<<<<<< HEAD
Flags: MW
=======
Flags: W
HStem: -41 151<611.478 1001.19> 620 132<70 243 431 812> 874 131<53 247 448 874> 1413 141<619.219 1015.8>
VStem: 247 183<349.057 620 752 874> 273 175<1005 1230.63>
>>>>>>> updates
LayerCount: 2
Fore
SplineSet
273 1005 m 1xf4
 294 1338 462 1554 814 1554 c 0
 946 1554 1059 1529 1144 1486 c 1
 1097 1354 l 1
 1020 1354 921 1413 811 1413 c 0
 562 1413 448 1262 448 1005 c 1xf4
 874 1005 l 1
 874 874 l 1
 436 874 l 1
 431 838 432 800 431 752 c 1
 812 752 l 1
 812 620 l 1
 430 620 l 1
 430 345 518 114 774 110 c 1
 897 110 1006 150 1082 192 c 1
 1138 59 l 1
 1066 -13 889 -41 739 -41 c 0
 410 -41 260 287 247 620 c 1
 70 620 l 1
 70 752 l 1
 243 752 l 1
 244 800 245 837 247 874 c 1xf8
 53 874 l 1
 53 1005 l 1
 273 1005 l 1xf4
EndSplineSet
EndChar

StartChar: uni20AD
Encoding: 289 8365 290
Width: 1008
VWidth: 2211
GlyphClass: 2
<<<<<<< HEAD
Flags: MW
=======
Flags: W
HStem: 0 21G<111 273 704.407 902> 540 110<456 902>
VStem: 111 162<0 540 650 1145> 721 181<0 181 964 1145>
DStem2: 273 650 456 650 0.669379 0.742921<122.496 665.62> 453 540 273 540 0.639344 -0.768921<0 586.562>
>>>>>>> updates
LayerCount: 2
Fore
SplineSet
273 650 m 1
 718 1145 l 1
 902 1145 l 1
 456 650 l 1
 902 650 l 1
 902 540 l 1
 453 540 l 1
 902 0 l 1
 721 0 l 1
 273 540 l 1
 273 0 l 1
 111 0 l 1
 111 1145 l 1
 273 1145 l 1
 273 650 l 1
EndSplineSet
EndChar

StartChar: trademark
Encoding: 290 8482 291
Width: 1765
VWidth: 2211
GlyphClass: 2
<<<<<<< HEAD
Flags: MW
=======
Flags: W
HStem: 674 145<1147 1339> 1415 111<80 307 452 678>
VStem: 307 145<674 1415> 797 138<674 1391> 1552 137<674 1391>
DStem2: 1044 1526 935 1391 0.283542 -0.95896<98.5535 734.409> 1243 819 1339 674 0.284771 0.958596<0 636.311>
>>>>>>> updates
LayerCount: 2
Fore
SplineSet
1243 819 m 1
 1442 1526 l 1
 1689 1526 l 1
 1689 674 l 1
 1552 674 l 1
 1552 1391 l 1
 1339 674 l 1
 1147 674 l 1
 935 1391 l 1
 935 674 l 1
 797 674 l 1
 797 1526 l 1
 1044 1526 l 1
 1243 819 l 1
678 1415 m 1
 452 1415 l 1
 452 674 l 1
 307 674 l 1
 307 1415 l 1
 80 1415 l 1
 80 1526 l 1
 678 1526 l 1
 678 1415 l 1
EndSplineSet
EndChar

StartChar: uni25CC
Encoding: 291 9676 292
Width: 1264
VWidth: 2211
GlyphClass: 2
<<<<<<< HEAD
Flags: MW
=======
Flags: W
HStem: 1 90<534 733> 976 90<534 733>
VStem: 97 85<447.298 467.722 599.278 619.702> 534 199<1 91 976 1066>
DStem2: 241 906 294 833 0.808953 0.587873<0 197.365> 294 233 241 161 0.808953 -0.587873<0 196.817> 866 1023 814 950 0.808953 -0.587873<0.84915 199.023> 814 117 866 44 0.808953 0.587873<0 197.626> 1110 793 1024 765 0.30715 -0.951661<0.231621 198.6> 1024 302 1110 274 0.30715 0.951661<0 198.368>
>>>>>>> updates
LayerCount: 2
Fore
SplineSet
733 976 m 1
 534 976 l 1
 534 1066 l 1
 733 1066 l 1
 733 976 l 1
866 1023 m 1
 1027 906 l 1
 974 833 l 1
 814 950 l 1
 866 1023 l 1
453 950 m 1
 294 833 l 1
 241 906 l 1
 402 1023 l 1
 453 950 l 1
1110 793 m 1
 1171 604 l 1
 1085 576 l 1
 1024 765 l 1
 1110 793 l 1
244 765 m 1
 182 576 l 1
 97 604 l 1
 158 793 l 1
 244 765 l 1
1171 463 m 1
 1110 274 l 1
 1024 302 l 1
 1085 491 l 1
 1171 463 l 1
182 491 m 1
 244 302 l 1
 158 274 l 1
 97 463 l 1
 182 491 l 1
1027 161 m 1
 866 44 l 1
 814 117 l 1
 974 233 l 1
 1027 161 l 1
294 233 m 1
 453 117 l 1
 402 44 l 1
 241 161 l 1
 294 233 l 1
733 1 m 1
 534 1 l 1
 534 91 l 1
 733 91 l 1
 733 1 l 1
EndSplineSet
EndChar

StartChar: macron
Encoding: 316 -1 316
Width: 1552
VWidth: 2211
GlyphClass: 2
<<<<<<< HEAD
Flags: MW
=======
Flags: W
HStem: 1007 124<553 1009>
VStem: 551 460
>>>>>>> updates
LayerCount: 2
Fore
SplineSet
1011 1131 m 1
 1009 1007 l 1
 551 1007 l 1
 553 1131 l 1
 1011 1131 l 1
EndSplineSet
EndChar

StartChar: asciicircum.001
Encoding: 317 -1 317
Width: 1549
VWidth: 2211
GlyphClass: 2
<<<<<<< HEAD
Flags: MW
=======
Flags: W
HStem: 874 218<618 940>
DStem2: 412 551 550 467 0.503176 0.864184<0 463.797> 831 1092 779 874 0.503176 -0.864184<162.227 626.024>
>>>>>>> updates
LayerCount: 2
Fore
SplineSet
779 874 m 1
 550 467 l 1
 412 551 l 1
 727 1092 l 1
 831 1092 l 1
 1146 551 l 1
 1008 467 l 1
 779 874 l 1
EndSplineSet
EndChar

StartChar: dotlessi
Encoding: 351 305 351
Width: 634
<<<<<<< HEAD
Flags: HMW
=======
Flags: W
HStem: 0 21G<224 406> 1149 20G<224 406>
VStem: 224 182<0 1169>
>>>>>>> updates
LayerCount: 2
Fore
SplineSet
406 0 m 1
 224 0 l 1
 224 1169 l 1
 406 1169 l 1
 406 0 l 1
EndSplineSet
EndChar

